%TF.GenerationSoftware,KiCad,Pcbnew,8.0.5*%
%TF.CreationDate,2024-10-17T14:29:30+05:30*%
%TF.ProjectId,soil_moisture,736f696c-5f6d-46f6-9973-747572652e6b,rev?*%
%TF.SameCoordinates,Original*%
%TF.FileFunction,Drillmap*%
%TF.FilePolarity,Positive*%
%FSLAX45Y45*%
G04 Gerber Fmt 4.5, Leading zero omitted, Abs format (unit mm)*
G04 Created by KiCad (PCBNEW 8.0.5) date 2024-10-17 14:29:30*
%MOMM*%
%LPD*%
G01*
G04 APERTURE LIST*
%ADD10C,0.200000*%
%ADD11C,0.400000*%
G04 APERTURE END LIST*
D10*
X12939944Y-6501000D02*
G75*
G02*
X13113678Y-6700000I-15894J-189215D01*
G01*
X15268494Y-6805509D02*
X15267800Y-11798061D01*
X14535821Y-11920082D02*
X14860000Y-12605250D01*
X13419511Y-6666250D02*
X15137914Y-6665196D01*
X15137914Y-6665196D02*
G75*
G02*
X15268496Y-6805509I-4174J-134804D01*
G01*
X13268599Y-6792830D02*
X13268479Y-11826716D01*
X9213800Y-12600000D02*
X13004679Y-12600000D01*
X13296300Y-11923905D02*
G75*
G02*
X13268476Y-11826716I112680J84835D01*
G01*
X13113800Y-12454776D02*
G75*
G02*
X13004679Y-12600000I-127173J-18051D01*
G01*
X14026992Y-11818061D02*
G75*
G02*
X13993990Y-11935250I-169142J-15609D01*
G01*
X13676700Y-12605250D02*
G75*
G02*
X13619175Y-12605075I-28700J20600D01*
G01*
X13296300Y-11923905D02*
X13619181Y-12605071D01*
X13268599Y-6792830D02*
G75*
G02*
X13419511Y-6666247I137661J-10870D01*
G01*
X15267800Y-11798061D02*
G75*
G02*
X15239997Y-11925248I-179570J-27379D01*
G01*
X14027100Y-7565872D02*
X14026992Y-11818061D01*
X9213800Y-12600000D02*
G75*
G02*
X9048294Y-12444173I-4834J160673D01*
G01*
X9048294Y-6700000D02*
X9048294Y-12444173D01*
X14535821Y-11920082D02*
G75*
G02*
X14510003Y-11822894I113679J82222D01*
G01*
X13113679Y-6700000D02*
X13113800Y-12454776D01*
X9048225Y-6700000D02*
G75*
G02*
X9260056Y-6499113I191603J10088D01*
G01*
X9260056Y-6499113D02*
X12939944Y-6501000D01*
X13676700Y-12605250D02*
X13993990Y-11935250D01*
X14918000Y-12605250D02*
X15240000Y-11925250D01*
X14027100Y-7565872D02*
G75*
G02*
X14509811Y-7565872I241355J0D01*
G01*
X14509811Y-7565872D02*
X14510000Y-11822893D01*
X14918000Y-12605250D02*
G75*
G02*
X14860000Y-12605250I-29000J20688D01*
G01*
D11*
X9193800Y-12040000D02*
X9593800Y-12440000D01*
X9593800Y-12040000D02*
X9193800Y-12440000D01*
X9213800Y-6670000D02*
X9613800Y-7070000D01*
X9613800Y-6670000D02*
X9213800Y-7070000D01*
X12513800Y-6670000D02*
X12913800Y-7070000D01*
X12913800Y-6670000D02*
X12513800Y-7070000D01*
X12563800Y-12040000D02*
X12963800Y-12440000D01*
X12963800Y-12040000D02*
X12563800Y-12440000D01*
D10*
X9298736Y-12941669D02*
X9298736Y-12741669D01*
X9298736Y-12741669D02*
X9346355Y-12741669D01*
X9346355Y-12741669D02*
X9374927Y-12751192D01*
X9374927Y-12751192D02*
X9393974Y-12770240D01*
X9393974Y-12770240D02*
X9403498Y-12789288D01*
X9403498Y-12789288D02*
X9413022Y-12827383D01*
X9413022Y-12827383D02*
X9413022Y-12855954D01*
X9413022Y-12855954D02*
X9403498Y-12894049D01*
X9403498Y-12894049D02*
X9393974Y-12913097D01*
X9393974Y-12913097D02*
X9374927Y-12932145D01*
X9374927Y-12932145D02*
X9346355Y-12941669D01*
X9346355Y-12941669D02*
X9298736Y-12941669D01*
X9498736Y-12941669D02*
X9498736Y-12808335D01*
X9498736Y-12846430D02*
X9508260Y-12827383D01*
X9508260Y-12827383D02*
X9517784Y-12817859D01*
X9517784Y-12817859D02*
X9536831Y-12808335D01*
X9536831Y-12808335D02*
X9555879Y-12808335D01*
X9622546Y-12941669D02*
X9622546Y-12808335D01*
X9622546Y-12741669D02*
X9613022Y-12751192D01*
X9613022Y-12751192D02*
X9622546Y-12760716D01*
X9622546Y-12760716D02*
X9632069Y-12751192D01*
X9632069Y-12751192D02*
X9622546Y-12741669D01*
X9622546Y-12741669D02*
X9622546Y-12760716D01*
X9746355Y-12941669D02*
X9727307Y-12932145D01*
X9727307Y-12932145D02*
X9717784Y-12913097D01*
X9717784Y-12913097D02*
X9717784Y-12741669D01*
X9851117Y-12941669D02*
X9832069Y-12932145D01*
X9832069Y-12932145D02*
X9822546Y-12913097D01*
X9822546Y-12913097D02*
X9822546Y-12741669D01*
X10079688Y-12941669D02*
X10079688Y-12741669D01*
X10079688Y-12741669D02*
X10146355Y-12884526D01*
X10146355Y-12884526D02*
X10213022Y-12741669D01*
X10213022Y-12741669D02*
X10213022Y-12941669D01*
X10393974Y-12941669D02*
X10393974Y-12836907D01*
X10393974Y-12836907D02*
X10384450Y-12817859D01*
X10384450Y-12817859D02*
X10365403Y-12808335D01*
X10365403Y-12808335D02*
X10327307Y-12808335D01*
X10327307Y-12808335D02*
X10308260Y-12817859D01*
X10393974Y-12932145D02*
X10374927Y-12941669D01*
X10374927Y-12941669D02*
X10327307Y-12941669D01*
X10327307Y-12941669D02*
X10308260Y-12932145D01*
X10308260Y-12932145D02*
X10298736Y-12913097D01*
X10298736Y-12913097D02*
X10298736Y-12894049D01*
X10298736Y-12894049D02*
X10308260Y-12875002D01*
X10308260Y-12875002D02*
X10327307Y-12865478D01*
X10327307Y-12865478D02*
X10374927Y-12865478D01*
X10374927Y-12865478D02*
X10393974Y-12855954D01*
X10489212Y-12808335D02*
X10489212Y-13008335D01*
X10489212Y-12817859D02*
X10508260Y-12808335D01*
X10508260Y-12808335D02*
X10546355Y-12808335D01*
X10546355Y-12808335D02*
X10565403Y-12817859D01*
X10565403Y-12817859D02*
X10574927Y-12827383D01*
X10574927Y-12827383D02*
X10584450Y-12846430D01*
X10584450Y-12846430D02*
X10584450Y-12903573D01*
X10584450Y-12903573D02*
X10574927Y-12922621D01*
X10574927Y-12922621D02*
X10565403Y-12932145D01*
X10565403Y-12932145D02*
X10546355Y-12941669D01*
X10546355Y-12941669D02*
X10508260Y-12941669D01*
X10508260Y-12941669D02*
X10489212Y-12932145D01*
X10670165Y-12922621D02*
X10679688Y-12932145D01*
X10679688Y-12932145D02*
X10670165Y-12941669D01*
X10670165Y-12941669D02*
X10660641Y-12932145D01*
X10660641Y-12932145D02*
X10670165Y-12922621D01*
X10670165Y-12922621D02*
X10670165Y-12941669D01*
X10670165Y-12817859D02*
X10679688Y-12827383D01*
X10679688Y-12827383D02*
X10670165Y-12836907D01*
X10670165Y-12836907D02*
X10660641Y-12827383D01*
X10660641Y-12827383D02*
X10670165Y-12817859D01*
X10670165Y-12817859D02*
X10670165Y-12836907D01*
X8837959Y-13170185D02*
X9037959Y-13370185D01*
X9037959Y-13170185D02*
X8837959Y-13370185D01*
X9384450Y-13228335D02*
X9384450Y-13361669D01*
X9336831Y-13152145D02*
X9289212Y-13295002D01*
X9289212Y-13295002D02*
X9413022Y-13295002D01*
X9489212Y-13342621D02*
X9498736Y-13352145D01*
X9498736Y-13352145D02*
X9489212Y-13361669D01*
X9489212Y-13361669D02*
X9479688Y-13352145D01*
X9479688Y-13352145D02*
X9489212Y-13342621D01*
X9489212Y-13342621D02*
X9489212Y-13361669D01*
X9622546Y-13161669D02*
X9641593Y-13161669D01*
X9641593Y-13161669D02*
X9660641Y-13171192D01*
X9660641Y-13171192D02*
X9670165Y-13180716D01*
X9670165Y-13180716D02*
X9679688Y-13199764D01*
X9679688Y-13199764D02*
X9689212Y-13237859D01*
X9689212Y-13237859D02*
X9689212Y-13285478D01*
X9689212Y-13285478D02*
X9679688Y-13323573D01*
X9679688Y-13323573D02*
X9670165Y-13342621D01*
X9670165Y-13342621D02*
X9660641Y-13352145D01*
X9660641Y-13352145D02*
X9641593Y-13361669D01*
X9641593Y-13361669D02*
X9622546Y-13361669D01*
X9622546Y-13361669D02*
X9603498Y-13352145D01*
X9603498Y-13352145D02*
X9593974Y-13342621D01*
X9593974Y-13342621D02*
X9584450Y-13323573D01*
X9584450Y-13323573D02*
X9574927Y-13285478D01*
X9574927Y-13285478D02*
X9574927Y-13237859D01*
X9574927Y-13237859D02*
X9584450Y-13199764D01*
X9584450Y-13199764D02*
X9593974Y-13180716D01*
X9593974Y-13180716D02*
X9603498Y-13171192D01*
X9603498Y-13171192D02*
X9622546Y-13161669D01*
X9813022Y-13161669D02*
X9832069Y-13161669D01*
X9832069Y-13161669D02*
X9851117Y-13171192D01*
X9851117Y-13171192D02*
X9860641Y-13180716D01*
X9860641Y-13180716D02*
X9870165Y-13199764D01*
X9870165Y-13199764D02*
X9879688Y-13237859D01*
X9879688Y-13237859D02*
X9879688Y-13285478D01*
X9879688Y-13285478D02*
X9870165Y-13323573D01*
X9870165Y-13323573D02*
X9860641Y-13342621D01*
X9860641Y-13342621D02*
X9851117Y-13352145D01*
X9851117Y-13352145D02*
X9832069Y-13361669D01*
X9832069Y-13361669D02*
X9813022Y-13361669D01*
X9813022Y-13361669D02*
X9793974Y-13352145D01*
X9793974Y-13352145D02*
X9784450Y-13342621D01*
X9784450Y-13342621D02*
X9774927Y-13323573D01*
X9774927Y-13323573D02*
X9765403Y-13285478D01*
X9765403Y-13285478D02*
X9765403Y-13237859D01*
X9765403Y-13237859D02*
X9774927Y-13199764D01*
X9774927Y-13199764D02*
X9784450Y-13180716D01*
X9784450Y-13180716D02*
X9793974Y-13171192D01*
X9793974Y-13171192D02*
X9813022Y-13161669D01*
X10003498Y-13161669D02*
X10022546Y-13161669D01*
X10022546Y-13161669D02*
X10041593Y-13171192D01*
X10041593Y-13171192D02*
X10051117Y-13180716D01*
X10051117Y-13180716D02*
X10060641Y-13199764D01*
X10060641Y-13199764D02*
X10070165Y-13237859D01*
X10070165Y-13237859D02*
X10070165Y-13285478D01*
X10070165Y-13285478D02*
X10060641Y-13323573D01*
X10060641Y-13323573D02*
X10051117Y-13342621D01*
X10051117Y-13342621D02*
X10041593Y-13352145D01*
X10041593Y-13352145D02*
X10022546Y-13361669D01*
X10022546Y-13361669D02*
X10003498Y-13361669D01*
X10003498Y-13361669D02*
X9984450Y-13352145D01*
X9984450Y-13352145D02*
X9974927Y-13342621D01*
X9974927Y-13342621D02*
X9965403Y-13323573D01*
X9965403Y-13323573D02*
X9955879Y-13285478D01*
X9955879Y-13285478D02*
X9955879Y-13237859D01*
X9955879Y-13237859D02*
X9965403Y-13199764D01*
X9965403Y-13199764D02*
X9974927Y-13180716D01*
X9974927Y-13180716D02*
X9984450Y-13171192D01*
X9984450Y-13171192D02*
X10003498Y-13161669D01*
X10155879Y-13361669D02*
X10155879Y-13228335D01*
X10155879Y-13247383D02*
X10165403Y-13237859D01*
X10165403Y-13237859D02*
X10184450Y-13228335D01*
X10184450Y-13228335D02*
X10213022Y-13228335D01*
X10213022Y-13228335D02*
X10232069Y-13237859D01*
X10232069Y-13237859D02*
X10241593Y-13256907D01*
X10241593Y-13256907D02*
X10241593Y-13361669D01*
X10241593Y-13256907D02*
X10251117Y-13237859D01*
X10251117Y-13237859D02*
X10270165Y-13228335D01*
X10270165Y-13228335D02*
X10298736Y-13228335D01*
X10298736Y-13228335D02*
X10317784Y-13237859D01*
X10317784Y-13237859D02*
X10327308Y-13256907D01*
X10327308Y-13256907D02*
X10327308Y-13361669D01*
X10422546Y-13361669D02*
X10422546Y-13228335D01*
X10422546Y-13247383D02*
X10432069Y-13237859D01*
X10432069Y-13237859D02*
X10451117Y-13228335D01*
X10451117Y-13228335D02*
X10479689Y-13228335D01*
X10479689Y-13228335D02*
X10498736Y-13237859D01*
X10498736Y-13237859D02*
X10508260Y-13256907D01*
X10508260Y-13256907D02*
X10508260Y-13361669D01*
X10508260Y-13256907D02*
X10517784Y-13237859D01*
X10517784Y-13237859D02*
X10536831Y-13228335D01*
X10536831Y-13228335D02*
X10565403Y-13228335D01*
X10565403Y-13228335D02*
X10584450Y-13237859D01*
X10584450Y-13237859D02*
X10593974Y-13256907D01*
X10593974Y-13256907D02*
X10593974Y-13361669D01*
X10984450Y-13152145D02*
X10813022Y-13409288D01*
X11241593Y-13161669D02*
X11260641Y-13161669D01*
X11260641Y-13161669D02*
X11279689Y-13171192D01*
X11279689Y-13171192D02*
X11289212Y-13180716D01*
X11289212Y-13180716D02*
X11298736Y-13199764D01*
X11298736Y-13199764D02*
X11308260Y-13237859D01*
X11308260Y-13237859D02*
X11308260Y-13285478D01*
X11308260Y-13285478D02*
X11298736Y-13323573D01*
X11298736Y-13323573D02*
X11289212Y-13342621D01*
X11289212Y-13342621D02*
X11279689Y-13352145D01*
X11279689Y-13352145D02*
X11260641Y-13361669D01*
X11260641Y-13361669D02*
X11241593Y-13361669D01*
X11241593Y-13361669D02*
X11222546Y-13352145D01*
X11222546Y-13352145D02*
X11213022Y-13342621D01*
X11213022Y-13342621D02*
X11203498Y-13323573D01*
X11203498Y-13323573D02*
X11193974Y-13285478D01*
X11193974Y-13285478D02*
X11193974Y-13237859D01*
X11193974Y-13237859D02*
X11203498Y-13199764D01*
X11203498Y-13199764D02*
X11213022Y-13180716D01*
X11213022Y-13180716D02*
X11222546Y-13171192D01*
X11222546Y-13171192D02*
X11241593Y-13161669D01*
X11393974Y-13342621D02*
X11403498Y-13352145D01*
X11403498Y-13352145D02*
X11393974Y-13361669D01*
X11393974Y-13361669D02*
X11384450Y-13352145D01*
X11384450Y-13352145D02*
X11393974Y-13342621D01*
X11393974Y-13342621D02*
X11393974Y-13361669D01*
X11593974Y-13361669D02*
X11479689Y-13361669D01*
X11536831Y-13361669D02*
X11536831Y-13161669D01*
X11536831Y-13161669D02*
X11517784Y-13190240D01*
X11517784Y-13190240D02*
X11498736Y-13209288D01*
X11498736Y-13209288D02*
X11479689Y-13218811D01*
X11774927Y-13161669D02*
X11679689Y-13161669D01*
X11679689Y-13161669D02*
X11670165Y-13256907D01*
X11670165Y-13256907D02*
X11679689Y-13247383D01*
X11679689Y-13247383D02*
X11698736Y-13237859D01*
X11698736Y-13237859D02*
X11746355Y-13237859D01*
X11746355Y-13237859D02*
X11765403Y-13247383D01*
X11765403Y-13247383D02*
X11774927Y-13256907D01*
X11774927Y-13256907D02*
X11784450Y-13275954D01*
X11784450Y-13275954D02*
X11784450Y-13323573D01*
X11784450Y-13323573D02*
X11774927Y-13342621D01*
X11774927Y-13342621D02*
X11765403Y-13352145D01*
X11765403Y-13352145D02*
X11746355Y-13361669D01*
X11746355Y-13361669D02*
X11698736Y-13361669D01*
X11698736Y-13361669D02*
X11679689Y-13352145D01*
X11679689Y-13352145D02*
X11670165Y-13342621D01*
X11851117Y-13161669D02*
X11984450Y-13161669D01*
X11984450Y-13161669D02*
X11898736Y-13361669D01*
X12155879Y-13161669D02*
X12060641Y-13161669D01*
X12060641Y-13161669D02*
X12051117Y-13256907D01*
X12051117Y-13256907D02*
X12060641Y-13247383D01*
X12060641Y-13247383D02*
X12079689Y-13237859D01*
X12079689Y-13237859D02*
X12127308Y-13237859D01*
X12127308Y-13237859D02*
X12146355Y-13247383D01*
X12146355Y-13247383D02*
X12155879Y-13256907D01*
X12155879Y-13256907D02*
X12165403Y-13275954D01*
X12165403Y-13275954D02*
X12165403Y-13323573D01*
X12165403Y-13323573D02*
X12155879Y-13342621D01*
X12155879Y-13342621D02*
X12146355Y-13352145D01*
X12146355Y-13352145D02*
X12127308Y-13361669D01*
X12127308Y-13361669D02*
X12079689Y-13361669D01*
X12079689Y-13361669D02*
X12060641Y-13352145D01*
X12060641Y-13352145D02*
X12051117Y-13342621D01*
X12241593Y-13161669D02*
X12241593Y-13199764D01*
X12317784Y-13161669D02*
X12317784Y-13199764D01*
X12613022Y-13437859D02*
X12603498Y-13428335D01*
X12603498Y-13428335D02*
X12584451Y-13399764D01*
X12584451Y-13399764D02*
X12574927Y-13380716D01*
X12574927Y-13380716D02*
X12565403Y-13352145D01*
X12565403Y-13352145D02*
X12555879Y-13304526D01*
X12555879Y-13304526D02*
X12555879Y-13266430D01*
X12555879Y-13266430D02*
X12565403Y-13218811D01*
X12565403Y-13218811D02*
X12574927Y-13190240D01*
X12574927Y-13190240D02*
X12584451Y-13171192D01*
X12584451Y-13171192D02*
X12603498Y-13142621D01*
X12603498Y-13142621D02*
X12613022Y-13133097D01*
X12774927Y-13228335D02*
X12774927Y-13361669D01*
X12727308Y-13152145D02*
X12679689Y-13295002D01*
X12679689Y-13295002D02*
X12803498Y-13295002D01*
X13032070Y-13361669D02*
X13032070Y-13161669D01*
X13117784Y-13361669D02*
X13117784Y-13256907D01*
X13117784Y-13256907D02*
X13108260Y-13237859D01*
X13108260Y-13237859D02*
X13089213Y-13228335D01*
X13089213Y-13228335D02*
X13060641Y-13228335D01*
X13060641Y-13228335D02*
X13041593Y-13237859D01*
X13041593Y-13237859D02*
X13032070Y-13247383D01*
X13241593Y-13361669D02*
X13222546Y-13352145D01*
X13222546Y-13352145D02*
X13213022Y-13342621D01*
X13213022Y-13342621D02*
X13203498Y-13323573D01*
X13203498Y-13323573D02*
X13203498Y-13266430D01*
X13203498Y-13266430D02*
X13213022Y-13247383D01*
X13213022Y-13247383D02*
X13222546Y-13237859D01*
X13222546Y-13237859D02*
X13241593Y-13228335D01*
X13241593Y-13228335D02*
X13270165Y-13228335D01*
X13270165Y-13228335D02*
X13289213Y-13237859D01*
X13289213Y-13237859D02*
X13298736Y-13247383D01*
X13298736Y-13247383D02*
X13308260Y-13266430D01*
X13308260Y-13266430D02*
X13308260Y-13323573D01*
X13308260Y-13323573D02*
X13298736Y-13342621D01*
X13298736Y-13342621D02*
X13289213Y-13352145D01*
X13289213Y-13352145D02*
X13270165Y-13361669D01*
X13270165Y-13361669D02*
X13241593Y-13361669D01*
X13422546Y-13361669D02*
X13403498Y-13352145D01*
X13403498Y-13352145D02*
X13393974Y-13333097D01*
X13393974Y-13333097D02*
X13393974Y-13161669D01*
X13574927Y-13352145D02*
X13555879Y-13361669D01*
X13555879Y-13361669D02*
X13517784Y-13361669D01*
X13517784Y-13361669D02*
X13498736Y-13352145D01*
X13498736Y-13352145D02*
X13489213Y-13333097D01*
X13489213Y-13333097D02*
X13489213Y-13256907D01*
X13489213Y-13256907D02*
X13498736Y-13237859D01*
X13498736Y-13237859D02*
X13517784Y-13228335D01*
X13517784Y-13228335D02*
X13555879Y-13228335D01*
X13555879Y-13228335D02*
X13574927Y-13237859D01*
X13574927Y-13237859D02*
X13584451Y-13256907D01*
X13584451Y-13256907D02*
X13584451Y-13275954D01*
X13584451Y-13275954D02*
X13489213Y-13295002D01*
X13660641Y-13352145D02*
X13679689Y-13361669D01*
X13679689Y-13361669D02*
X13717784Y-13361669D01*
X13717784Y-13361669D02*
X13736832Y-13352145D01*
X13736832Y-13352145D02*
X13746355Y-13333097D01*
X13746355Y-13333097D02*
X13746355Y-13323573D01*
X13746355Y-13323573D02*
X13736832Y-13304526D01*
X13736832Y-13304526D02*
X13717784Y-13295002D01*
X13717784Y-13295002D02*
X13689213Y-13295002D01*
X13689213Y-13295002D02*
X13670165Y-13285478D01*
X13670165Y-13285478D02*
X13660641Y-13266430D01*
X13660641Y-13266430D02*
X13660641Y-13256907D01*
X13660641Y-13256907D02*
X13670165Y-13237859D01*
X13670165Y-13237859D02*
X13689213Y-13228335D01*
X13689213Y-13228335D02*
X13717784Y-13228335D01*
X13717784Y-13228335D02*
X13736832Y-13237859D01*
X13813022Y-13437859D02*
X13822546Y-13428335D01*
X13822546Y-13428335D02*
X13841594Y-13399764D01*
X13841594Y-13399764D02*
X13851117Y-13380716D01*
X13851117Y-13380716D02*
X13860641Y-13352145D01*
X13860641Y-13352145D02*
X13870165Y-13304526D01*
X13870165Y-13304526D02*
X13870165Y-13266430D01*
X13870165Y-13266430D02*
X13860641Y-13218811D01*
X13860641Y-13218811D02*
X13851117Y-13190240D01*
X13851117Y-13190240D02*
X13841594Y-13171192D01*
X13841594Y-13171192D02*
X13822546Y-13142621D01*
X13822546Y-13142621D02*
X13813022Y-13133097D01*
X14174927Y-13437859D02*
X14165403Y-13428335D01*
X14165403Y-13428335D02*
X14146355Y-13399764D01*
X14146355Y-13399764D02*
X14136832Y-13380716D01*
X14136832Y-13380716D02*
X14127308Y-13352145D01*
X14127308Y-13352145D02*
X14117784Y-13304526D01*
X14117784Y-13304526D02*
X14117784Y-13266430D01*
X14117784Y-13266430D02*
X14127308Y-13218811D01*
X14127308Y-13218811D02*
X14136832Y-13190240D01*
X14136832Y-13190240D02*
X14146355Y-13171192D01*
X14146355Y-13171192D02*
X14165403Y-13142621D01*
X14165403Y-13142621D02*
X14174927Y-13133097D01*
X14251117Y-13228335D02*
X14251117Y-13361669D01*
X14251117Y-13247383D02*
X14260641Y-13237859D01*
X14260641Y-13237859D02*
X14279689Y-13228335D01*
X14279689Y-13228335D02*
X14308260Y-13228335D01*
X14308260Y-13228335D02*
X14327308Y-13237859D01*
X14327308Y-13237859D02*
X14336832Y-13256907D01*
X14336832Y-13256907D02*
X14336832Y-13361669D01*
X14460641Y-13361669D02*
X14441594Y-13352145D01*
X14441594Y-13352145D02*
X14432070Y-13342621D01*
X14432070Y-13342621D02*
X14422546Y-13323573D01*
X14422546Y-13323573D02*
X14422546Y-13266430D01*
X14422546Y-13266430D02*
X14432070Y-13247383D01*
X14432070Y-13247383D02*
X14441594Y-13237859D01*
X14441594Y-13237859D02*
X14460641Y-13228335D01*
X14460641Y-13228335D02*
X14489213Y-13228335D01*
X14489213Y-13228335D02*
X14508260Y-13237859D01*
X14508260Y-13237859D02*
X14517784Y-13247383D01*
X14517784Y-13247383D02*
X14527308Y-13266430D01*
X14527308Y-13266430D02*
X14527308Y-13323573D01*
X14527308Y-13323573D02*
X14517784Y-13342621D01*
X14517784Y-13342621D02*
X14508260Y-13352145D01*
X14508260Y-13352145D02*
X14489213Y-13361669D01*
X14489213Y-13361669D02*
X14460641Y-13361669D01*
X14584451Y-13228335D02*
X14660641Y-13228335D01*
X14613022Y-13161669D02*
X14613022Y-13333097D01*
X14613022Y-13333097D02*
X14622546Y-13352145D01*
X14622546Y-13352145D02*
X14641594Y-13361669D01*
X14641594Y-13361669D02*
X14660641Y-13361669D01*
X14879689Y-13228335D02*
X14879689Y-13428335D01*
X14879689Y-13237859D02*
X14898736Y-13228335D01*
X14898736Y-13228335D02*
X14936832Y-13228335D01*
X14936832Y-13228335D02*
X14955879Y-13237859D01*
X14955879Y-13237859D02*
X14965403Y-13247383D01*
X14965403Y-13247383D02*
X14974927Y-13266430D01*
X14974927Y-13266430D02*
X14974927Y-13323573D01*
X14974927Y-13323573D02*
X14965403Y-13342621D01*
X14965403Y-13342621D02*
X14955879Y-13352145D01*
X14955879Y-13352145D02*
X14936832Y-13361669D01*
X14936832Y-13361669D02*
X14898736Y-13361669D01*
X14898736Y-13361669D02*
X14879689Y-13352145D01*
X15089213Y-13361669D02*
X15070165Y-13352145D01*
X15070165Y-13352145D02*
X15060641Y-13333097D01*
X15060641Y-13333097D02*
X15060641Y-13161669D01*
X15251117Y-13361669D02*
X15251117Y-13256907D01*
X15251117Y-13256907D02*
X15241594Y-13237859D01*
X15241594Y-13237859D02*
X15222546Y-13228335D01*
X15222546Y-13228335D02*
X15184451Y-13228335D01*
X15184451Y-13228335D02*
X15165403Y-13237859D01*
X15251117Y-13352145D02*
X15232070Y-13361669D01*
X15232070Y-13361669D02*
X15184451Y-13361669D01*
X15184451Y-13361669D02*
X15165403Y-13352145D01*
X15165403Y-13352145D02*
X15155879Y-13333097D01*
X15155879Y-13333097D02*
X15155879Y-13314049D01*
X15155879Y-13314049D02*
X15165403Y-13295002D01*
X15165403Y-13295002D02*
X15184451Y-13285478D01*
X15184451Y-13285478D02*
X15232070Y-13285478D01*
X15232070Y-13285478D02*
X15251117Y-13275954D01*
X15317784Y-13228335D02*
X15393975Y-13228335D01*
X15346356Y-13161669D02*
X15346356Y-13333097D01*
X15346356Y-13333097D02*
X15355879Y-13352145D01*
X15355879Y-13352145D02*
X15374927Y-13361669D01*
X15374927Y-13361669D02*
X15393975Y-13361669D01*
X15536832Y-13352145D02*
X15517784Y-13361669D01*
X15517784Y-13361669D02*
X15479689Y-13361669D01*
X15479689Y-13361669D02*
X15460641Y-13352145D01*
X15460641Y-13352145D02*
X15451117Y-13333097D01*
X15451117Y-13333097D02*
X15451117Y-13256907D01*
X15451117Y-13256907D02*
X15460641Y-13237859D01*
X15460641Y-13237859D02*
X15479689Y-13228335D01*
X15479689Y-13228335D02*
X15517784Y-13228335D01*
X15517784Y-13228335D02*
X15536832Y-13237859D01*
X15536832Y-13237859D02*
X15546356Y-13256907D01*
X15546356Y-13256907D02*
X15546356Y-13275954D01*
X15546356Y-13275954D02*
X15451117Y-13295002D01*
X15717784Y-13361669D02*
X15717784Y-13161669D01*
X15717784Y-13352145D02*
X15698737Y-13361669D01*
X15698737Y-13361669D02*
X15660641Y-13361669D01*
X15660641Y-13361669D02*
X15641594Y-13352145D01*
X15641594Y-13352145D02*
X15632070Y-13342621D01*
X15632070Y-13342621D02*
X15622546Y-13323573D01*
X15622546Y-13323573D02*
X15622546Y-13266430D01*
X15622546Y-13266430D02*
X15632070Y-13247383D01*
X15632070Y-13247383D02*
X15641594Y-13237859D01*
X15641594Y-13237859D02*
X15660641Y-13228335D01*
X15660641Y-13228335D02*
X15698737Y-13228335D01*
X15698737Y-13228335D02*
X15717784Y-13237859D01*
X15793975Y-13437859D02*
X15803498Y-13428335D01*
X15803498Y-13428335D02*
X15822546Y-13399764D01*
X15822546Y-13399764D02*
X15832070Y-13380716D01*
X15832070Y-13380716D02*
X15841594Y-13352145D01*
X15841594Y-13352145D02*
X15851117Y-13304526D01*
X15851117Y-13304526D02*
X15851117Y-13266430D01*
X15851117Y-13266430D02*
X15841594Y-13218811D01*
X15841594Y-13218811D02*
X15832070Y-13190240D01*
X15832070Y-13190240D02*
X15822546Y-13171192D01*
X15822546Y-13171192D02*
X15803498Y-13142621D01*
X15803498Y-13142621D02*
X15793975Y-13133097D01*
M02*
