%TF.GenerationSoftware,KiCad,Pcbnew,8.0.5*%
%TF.CreationDate,2024-10-17T14:29:37+05:30*%
%TF.ProjectId,soil_moisture,736f696c-5f6d-46f6-9973-747572652e6b,rev?*%
%TF.SameCoordinates,Original*%
%TF.FileFunction,Copper,L2,Bot*%
%TF.FilePolarity,Positive*%
%FSLAX46Y46*%
G04 Gerber Fmt 4.6, Leading zero omitted, Abs format (unit mm)*
G04 Created by KiCad (PCBNEW 8.0.5) date 2024-10-17 14:29:37*
%MOMM*%
%LPD*%
G01*
G04 APERTURE LIST*
G04 Aperture macros list*
%AMRoundRect*
0 Rectangle with rounded corners*
0 $1 Rounding radius*
0 $2 $3 $4 $5 $6 $7 $8 $9 X,Y pos of 4 corners*
0 Add a 4 corners polygon primitive as box body*
4,1,4,$2,$3,$4,$5,$6,$7,$8,$9,$2,$3,0*
0 Add four circle primitives for the rounded corners*
1,1,$1+$1,$2,$3*
1,1,$1+$1,$4,$5*
1,1,$1+$1,$6,$7*
1,1,$1+$1,$8,$9*
0 Add four rect primitives between the rounded corners*
20,1,$1+$1,$2,$3,$4,$5,0*
20,1,$1+$1,$4,$5,$6,$7,0*
20,1,$1+$1,$6,$7,$8,$9,0*
20,1,$1+$1,$8,$9,$2,$3,0*%
G04 Aperture macros list end*
%TA.AperFunction,ComponentPad*%
%ADD10R,1.500000X1.500000*%
%TD*%
%TA.AperFunction,ComponentPad*%
%ADD11C,1.500000*%
%TD*%
%TA.AperFunction,ComponentPad*%
%ADD12C,1.400000*%
%TD*%
%TA.AperFunction,ComponentPad*%
%ADD13O,1.400000X1.400000*%
%TD*%
%TA.AperFunction,ComponentPad*%
%ADD14R,1.600000X1.600000*%
%TD*%
%TA.AperFunction,ComponentPad*%
%ADD15O,1.600000X1.600000*%
%TD*%
%TA.AperFunction,ComponentPad*%
%ADD16R,1.800000X1.800000*%
%TD*%
%TA.AperFunction,ComponentPad*%
%ADD17C,1.800000*%
%TD*%
%TA.AperFunction,ComponentPad*%
%ADD18C,1.620000*%
%TD*%
%TA.AperFunction,ComponentPad*%
%ADD19R,1.700000X1.700000*%
%TD*%
%TA.AperFunction,ComponentPad*%
%ADD20O,1.700000X1.700000*%
%TD*%
%TA.AperFunction,ComponentPad*%
%ADD21R,1.308000X1.308000*%
%TD*%
%TA.AperFunction,ComponentPad*%
%ADD22C,1.308000*%
%TD*%
%TA.AperFunction,ComponentPad*%
%ADD23RoundRect,0.250000X0.600000X0.750000X-0.600000X0.750000X-0.600000X-0.750000X0.600000X-0.750000X0*%
%TD*%
%TA.AperFunction,ComponentPad*%
%ADD24O,1.700000X2.000000*%
%TD*%
%TA.AperFunction,Conductor*%
%ADD25C,0.254000*%
%TD*%
G04 APERTURE END LIST*
D10*
%TO.P,Q1,1,C*%
%TO.N,Net-(D5-A)*%
X119058001Y-105000000D03*
D11*
%TO.P,Q1,2,B*%
%TO.N,Net-(Q1-B)*%
X121598001Y-105000000D03*
%TO.P,Q1,3,E*%
%TO.N,Net-(D1-K)*%
X124138001Y-105000000D03*
%TD*%
D12*
%TO.P,R6,1*%
%TO.N,Net-(R3-Pad2)*%
X107518001Y-106000000D03*
D13*
%TO.P,R6,2*%
%TO.N,Net-(Q2-B)*%
X115138001Y-106000000D03*
%TD*%
D12*
%TO.P,R4,1*%
%TO.N,Net-(D3-A)*%
X107518001Y-100000000D03*
D13*
%TO.P,R4,2*%
%TO.N,Net-(R4-Pad2)*%
X115138001Y-100000000D03*
%TD*%
D14*
%TO.P,D5,1,K*%
%TO.N,Net-(D5-K)*%
X107518001Y-113000000D03*
D15*
%TO.P,D5,2,A*%
%TO.N,Net-(D5-A)*%
X115138001Y-113000000D03*
%TD*%
D16*
%TO.P,D1,1,K*%
%TO.N,Net-(D1-K)*%
X120598001Y-82000000D03*
D17*
%TO.P,D1,2,A*%
%TO.N,Net-(D1-A)*%
X123138001Y-82000000D03*
%TD*%
D16*
%TO.P,D3,1,K*%
%TO.N,Net-(D1-K)*%
X120598001Y-98000000D03*
D17*
%TO.P,D3,2,A*%
%TO.N,Net-(D3-A)*%
X123138001Y-98000000D03*
%TD*%
D18*
%TO.P,RV2,1,1*%
%TO.N,Net-(D5-K)*%
X99138001Y-95500000D03*
%TO.P,RV2,2,2*%
%TO.N,Net-(U1C--)*%
X104138001Y-93000000D03*
%TO.P,RV2,3,3*%
%TO.N,Net-(D1-K)*%
X99138001Y-90500000D03*
%TD*%
D16*
%TO.P,D4,1,K*%
%TO.N,Net-(D1-K)*%
X120598001Y-74000000D03*
D17*
%TO.P,D4,2,A*%
%TO.N,Net-(D4-A)*%
X123138001Y-74000000D03*
%TD*%
D18*
%TO.P,RV3,1,1*%
%TO.N,Net-(D5-K)*%
X99138001Y-104500000D03*
%TO.P,RV3,2,2*%
%TO.N,Net-(U1D--)*%
X104138001Y-102000000D03*
%TO.P,RV3,3,3*%
%TO.N,Net-(D1-K)*%
X99138001Y-99500000D03*
%TD*%
D19*
%TO.P,J3,1,Pin_1*%
%TO.N,Net-(D5-K)*%
X110598001Y-118000000D03*
D20*
%TO.P,J3,2,Pin_2*%
%TO.N,Net-(D5-A)*%
X113138001Y-118000000D03*
%TD*%
D21*
%TO.P,S1,1*%
%TO.N,Net-(D5-K)*%
X99138001Y-108000000D03*
D22*
%TO.P,S1,2*%
%TO.N,Net-(J1-Pin_2)*%
X101138001Y-108000000D03*
%TO.P,S1,3*%
%TO.N,unconnected-(S1-Pad3)*%
X103138001Y-108000000D03*
%TO.P,S1,4*%
%TO.N,unconnected-(S1-Pad4)*%
X99138001Y-113000000D03*
%TO.P,S1,5*%
%TO.N,unconnected-(S1-Pad5)*%
X101138001Y-113000000D03*
%TO.P,S1,6*%
%TO.N,unconnected-(S1-Pad6)*%
X103138001Y-113000000D03*
%TD*%
D18*
%TO.P,RV1,1,1*%
%TO.N,Net-(D5-K)*%
X99138001Y-86500000D03*
%TO.P,RV1,2,2*%
%TO.N,Net-(U1B--)*%
X104138001Y-84000000D03*
%TO.P,RV1,3,3*%
%TO.N,Net-(D1-K)*%
X99138001Y-81500000D03*
%TD*%
D19*
%TO.P,J2,1,Pin_1*%
%TO.N,Net-(D5-K)*%
X98138001Y-118000000D03*
D20*
%TO.P,J2,2,Pin_2*%
%TO.N,Net-(D1-K)*%
X100678001Y-118000000D03*
%TO.P,J2,3,Pin_3*%
%TO.N,Net-(J2-Pin_3)*%
X103218001Y-118000000D03*
%TD*%
D14*
%TO.P,D6,1,K*%
%TO.N,Net-(D5-A)*%
X107518001Y-110000000D03*
D15*
%TO.P,D6,2,A*%
%TO.N,Net-(D1-K)*%
X115138001Y-110000000D03*
%TD*%
D12*
%TO.P,R3,1*%
%TO.N,Net-(D2-A)*%
X107518001Y-97000000D03*
D13*
%TO.P,R3,2*%
%TO.N,Net-(R3-Pad2)*%
X115138001Y-97000000D03*
%TD*%
D10*
%TO.P,Q2,1,C*%
%TO.N,Net-(D5-A)*%
X119058001Y-111000000D03*
D11*
%TO.P,Q2,2,B*%
%TO.N,Net-(Q2-B)*%
X121598001Y-111000000D03*
%TO.P,Q2,3,E*%
%TO.N,Net-(D1-K)*%
X124138001Y-111000000D03*
%TD*%
D12*
%TO.P,R5,1*%
%TO.N,Net-(R2-Pad2)*%
X107518001Y-103000000D03*
D13*
%TO.P,R5,2*%
%TO.N,Net-(Q1-B)*%
X115138001Y-103000000D03*
%TD*%
D20*
%TO.P,J4,3,Pin_3*%
%TO.N,unconnected-(J4-Pin_2-Pad2)*%
X146000000Y-68352500D03*
%TO.P,J4,2,Pin_2*%
X143460000Y-68352500D03*
D19*
%TO.P,J4,1,Pin_1*%
%TO.N,Net-(J4-Pin_1)*%
X140920000Y-68352500D03*
%TD*%
D18*
%TO.P,RV4,1,1*%
%TO.N,Net-(D5-K)*%
X99138001Y-77500000D03*
%TO.P,RV4,2,2*%
%TO.N,Net-(U1A--)*%
X104138001Y-75000000D03*
%TO.P,RV4,3,3*%
%TO.N,Net-(D1-K)*%
X99138001Y-72500000D03*
%TD*%
D23*
%TO.P,J1,1,Pin_1*%
%TO.N,Net-(D1-K)*%
X123138001Y-117000000D03*
D24*
%TO.P,J1,2,Pin_2*%
%TO.N,Net-(J1-Pin_2)*%
X120638001Y-117000000D03*
%TD*%
D14*
%TO.P,U1,1*%
%TO.N,Net-(R2-Pad2)*%
X108138001Y-72000000D03*
D15*
%TO.P,U1,2,-*%
%TO.N,Net-(U1A--)*%
X108138001Y-74540000D03*
%TO.P,U1,3,+*%
%TO.N,Net-(J2-Pin_3)*%
X108138001Y-77080000D03*
%TO.P,U1,4,V+*%
%TO.N,Net-(D5-K)*%
X108138001Y-79620000D03*
%TO.P,U1,5,+*%
%TO.N,Net-(J2-Pin_3)*%
X108138001Y-82160000D03*
%TO.P,U1,6,-*%
%TO.N,Net-(U1B--)*%
X108138001Y-84700000D03*
%TO.P,U1,7*%
%TO.N,Net-(R1-Pad2)*%
X108138001Y-87240000D03*
%TO.P,U1,8*%
%TO.N,Net-(R3-Pad2)*%
X115758001Y-87240000D03*
%TO.P,U1,9,-*%
%TO.N,Net-(U1C--)*%
X115758001Y-84700000D03*
%TO.P,U1,10,+*%
%TO.N,Net-(J2-Pin_3)*%
X115758001Y-82160000D03*
%TO.P,U1,11,V-*%
%TO.N,Net-(D1-K)*%
X115758001Y-79620000D03*
%TO.P,U1,12,+*%
%TO.N,Net-(J2-Pin_3)*%
X115758001Y-77080000D03*
%TO.P,U1,13,-*%
%TO.N,Net-(U1D--)*%
X115758001Y-74540000D03*
%TO.P,U1,14*%
%TO.N,Net-(R4-Pad2)*%
X115758001Y-72000000D03*
%TD*%
D13*
%TO.P,R1,2*%
%TO.N,Net-(R1-Pad2)*%
X115138001Y-94000000D03*
D12*
%TO.P,R1,1*%
%TO.N,Net-(D1-A)*%
X107518001Y-94000000D03*
%TD*%
%TO.P,R2,1*%
%TO.N,Net-(D4-A)*%
X107518001Y-91000000D03*
D13*
%TO.P,R2,2*%
%TO.N,Net-(R2-Pad2)*%
X115138001Y-91000000D03*
%TD*%
D16*
%TO.P,D2,1,K*%
%TO.N,Net-(D1-K)*%
X120598001Y-90000000D03*
D17*
%TO.P,D2,2,A*%
%TO.N,Net-(D2-A)*%
X123138001Y-90000000D03*
%TD*%
D12*
%TO.P,R7,1*%
%TO.N,unconnected-(J4-Pin_2-Pad2)*%
X150620000Y-71752500D03*
D13*
%TO.P,R7,2*%
%TO.N,Net-(J4-Pin_1)*%
X143000000Y-71752500D03*
%TD*%
D25*
%TO.N,Net-(D1-K)*%
X116396301Y-79620000D02*
X115758001Y-79620000D01*
X117016301Y-79000000D02*
X116396301Y-79620000D01*
%TO.N,Net-(D5-K)*%
X104575101Y-112936700D02*
X104638401Y-113000000D01*
X104638401Y-113000000D02*
X107518001Y-113000000D01*
%TO.N,Net-(D5-A)*%
X107518001Y-110000000D02*
X112006301Y-110000000D01*
X112006301Y-110000000D02*
X113006301Y-111000000D01*
%TO.N,Net-(D1-K)*%
X124138001Y-105000000D02*
X124138001Y-111000000D01*
%TO.N,Net-(D5-K)*%
X102638001Y-79620000D02*
X101258001Y-81000000D01*
X108138001Y-79620000D02*
X102638001Y-79620000D01*
%TO.N,Net-(D1-A)*%
X123138001Y-83300000D02*
X123138001Y-82000000D01*
X112218001Y-89300000D02*
X117138001Y-89300000D01*
X107518001Y-94000000D02*
X112218001Y-89300000D01*
X117138001Y-89300000D02*
X123138001Y-83300000D01*
%TO.N,Net-(D2-A)*%
X123138001Y-91000000D02*
X123138001Y-90000000D01*
X108918001Y-95600000D02*
X118538001Y-95600000D01*
X118538001Y-95600000D02*
X123138001Y-91000000D01*
X107518001Y-97000000D02*
X108918001Y-95600000D01*
%TO.N,Net-(D3-A)*%
X108579401Y-98938600D02*
X107518001Y-100000000D01*
X116138001Y-98938600D02*
X108579401Y-98938600D01*
X117199401Y-100000000D02*
X116138001Y-98938600D01*
X121138001Y-100000000D02*
X117199401Y-100000000D01*
X123138001Y-98000000D02*
X121138001Y-100000000D01*
%TO.N,Net-(D1-K)*%
X116138001Y-109000000D02*
X115138001Y-110000000D01*
X122138001Y-109000000D02*
X116138001Y-109000000D01*
X123086301Y-109948300D02*
X122138001Y-109000000D01*
%TO.N,Net-(D5-A)*%
X119058001Y-111080000D02*
X119058001Y-111000000D01*
X117138001Y-113000000D02*
X119058001Y-111080000D01*
X115138001Y-113000000D02*
X117138001Y-113000000D01*
%TO.N,Net-(D5-K)*%
X99289701Y-116848300D02*
X98138001Y-118000000D01*
X100663501Y-116848300D02*
X99289701Y-116848300D01*
X104575101Y-112936700D02*
X100663501Y-116848300D01*
X99638401Y-108000000D02*
X104575101Y-112936700D01*
X99138001Y-108000000D02*
X99638401Y-108000000D01*
%TO.N,Net-(D1-K)*%
X113554601Y-78518300D02*
X105156301Y-78518300D01*
X117016301Y-78783400D02*
X120598001Y-75201700D01*
X115758001Y-79620000D02*
X114656301Y-79620000D01*
X124138001Y-111000000D02*
X123086301Y-109948300D01*
X119396301Y-82000000D02*
X117016301Y-79620000D01*
X120598001Y-74000000D02*
X120598001Y-75201700D01*
X114656301Y-79620000D02*
X113554601Y-78518300D01*
X120598001Y-82000000D02*
X119396301Y-82000000D01*
X105156301Y-78518300D02*
X99138001Y-72500000D01*
X117016301Y-79620000D02*
X117016301Y-78783400D01*
%TO.N,Net-(D5-A)*%
X115138001Y-113000000D02*
X114036301Y-113000000D01*
X113006301Y-111970000D02*
X114036301Y-113000000D01*
X119058001Y-105000000D02*
X118006301Y-105000000D01*
X113006301Y-110000000D02*
X113006301Y-111970000D01*
X113006301Y-110000000D02*
X118006301Y-105000000D01*
%TO.N,Net-(D4-A)*%
X121868001Y-82982900D02*
X121868001Y-75270000D01*
X110176301Y-88341700D02*
X116509201Y-88341700D01*
X116509201Y-88341700D02*
X121868001Y-82982900D01*
X107518001Y-91000000D02*
X110176301Y-88341700D01*
X121868001Y-75270000D02*
X123138001Y-74000000D01*
%TO.N,Net-(Q1-B)*%
X119598001Y-103000000D02*
X121598001Y-105000000D01*
X115138001Y-103000000D02*
X119598001Y-103000000D01*
%TO.N,Net-(U1C--)*%
X108005401Y-85801700D02*
X104138001Y-89669100D01*
X113554601Y-85801700D02*
X108005401Y-85801700D01*
X114656301Y-84700000D02*
X113554601Y-85801700D01*
X104138001Y-89669100D02*
X104138001Y-93000000D01*
X115758001Y-84700000D02*
X114656301Y-84700000D01*
%TO.N,Net-(U1B--)*%
X104838001Y-84700000D02*
X104138001Y-84000000D01*
X108138001Y-84700000D02*
X104838001Y-84700000D01*
%TO.N,Net-(U1A--)*%
X108138001Y-74540000D02*
X104598001Y-74540000D01*
X104598001Y-74540000D02*
X104138001Y-75000000D01*
%TO.N,Net-(D5-K)*%
X104575101Y-112936700D02*
X104611501Y-112973200D01*
X101258001Y-84380000D02*
X99138001Y-86500000D01*
X99138001Y-104500000D02*
X99138001Y-108000000D01*
X101258001Y-79620000D02*
X99138001Y-77500000D01*
X101258001Y-79620000D02*
X101258001Y-84380000D01*
%TO.N,Net-(J2-Pin_3)*%
X115758001Y-77080000D02*
X108138001Y-77080000D01*
%TO.N,Net-(R1-Pad2)*%
X106492601Y-89987100D02*
X106492601Y-94435700D01*
X113119501Y-95016800D02*
X114136301Y-94000000D01*
X115138001Y-94000000D02*
X114136301Y-94000000D01*
X108138001Y-88341700D02*
X106492601Y-89987100D01*
X108138001Y-87240000D02*
X108138001Y-88341700D01*
X106492601Y-94435700D02*
X107073701Y-95016800D01*
X107073701Y-95016800D02*
X113119501Y-95016800D01*
%TO.N,Net-(J1-Pin_2)*%
X109938601Y-111733500D02*
X115205101Y-117000000D01*
X101138001Y-108000000D02*
X104871501Y-111733500D01*
X115205101Y-117000000D02*
X120638001Y-117000000D01*
X104871501Y-111733500D02*
X109938601Y-111733500D01*
%TD*%
M02*
