M48
; DRILL file {KiCad 8.0.5} date 2024-10-17T14:29:32+0530
; FORMAT={-:-/ absolute / inch / decimal}
; #@! TF.CreationDate,2024-10-17T14:29:33+05:30
; #@! TF.GenerationSoftware,Kicad,Pcbnew,8.0.5
; #@! TF.FileFunction,Plated,1,2,PTH
FMAT,2
INCH
; #@! TA.AperFunction,Plated,PTH,ComponentDrill
T1C0.0276
; #@! TA.AperFunction,Plated,PTH,ComponentDrill
T2C0.0315
; #@! TA.AperFunction,Plated,PTH,ComponentDrill
T3C0.0354
; #@! TA.AperFunction,Plated,PTH,ComponentDrill
T4C0.0394
%
G90
G05
T1
X4.233Y-3.5827
X4.233Y-3.7008
X4.233Y-3.8189
X4.233Y-3.937
X4.233Y-4.0551
X4.233Y-4.1732
X4.533Y-3.5827
X4.533Y-3.7008
X4.533Y-3.8189
X4.533Y-3.937
X4.533Y-4.0551
X4.533Y-4.1732
X5.6299Y-2.8249
X5.9299Y-2.8249
T2
X3.9031Y-4.252
X3.9031Y-4.4488
X3.9818Y-4.252
X3.9818Y-4.4488
X4.0606Y-4.252
X4.0606Y-4.4488
X4.233Y-4.3307
X4.233Y-4.4488
X4.2574Y-2.8346
X4.2574Y-2.9346
X4.2574Y-3.0346
X4.2574Y-3.1346
X4.2574Y-3.2346
X4.2574Y-3.3346
X4.2574Y-3.4346
X4.533Y-4.3307
X4.533Y-4.4488
X4.5574Y-2.8346
X4.5574Y-2.9346
X4.5574Y-3.0346
X4.5574Y-3.1346
X4.5574Y-3.2346
X4.5574Y-3.3346
X4.5574Y-3.4346
X4.6873Y-4.1339
X4.6873Y-4.3701
X4.7873Y-4.1339
X4.7873Y-4.3701
X4.8873Y-4.1339
X4.8873Y-4.3701
T3
X3.9031Y-2.8543
X3.9031Y-3.0512
X3.9031Y-3.2087
X3.9031Y-3.4055
X3.9031Y-3.563
X3.9031Y-3.7598
X3.9031Y-3.9173
X3.9031Y-4.1142
X4.0999Y-2.9528
X4.0999Y-3.3071
X4.0999Y-3.6614
X4.0999Y-4.0157
X4.748Y-2.9134
X4.748Y-3.2283
X4.748Y-3.5433
X4.748Y-3.8583
X4.848Y-2.9134
X4.848Y-3.2283
X4.848Y-3.5433
X4.848Y-3.8583
T4
X3.8637Y-4.6457
X3.9637Y-4.6457
X4.0637Y-4.6457
X4.3543Y-4.6457
X4.4543Y-4.6457
X4.7495Y-4.6063
X4.848Y-4.6063
X5.548Y-2.691
X5.648Y-2.691
X5.748Y-2.691
M30
