%TF.GenerationSoftware,KiCad,Pcbnew,8.0.5*%
%TF.CreationDate,2024-10-17T14:29:30+05:30*%
%TF.ProjectId,soil_moisture,736f696c-5f6d-46f6-9973-747572652e6b,rev?*%
%TF.SameCoordinates,Original*%
%TF.FileFunction,Drillmap*%
%TF.FilePolarity,Positive*%
%FSLAX45Y45*%
G04 Gerber Fmt 4.5, Leading zero omitted, Abs format (unit mm)*
G04 Created by KiCad (PCBNEW 8.0.5) date 2024-10-17 14:29:30*
%MOMM*%
%LPD*%
G01*
G04 APERTURE LIST*
%ADD10C,0.200000*%
%ADD11C,0.100000*%
G04 APERTURE END LIST*
D10*
X12939944Y-6501000D02*
G75*
G02*
X13113678Y-6700000I-15894J-189215D01*
G01*
X15268494Y-6805509D02*
X15267800Y-11798061D01*
X14535821Y-11920082D02*
X14860000Y-12605250D01*
X13419511Y-6666250D02*
X15137914Y-6665196D01*
X15137914Y-6665196D02*
G75*
G02*
X15268496Y-6805509I-4174J-134804D01*
G01*
X13268599Y-6792830D02*
X13268479Y-11826716D01*
X9213800Y-12600000D02*
X13004679Y-12600000D01*
X13296300Y-11923905D02*
G75*
G02*
X13268476Y-11826716I112680J84835D01*
G01*
X13113800Y-12454776D02*
G75*
G02*
X13004679Y-12600000I-127173J-18051D01*
G01*
X14026992Y-11818061D02*
G75*
G02*
X13993990Y-11935250I-169142J-15609D01*
G01*
X13676700Y-12605250D02*
G75*
G02*
X13619175Y-12605075I-28700J20600D01*
G01*
X13296300Y-11923905D02*
X13619181Y-12605071D01*
X13268599Y-6792830D02*
G75*
G02*
X13419511Y-6666247I137661J-10870D01*
G01*
X15267800Y-11798061D02*
G75*
G02*
X15239997Y-11925248I-179570J-27379D01*
G01*
X14027100Y-7565872D02*
X14026992Y-11818061D01*
X9213800Y-12600000D02*
G75*
G02*
X9048294Y-12444173I-4834J160673D01*
G01*
X9048294Y-6700000D02*
X9048294Y-12444173D01*
X14535821Y-11920082D02*
G75*
G02*
X14510003Y-11822894I113679J82222D01*
G01*
X13113679Y-6700000D02*
X13113800Y-12454776D01*
X9048225Y-6700000D02*
G75*
G02*
X9260056Y-6499113I191603J10088D01*
G01*
X9260056Y-6499113D02*
X12939944Y-6501000D01*
X13676700Y-12605250D02*
X13993990Y-11935250D01*
X14918000Y-12605250D02*
X15240000Y-11925250D01*
X14027100Y-7565872D02*
G75*
G02*
X14509811Y-7565872I241355J0D01*
G01*
X14509811Y-7565872D02*
X14510000Y-11822893D01*
X14918000Y-12605250D02*
G75*
G02*
X14860000Y-12605250I-29000J20688D01*
G01*
D11*
X10716800Y-9065000D02*
X10786800Y-9135000D01*
X10786800Y-9065000D02*
X10716800Y-9135000D01*
X10716800Y-9365000D02*
X10786800Y-9435000D01*
X10786800Y-9365000D02*
X10716800Y-9435000D01*
X10716800Y-9665000D02*
X10786800Y-9735000D01*
X10786800Y-9665000D02*
X10716800Y-9735000D01*
X10716800Y-9965000D02*
X10786800Y-10035000D01*
X10786800Y-9965000D02*
X10716800Y-10035000D01*
X10716800Y-10265000D02*
X10786800Y-10335000D01*
X10786800Y-10265000D02*
X10716800Y-10335000D01*
X10716800Y-10565000D02*
X10786800Y-10635000D01*
X10786800Y-10565000D02*
X10716800Y-10635000D01*
X11478800Y-9065000D02*
X11548800Y-9135000D01*
X11548800Y-9065000D02*
X11478800Y-9135000D01*
X11478800Y-9365000D02*
X11548800Y-9435000D01*
X11548800Y-9365000D02*
X11478800Y-9435000D01*
X11478800Y-9665000D02*
X11548800Y-9735000D01*
X11548800Y-9665000D02*
X11478800Y-9735000D01*
X11478800Y-9965000D02*
X11548800Y-10035000D01*
X11548800Y-9965000D02*
X11478800Y-10035000D01*
X11478800Y-10265000D02*
X11548800Y-10335000D01*
X11548800Y-10265000D02*
X11478800Y-10335000D01*
X11478800Y-10565000D02*
X11548800Y-10635000D01*
X11548800Y-10565000D02*
X11478800Y-10635000D01*
X14265000Y-7140250D02*
X14335000Y-7210250D01*
X14335000Y-7140250D02*
X14265000Y-7210250D01*
X15027000Y-7140250D02*
X15097000Y-7210250D01*
X15097000Y-7140250D02*
X15027000Y-7210250D01*
X9953800Y-10800000D02*
G75*
G02*
X9873800Y-10800000I-40000J0D01*
G01*
X9873800Y-10800000D02*
G75*
G02*
X9953800Y-10800000I40000J0D01*
G01*
X9953800Y-11300000D02*
G75*
G02*
X9873800Y-11300000I-40000J0D01*
G01*
X9873800Y-11300000D02*
G75*
G02*
X9953800Y-11300000I40000J0D01*
G01*
X10153800Y-10800000D02*
G75*
G02*
X10073800Y-10800000I-40000J0D01*
G01*
X10073800Y-10800000D02*
G75*
G02*
X10153800Y-10800000I40000J0D01*
G01*
X10153800Y-11300000D02*
G75*
G02*
X10073800Y-11300000I-40000J0D01*
G01*
X10073800Y-11300000D02*
G75*
G02*
X10153800Y-11300000I40000J0D01*
G01*
X10353800Y-10800000D02*
G75*
G02*
X10273800Y-10800000I-40000J0D01*
G01*
X10273800Y-10800000D02*
G75*
G02*
X10353800Y-10800000I40000J0D01*
G01*
X10353800Y-11300000D02*
G75*
G02*
X10273800Y-11300000I-40000J0D01*
G01*
X10273800Y-11300000D02*
G75*
G02*
X10353800Y-11300000I40000J0D01*
G01*
X10791800Y-11000000D02*
G75*
G02*
X10711800Y-11000000I-40000J0D01*
G01*
X10711800Y-11000000D02*
G75*
G02*
X10791800Y-11000000I40000J0D01*
G01*
X10791800Y-11300000D02*
G75*
G02*
X10711800Y-11300000I-40000J0D01*
G01*
X10711800Y-11300000D02*
G75*
G02*
X10791800Y-11300000I40000J0D01*
G01*
X10853800Y-7200000D02*
G75*
G02*
X10773800Y-7200000I-40000J0D01*
G01*
X10773800Y-7200000D02*
G75*
G02*
X10853800Y-7200000I40000J0D01*
G01*
X10853800Y-7454000D02*
G75*
G02*
X10773800Y-7454000I-40000J0D01*
G01*
X10773800Y-7454000D02*
G75*
G02*
X10853800Y-7454000I40000J0D01*
G01*
X10853800Y-7708000D02*
G75*
G02*
X10773800Y-7708000I-40000J0D01*
G01*
X10773800Y-7708000D02*
G75*
G02*
X10853800Y-7708000I40000J0D01*
G01*
X10853800Y-7962000D02*
G75*
G02*
X10773800Y-7962000I-40000J0D01*
G01*
X10773800Y-7962000D02*
G75*
G02*
X10853800Y-7962000I40000J0D01*
G01*
X10853800Y-8216000D02*
G75*
G02*
X10773800Y-8216000I-40000J0D01*
G01*
X10773800Y-8216000D02*
G75*
G02*
X10853800Y-8216000I40000J0D01*
G01*
X10853800Y-8470000D02*
G75*
G02*
X10773800Y-8470000I-40000J0D01*
G01*
X10773800Y-8470000D02*
G75*
G02*
X10853800Y-8470000I40000J0D01*
G01*
X10853800Y-8724000D02*
G75*
G02*
X10773800Y-8724000I-40000J0D01*
G01*
X10773800Y-8724000D02*
G75*
G02*
X10853800Y-8724000I40000J0D01*
G01*
X11553800Y-11000000D02*
G75*
G02*
X11473800Y-11000000I-40000J0D01*
G01*
X11473800Y-11000000D02*
G75*
G02*
X11553800Y-11000000I40000J0D01*
G01*
X11553800Y-11300000D02*
G75*
G02*
X11473800Y-11300000I-40000J0D01*
G01*
X11473800Y-11300000D02*
G75*
G02*
X11553800Y-11300000I40000J0D01*
G01*
X11615800Y-7200000D02*
G75*
G02*
X11535800Y-7200000I-40000J0D01*
G01*
X11535800Y-7200000D02*
G75*
G02*
X11615800Y-7200000I40000J0D01*
G01*
X11615800Y-7454000D02*
G75*
G02*
X11535800Y-7454000I-40000J0D01*
G01*
X11535800Y-7454000D02*
G75*
G02*
X11615800Y-7454000I40000J0D01*
G01*
X11615800Y-7708000D02*
G75*
G02*
X11535800Y-7708000I-40000J0D01*
G01*
X11535800Y-7708000D02*
G75*
G02*
X11615800Y-7708000I40000J0D01*
G01*
X11615800Y-7962000D02*
G75*
G02*
X11535800Y-7962000I-40000J0D01*
G01*
X11535800Y-7962000D02*
G75*
G02*
X11615800Y-7962000I40000J0D01*
G01*
X11615800Y-8216000D02*
G75*
G02*
X11535800Y-8216000I-40000J0D01*
G01*
X11535800Y-8216000D02*
G75*
G02*
X11615800Y-8216000I40000J0D01*
G01*
X11615800Y-8470000D02*
G75*
G02*
X11535800Y-8470000I-40000J0D01*
G01*
X11535800Y-8470000D02*
G75*
G02*
X11615800Y-8470000I40000J0D01*
G01*
X11615800Y-8724000D02*
G75*
G02*
X11535800Y-8724000I-40000J0D01*
G01*
X11535800Y-8724000D02*
G75*
G02*
X11615800Y-8724000I40000J0D01*
G01*
X11945800Y-10500000D02*
G75*
G02*
X11865800Y-10500000I-40000J0D01*
G01*
X11865800Y-10500000D02*
G75*
G02*
X11945800Y-10500000I40000J0D01*
G01*
X11945800Y-11100000D02*
G75*
G02*
X11865800Y-11100000I-40000J0D01*
G01*
X11865800Y-11100000D02*
G75*
G02*
X11945800Y-11100000I40000J0D01*
G01*
X12199800Y-10500000D02*
G75*
G02*
X12119800Y-10500000I-40000J0D01*
G01*
X12119800Y-10500000D02*
G75*
G02*
X12199800Y-10500000I40000J0D01*
G01*
X12199800Y-11100000D02*
G75*
G02*
X12119800Y-11100000I-40000J0D01*
G01*
X12119800Y-11100000D02*
G75*
G02*
X12199800Y-11100000I40000J0D01*
G01*
X12453800Y-10500000D02*
G75*
G02*
X12373800Y-10500000I-40000J0D01*
G01*
X12373800Y-10500000D02*
G75*
G02*
X12453800Y-10500000I40000J0D01*
G01*
X12453800Y-11100000D02*
G75*
G02*
X12373800Y-11100000I-40000J0D01*
G01*
X12373800Y-11100000D02*
G75*
G02*
X12453800Y-11100000I40000J0D01*
G01*
X9913800Y-7205000D02*
X9913800Y-7295000D01*
X9868800Y-7250000D02*
X9958800Y-7250000D01*
X9913800Y-7705000D02*
X9913800Y-7795000D01*
X9868800Y-7750000D02*
X9958800Y-7750000D01*
X9913800Y-8105000D02*
X9913800Y-8195000D01*
X9868800Y-8150000D02*
X9958800Y-8150000D01*
X9913800Y-8605000D02*
X9913800Y-8695000D01*
X9868800Y-8650000D02*
X9958800Y-8650000D01*
X9913800Y-9005000D02*
X9913800Y-9095000D01*
X9868800Y-9050000D02*
X9958800Y-9050000D01*
X9913800Y-9505000D02*
X9913800Y-9595000D01*
X9868800Y-9550000D02*
X9958800Y-9550000D01*
X9913800Y-9905000D02*
X9913800Y-9995000D01*
X9868800Y-9950000D02*
X9958800Y-9950000D01*
X9913800Y-10405000D02*
X9913800Y-10495000D01*
X9868800Y-10450000D02*
X9958800Y-10450000D01*
X10413800Y-7455000D02*
X10413800Y-7545000D01*
X10368800Y-7500000D02*
X10458800Y-7500000D01*
X10413800Y-8355000D02*
X10413800Y-8445000D01*
X10368800Y-8400000D02*
X10458800Y-8400000D01*
X10413800Y-9255000D02*
X10413800Y-9345000D01*
X10368800Y-9300000D02*
X10458800Y-9300000D01*
X10413800Y-10155000D02*
X10413800Y-10245000D01*
X10368800Y-10200000D02*
X10458800Y-10200000D01*
X12059800Y-7355000D02*
X12059800Y-7445000D01*
X12014800Y-7400000D02*
X12104800Y-7400000D01*
X12059800Y-8155000D02*
X12059800Y-8245000D01*
X12014800Y-8200000D02*
X12104800Y-8200000D01*
X12059800Y-8955000D02*
X12059800Y-9045000D01*
X12014800Y-9000000D02*
X12104800Y-9000000D01*
X12059800Y-9755000D02*
X12059800Y-9845000D01*
X12014800Y-9800000D02*
X12104800Y-9800000D01*
X12313800Y-7355000D02*
X12313800Y-7445000D01*
X12268800Y-7400000D02*
X12358800Y-7400000D01*
X12313800Y-8155000D02*
X12313800Y-8245000D01*
X12268800Y-8200000D02*
X12358800Y-8200000D01*
X12313800Y-8955000D02*
X12313800Y-9045000D01*
X12268800Y-9000000D02*
X12358800Y-9000000D01*
X12313800Y-9755000D02*
X12313800Y-9845000D01*
X12268800Y-9800000D02*
X12358800Y-9800000D01*
X9849156Y-11835356D02*
X9849156Y-11764644D01*
X9778444Y-11764644D01*
X9778444Y-11835356D01*
X9849156Y-11835356D01*
X10103156Y-11835356D02*
X10103156Y-11764644D01*
X10032444Y-11764644D01*
X10032444Y-11835356D01*
X10103156Y-11835356D01*
X10357156Y-11835356D02*
X10357156Y-11764644D01*
X10286444Y-11764644D01*
X10286444Y-11835356D01*
X10357156Y-11835356D01*
X11095156Y-11835356D02*
X11095156Y-11764644D01*
X11024444Y-11764644D01*
X11024444Y-11835356D01*
X11095156Y-11835356D01*
X11349156Y-11835356D02*
X11349156Y-11764644D01*
X11278444Y-11764644D01*
X11278444Y-11835356D01*
X11349156Y-11835356D01*
X12099156Y-11735356D02*
X12099156Y-11664644D01*
X12028444Y-11664644D01*
X12028444Y-11735356D01*
X12099156Y-11735356D01*
X12349156Y-11735356D02*
X12349156Y-11664644D01*
X12278444Y-11664644D01*
X12278444Y-11735356D01*
X12349156Y-11735356D01*
X14127356Y-6870606D02*
X14127356Y-6799894D01*
X14056644Y-6799894D01*
X14056644Y-6870606D01*
X14127356Y-6870606D01*
X14381356Y-6870606D02*
X14381356Y-6799894D01*
X14310644Y-6799894D01*
X14310644Y-6870606D01*
X14381356Y-6870606D01*
X14635356Y-6870606D02*
X14635356Y-6799894D01*
X14564644Y-6799894D01*
X14564644Y-6870606D01*
X14635356Y-6870606D01*
D10*
X9298736Y-12941669D02*
X9298736Y-12741669D01*
X9298736Y-12741669D02*
X9346355Y-12741669D01*
X9346355Y-12741669D02*
X9374927Y-12751192D01*
X9374927Y-12751192D02*
X9393974Y-12770240D01*
X9393974Y-12770240D02*
X9403498Y-12789288D01*
X9403498Y-12789288D02*
X9413022Y-12827383D01*
X9413022Y-12827383D02*
X9413022Y-12855954D01*
X9413022Y-12855954D02*
X9403498Y-12894049D01*
X9403498Y-12894049D02*
X9393974Y-12913097D01*
X9393974Y-12913097D02*
X9374927Y-12932145D01*
X9374927Y-12932145D02*
X9346355Y-12941669D01*
X9346355Y-12941669D02*
X9298736Y-12941669D01*
X9498736Y-12941669D02*
X9498736Y-12808335D01*
X9498736Y-12846430D02*
X9508260Y-12827383D01*
X9508260Y-12827383D02*
X9517784Y-12817859D01*
X9517784Y-12817859D02*
X9536831Y-12808335D01*
X9536831Y-12808335D02*
X9555879Y-12808335D01*
X9622546Y-12941669D02*
X9622546Y-12808335D01*
X9622546Y-12741669D02*
X9613022Y-12751192D01*
X9613022Y-12751192D02*
X9622546Y-12760716D01*
X9622546Y-12760716D02*
X9632069Y-12751192D01*
X9632069Y-12751192D02*
X9622546Y-12741669D01*
X9622546Y-12741669D02*
X9622546Y-12760716D01*
X9746355Y-12941669D02*
X9727307Y-12932145D01*
X9727307Y-12932145D02*
X9717784Y-12913097D01*
X9717784Y-12913097D02*
X9717784Y-12741669D01*
X9851117Y-12941669D02*
X9832069Y-12932145D01*
X9832069Y-12932145D02*
X9822546Y-12913097D01*
X9822546Y-12913097D02*
X9822546Y-12741669D01*
X10079688Y-12941669D02*
X10079688Y-12741669D01*
X10079688Y-12741669D02*
X10146355Y-12884526D01*
X10146355Y-12884526D02*
X10213022Y-12741669D01*
X10213022Y-12741669D02*
X10213022Y-12941669D01*
X10393974Y-12941669D02*
X10393974Y-12836907D01*
X10393974Y-12836907D02*
X10384450Y-12817859D01*
X10384450Y-12817859D02*
X10365403Y-12808335D01*
X10365403Y-12808335D02*
X10327307Y-12808335D01*
X10327307Y-12808335D02*
X10308260Y-12817859D01*
X10393974Y-12932145D02*
X10374927Y-12941669D01*
X10374927Y-12941669D02*
X10327307Y-12941669D01*
X10327307Y-12941669D02*
X10308260Y-12932145D01*
X10308260Y-12932145D02*
X10298736Y-12913097D01*
X10298736Y-12913097D02*
X10298736Y-12894049D01*
X10298736Y-12894049D02*
X10308260Y-12875002D01*
X10308260Y-12875002D02*
X10327307Y-12865478D01*
X10327307Y-12865478D02*
X10374927Y-12865478D01*
X10374927Y-12865478D02*
X10393974Y-12855954D01*
X10489212Y-12808335D02*
X10489212Y-13008335D01*
X10489212Y-12817859D02*
X10508260Y-12808335D01*
X10508260Y-12808335D02*
X10546355Y-12808335D01*
X10546355Y-12808335D02*
X10565403Y-12817859D01*
X10565403Y-12817859D02*
X10574927Y-12827383D01*
X10574927Y-12827383D02*
X10584450Y-12846430D01*
X10584450Y-12846430D02*
X10584450Y-12903573D01*
X10584450Y-12903573D02*
X10574927Y-12922621D01*
X10574927Y-12922621D02*
X10565403Y-12932145D01*
X10565403Y-12932145D02*
X10546355Y-12941669D01*
X10546355Y-12941669D02*
X10508260Y-12941669D01*
X10508260Y-12941669D02*
X10489212Y-12932145D01*
X10670165Y-12922621D02*
X10679688Y-12932145D01*
X10679688Y-12932145D02*
X10670165Y-12941669D01*
X10670165Y-12941669D02*
X10660641Y-12932145D01*
X10660641Y-12932145D02*
X10670165Y-12922621D01*
X10670165Y-12922621D02*
X10670165Y-12941669D01*
X10670165Y-12817859D02*
X10679688Y-12827383D01*
X10679688Y-12827383D02*
X10670165Y-12836907D01*
X10670165Y-12836907D02*
X10660641Y-12827383D01*
X10660641Y-12827383D02*
X10670165Y-12817859D01*
X10670165Y-12817859D02*
X10670165Y-12836907D01*
D11*
X8967959Y-13235185D02*
X9037959Y-13305185D01*
X9037959Y-13235185D02*
X8967959Y-13305185D01*
D10*
X9336831Y-13161669D02*
X9355879Y-13161669D01*
X9355879Y-13161669D02*
X9374927Y-13171192D01*
X9374927Y-13171192D02*
X9384450Y-13180716D01*
X9384450Y-13180716D02*
X9393974Y-13199764D01*
X9393974Y-13199764D02*
X9403498Y-13237859D01*
X9403498Y-13237859D02*
X9403498Y-13285478D01*
X9403498Y-13285478D02*
X9393974Y-13323573D01*
X9393974Y-13323573D02*
X9384450Y-13342621D01*
X9384450Y-13342621D02*
X9374927Y-13352145D01*
X9374927Y-13352145D02*
X9355879Y-13361669D01*
X9355879Y-13361669D02*
X9336831Y-13361669D01*
X9336831Y-13361669D02*
X9317784Y-13352145D01*
X9317784Y-13352145D02*
X9308260Y-13342621D01*
X9308260Y-13342621D02*
X9298736Y-13323573D01*
X9298736Y-13323573D02*
X9289212Y-13285478D01*
X9289212Y-13285478D02*
X9289212Y-13237859D01*
X9289212Y-13237859D02*
X9298736Y-13199764D01*
X9298736Y-13199764D02*
X9308260Y-13180716D01*
X9308260Y-13180716D02*
X9317784Y-13171192D01*
X9317784Y-13171192D02*
X9336831Y-13161669D01*
X9489212Y-13342621D02*
X9498736Y-13352145D01*
X9498736Y-13352145D02*
X9489212Y-13361669D01*
X9489212Y-13361669D02*
X9479688Y-13352145D01*
X9479688Y-13352145D02*
X9489212Y-13342621D01*
X9489212Y-13342621D02*
X9489212Y-13361669D01*
X9565403Y-13161669D02*
X9698736Y-13161669D01*
X9698736Y-13161669D02*
X9613022Y-13361669D01*
X9813022Y-13161669D02*
X9832069Y-13161669D01*
X9832069Y-13161669D02*
X9851117Y-13171192D01*
X9851117Y-13171192D02*
X9860641Y-13180716D01*
X9860641Y-13180716D02*
X9870165Y-13199764D01*
X9870165Y-13199764D02*
X9879688Y-13237859D01*
X9879688Y-13237859D02*
X9879688Y-13285478D01*
X9879688Y-13285478D02*
X9870165Y-13323573D01*
X9870165Y-13323573D02*
X9860641Y-13342621D01*
X9860641Y-13342621D02*
X9851117Y-13352145D01*
X9851117Y-13352145D02*
X9832069Y-13361669D01*
X9832069Y-13361669D02*
X9813022Y-13361669D01*
X9813022Y-13361669D02*
X9793974Y-13352145D01*
X9793974Y-13352145D02*
X9784450Y-13342621D01*
X9784450Y-13342621D02*
X9774927Y-13323573D01*
X9774927Y-13323573D02*
X9765403Y-13285478D01*
X9765403Y-13285478D02*
X9765403Y-13237859D01*
X9765403Y-13237859D02*
X9774927Y-13199764D01*
X9774927Y-13199764D02*
X9784450Y-13180716D01*
X9784450Y-13180716D02*
X9793974Y-13171192D01*
X9793974Y-13171192D02*
X9813022Y-13161669D01*
X10003498Y-13161669D02*
X10022546Y-13161669D01*
X10022546Y-13161669D02*
X10041593Y-13171192D01*
X10041593Y-13171192D02*
X10051117Y-13180716D01*
X10051117Y-13180716D02*
X10060641Y-13199764D01*
X10060641Y-13199764D02*
X10070165Y-13237859D01*
X10070165Y-13237859D02*
X10070165Y-13285478D01*
X10070165Y-13285478D02*
X10060641Y-13323573D01*
X10060641Y-13323573D02*
X10051117Y-13342621D01*
X10051117Y-13342621D02*
X10041593Y-13352145D01*
X10041593Y-13352145D02*
X10022546Y-13361669D01*
X10022546Y-13361669D02*
X10003498Y-13361669D01*
X10003498Y-13361669D02*
X9984450Y-13352145D01*
X9984450Y-13352145D02*
X9974927Y-13342621D01*
X9974927Y-13342621D02*
X9965403Y-13323573D01*
X9965403Y-13323573D02*
X9955879Y-13285478D01*
X9955879Y-13285478D02*
X9955879Y-13237859D01*
X9955879Y-13237859D02*
X9965403Y-13199764D01*
X9965403Y-13199764D02*
X9974927Y-13180716D01*
X9974927Y-13180716D02*
X9984450Y-13171192D01*
X9984450Y-13171192D02*
X10003498Y-13161669D01*
X10155879Y-13361669D02*
X10155879Y-13228335D01*
X10155879Y-13247383D02*
X10165403Y-13237859D01*
X10165403Y-13237859D02*
X10184450Y-13228335D01*
X10184450Y-13228335D02*
X10213022Y-13228335D01*
X10213022Y-13228335D02*
X10232069Y-13237859D01*
X10232069Y-13237859D02*
X10241593Y-13256907D01*
X10241593Y-13256907D02*
X10241593Y-13361669D01*
X10241593Y-13256907D02*
X10251117Y-13237859D01*
X10251117Y-13237859D02*
X10270165Y-13228335D01*
X10270165Y-13228335D02*
X10298736Y-13228335D01*
X10298736Y-13228335D02*
X10317784Y-13237859D01*
X10317784Y-13237859D02*
X10327308Y-13256907D01*
X10327308Y-13256907D02*
X10327308Y-13361669D01*
X10422546Y-13361669D02*
X10422546Y-13228335D01*
X10422546Y-13247383D02*
X10432069Y-13237859D01*
X10432069Y-13237859D02*
X10451117Y-13228335D01*
X10451117Y-13228335D02*
X10479689Y-13228335D01*
X10479689Y-13228335D02*
X10498736Y-13237859D01*
X10498736Y-13237859D02*
X10508260Y-13256907D01*
X10508260Y-13256907D02*
X10508260Y-13361669D01*
X10508260Y-13256907D02*
X10517784Y-13237859D01*
X10517784Y-13237859D02*
X10536831Y-13228335D01*
X10536831Y-13228335D02*
X10565403Y-13228335D01*
X10565403Y-13228335D02*
X10584450Y-13237859D01*
X10584450Y-13237859D02*
X10593974Y-13256907D01*
X10593974Y-13256907D02*
X10593974Y-13361669D01*
X10984450Y-13152145D02*
X10813022Y-13409288D01*
X11241593Y-13161669D02*
X11260641Y-13161669D01*
X11260641Y-13161669D02*
X11279689Y-13171192D01*
X11279689Y-13171192D02*
X11289212Y-13180716D01*
X11289212Y-13180716D02*
X11298736Y-13199764D01*
X11298736Y-13199764D02*
X11308260Y-13237859D01*
X11308260Y-13237859D02*
X11308260Y-13285478D01*
X11308260Y-13285478D02*
X11298736Y-13323573D01*
X11298736Y-13323573D02*
X11289212Y-13342621D01*
X11289212Y-13342621D02*
X11279689Y-13352145D01*
X11279689Y-13352145D02*
X11260641Y-13361669D01*
X11260641Y-13361669D02*
X11241593Y-13361669D01*
X11241593Y-13361669D02*
X11222546Y-13352145D01*
X11222546Y-13352145D02*
X11213022Y-13342621D01*
X11213022Y-13342621D02*
X11203498Y-13323573D01*
X11203498Y-13323573D02*
X11193974Y-13285478D01*
X11193974Y-13285478D02*
X11193974Y-13237859D01*
X11193974Y-13237859D02*
X11203498Y-13199764D01*
X11203498Y-13199764D02*
X11213022Y-13180716D01*
X11213022Y-13180716D02*
X11222546Y-13171192D01*
X11222546Y-13171192D02*
X11241593Y-13161669D01*
X11393974Y-13342621D02*
X11403498Y-13352145D01*
X11403498Y-13352145D02*
X11393974Y-13361669D01*
X11393974Y-13361669D02*
X11384450Y-13352145D01*
X11384450Y-13352145D02*
X11393974Y-13342621D01*
X11393974Y-13342621D02*
X11393974Y-13361669D01*
X11527308Y-13161669D02*
X11546355Y-13161669D01*
X11546355Y-13161669D02*
X11565403Y-13171192D01*
X11565403Y-13171192D02*
X11574927Y-13180716D01*
X11574927Y-13180716D02*
X11584450Y-13199764D01*
X11584450Y-13199764D02*
X11593974Y-13237859D01*
X11593974Y-13237859D02*
X11593974Y-13285478D01*
X11593974Y-13285478D02*
X11584450Y-13323573D01*
X11584450Y-13323573D02*
X11574927Y-13342621D01*
X11574927Y-13342621D02*
X11565403Y-13352145D01*
X11565403Y-13352145D02*
X11546355Y-13361669D01*
X11546355Y-13361669D02*
X11527308Y-13361669D01*
X11527308Y-13361669D02*
X11508260Y-13352145D01*
X11508260Y-13352145D02*
X11498736Y-13342621D01*
X11498736Y-13342621D02*
X11489212Y-13323573D01*
X11489212Y-13323573D02*
X11479689Y-13285478D01*
X11479689Y-13285478D02*
X11479689Y-13237859D01*
X11479689Y-13237859D02*
X11489212Y-13199764D01*
X11489212Y-13199764D02*
X11498736Y-13180716D01*
X11498736Y-13180716D02*
X11508260Y-13171192D01*
X11508260Y-13171192D02*
X11527308Y-13161669D01*
X11670165Y-13180716D02*
X11679689Y-13171192D01*
X11679689Y-13171192D02*
X11698736Y-13161669D01*
X11698736Y-13161669D02*
X11746355Y-13161669D01*
X11746355Y-13161669D02*
X11765403Y-13171192D01*
X11765403Y-13171192D02*
X11774927Y-13180716D01*
X11774927Y-13180716D02*
X11784450Y-13199764D01*
X11784450Y-13199764D02*
X11784450Y-13218811D01*
X11784450Y-13218811D02*
X11774927Y-13247383D01*
X11774927Y-13247383D02*
X11660641Y-13361669D01*
X11660641Y-13361669D02*
X11784450Y-13361669D01*
X11851117Y-13161669D02*
X11984450Y-13161669D01*
X11984450Y-13161669D02*
X11898736Y-13361669D01*
X12146355Y-13161669D02*
X12108260Y-13161669D01*
X12108260Y-13161669D02*
X12089212Y-13171192D01*
X12089212Y-13171192D02*
X12079689Y-13180716D01*
X12079689Y-13180716D02*
X12060641Y-13209288D01*
X12060641Y-13209288D02*
X12051117Y-13247383D01*
X12051117Y-13247383D02*
X12051117Y-13323573D01*
X12051117Y-13323573D02*
X12060641Y-13342621D01*
X12060641Y-13342621D02*
X12070165Y-13352145D01*
X12070165Y-13352145D02*
X12089212Y-13361669D01*
X12089212Y-13361669D02*
X12127308Y-13361669D01*
X12127308Y-13361669D02*
X12146355Y-13352145D01*
X12146355Y-13352145D02*
X12155879Y-13342621D01*
X12155879Y-13342621D02*
X12165403Y-13323573D01*
X12165403Y-13323573D02*
X12165403Y-13275954D01*
X12165403Y-13275954D02*
X12155879Y-13256907D01*
X12155879Y-13256907D02*
X12146355Y-13247383D01*
X12146355Y-13247383D02*
X12127308Y-13237859D01*
X12127308Y-13237859D02*
X12089212Y-13237859D01*
X12089212Y-13237859D02*
X12070165Y-13247383D01*
X12070165Y-13247383D02*
X12060641Y-13256907D01*
X12060641Y-13256907D02*
X12051117Y-13275954D01*
X12241593Y-13161669D02*
X12241593Y-13199764D01*
X12317784Y-13161669D02*
X12317784Y-13199764D01*
X12613022Y-13437859D02*
X12603498Y-13428335D01*
X12603498Y-13428335D02*
X12584451Y-13399764D01*
X12584451Y-13399764D02*
X12574927Y-13380716D01*
X12574927Y-13380716D02*
X12565403Y-13352145D01*
X12565403Y-13352145D02*
X12555879Y-13304526D01*
X12555879Y-13304526D02*
X12555879Y-13266430D01*
X12555879Y-13266430D02*
X12565403Y-13218811D01*
X12565403Y-13218811D02*
X12574927Y-13190240D01*
X12574927Y-13190240D02*
X12584451Y-13171192D01*
X12584451Y-13171192D02*
X12603498Y-13142621D01*
X12603498Y-13142621D02*
X12613022Y-13133097D01*
X12793974Y-13361669D02*
X12679689Y-13361669D01*
X12736831Y-13361669D02*
X12736831Y-13161669D01*
X12736831Y-13161669D02*
X12717784Y-13190240D01*
X12717784Y-13190240D02*
X12698736Y-13209288D01*
X12698736Y-13209288D02*
X12679689Y-13218811D01*
X12965403Y-13228335D02*
X12965403Y-13361669D01*
X12917784Y-13152145D02*
X12870165Y-13295002D01*
X12870165Y-13295002D02*
X12993974Y-13295002D01*
X13222546Y-13361669D02*
X13222546Y-13161669D01*
X13308260Y-13361669D02*
X13308260Y-13256907D01*
X13308260Y-13256907D02*
X13298736Y-13237859D01*
X13298736Y-13237859D02*
X13279689Y-13228335D01*
X13279689Y-13228335D02*
X13251117Y-13228335D01*
X13251117Y-13228335D02*
X13232070Y-13237859D01*
X13232070Y-13237859D02*
X13222546Y-13247383D01*
X13432070Y-13361669D02*
X13413022Y-13352145D01*
X13413022Y-13352145D02*
X13403498Y-13342621D01*
X13403498Y-13342621D02*
X13393974Y-13323573D01*
X13393974Y-13323573D02*
X13393974Y-13266430D01*
X13393974Y-13266430D02*
X13403498Y-13247383D01*
X13403498Y-13247383D02*
X13413022Y-13237859D01*
X13413022Y-13237859D02*
X13432070Y-13228335D01*
X13432070Y-13228335D02*
X13460641Y-13228335D01*
X13460641Y-13228335D02*
X13479689Y-13237859D01*
X13479689Y-13237859D02*
X13489213Y-13247383D01*
X13489213Y-13247383D02*
X13498736Y-13266430D01*
X13498736Y-13266430D02*
X13498736Y-13323573D01*
X13498736Y-13323573D02*
X13489213Y-13342621D01*
X13489213Y-13342621D02*
X13479689Y-13352145D01*
X13479689Y-13352145D02*
X13460641Y-13361669D01*
X13460641Y-13361669D02*
X13432070Y-13361669D01*
X13613022Y-13361669D02*
X13593974Y-13352145D01*
X13593974Y-13352145D02*
X13584451Y-13333097D01*
X13584451Y-13333097D02*
X13584451Y-13161669D01*
X13765403Y-13352145D02*
X13746355Y-13361669D01*
X13746355Y-13361669D02*
X13708260Y-13361669D01*
X13708260Y-13361669D02*
X13689213Y-13352145D01*
X13689213Y-13352145D02*
X13679689Y-13333097D01*
X13679689Y-13333097D02*
X13679689Y-13256907D01*
X13679689Y-13256907D02*
X13689213Y-13237859D01*
X13689213Y-13237859D02*
X13708260Y-13228335D01*
X13708260Y-13228335D02*
X13746355Y-13228335D01*
X13746355Y-13228335D02*
X13765403Y-13237859D01*
X13765403Y-13237859D02*
X13774927Y-13256907D01*
X13774927Y-13256907D02*
X13774927Y-13275954D01*
X13774927Y-13275954D02*
X13679689Y-13295002D01*
X13851117Y-13352145D02*
X13870165Y-13361669D01*
X13870165Y-13361669D02*
X13908260Y-13361669D01*
X13908260Y-13361669D02*
X13927308Y-13352145D01*
X13927308Y-13352145D02*
X13936832Y-13333097D01*
X13936832Y-13333097D02*
X13936832Y-13323573D01*
X13936832Y-13323573D02*
X13927308Y-13304526D01*
X13927308Y-13304526D02*
X13908260Y-13295002D01*
X13908260Y-13295002D02*
X13879689Y-13295002D01*
X13879689Y-13295002D02*
X13860641Y-13285478D01*
X13860641Y-13285478D02*
X13851117Y-13266430D01*
X13851117Y-13266430D02*
X13851117Y-13256907D01*
X13851117Y-13256907D02*
X13860641Y-13237859D01*
X13860641Y-13237859D02*
X13879689Y-13228335D01*
X13879689Y-13228335D02*
X13908260Y-13228335D01*
X13908260Y-13228335D02*
X13927308Y-13237859D01*
X14003498Y-13437859D02*
X14013022Y-13428335D01*
X14013022Y-13428335D02*
X14032070Y-13399764D01*
X14032070Y-13399764D02*
X14041594Y-13380716D01*
X14041594Y-13380716D02*
X14051117Y-13352145D01*
X14051117Y-13352145D02*
X14060641Y-13304526D01*
X14060641Y-13304526D02*
X14060641Y-13266430D01*
X14060641Y-13266430D02*
X14051117Y-13218811D01*
X14051117Y-13218811D02*
X14041594Y-13190240D01*
X14041594Y-13190240D02*
X14032070Y-13171192D01*
X14032070Y-13171192D02*
X14013022Y-13142621D01*
X14013022Y-13142621D02*
X14003498Y-13133097D01*
D11*
X9037959Y-13534185D02*
G75*
G02*
X8957959Y-13534185I-40000J0D01*
G01*
X8957959Y-13534185D02*
G75*
G02*
X9037959Y-13534185I40000J0D01*
G01*
D10*
X9336831Y-13425669D02*
X9355879Y-13425669D01*
X9355879Y-13425669D02*
X9374927Y-13435192D01*
X9374927Y-13435192D02*
X9384450Y-13444716D01*
X9384450Y-13444716D02*
X9393974Y-13463764D01*
X9393974Y-13463764D02*
X9403498Y-13501859D01*
X9403498Y-13501859D02*
X9403498Y-13549478D01*
X9403498Y-13549478D02*
X9393974Y-13587573D01*
X9393974Y-13587573D02*
X9384450Y-13606621D01*
X9384450Y-13606621D02*
X9374927Y-13616145D01*
X9374927Y-13616145D02*
X9355879Y-13625669D01*
X9355879Y-13625669D02*
X9336831Y-13625669D01*
X9336831Y-13625669D02*
X9317784Y-13616145D01*
X9317784Y-13616145D02*
X9308260Y-13606621D01*
X9308260Y-13606621D02*
X9298736Y-13587573D01*
X9298736Y-13587573D02*
X9289212Y-13549478D01*
X9289212Y-13549478D02*
X9289212Y-13501859D01*
X9289212Y-13501859D02*
X9298736Y-13463764D01*
X9298736Y-13463764D02*
X9308260Y-13444716D01*
X9308260Y-13444716D02*
X9317784Y-13435192D01*
X9317784Y-13435192D02*
X9336831Y-13425669D01*
X9489212Y-13606621D02*
X9498736Y-13616145D01*
X9498736Y-13616145D02*
X9489212Y-13625669D01*
X9489212Y-13625669D02*
X9479688Y-13616145D01*
X9479688Y-13616145D02*
X9489212Y-13606621D01*
X9489212Y-13606621D02*
X9489212Y-13625669D01*
X9613022Y-13511383D02*
X9593974Y-13501859D01*
X9593974Y-13501859D02*
X9584450Y-13492335D01*
X9584450Y-13492335D02*
X9574927Y-13473288D01*
X9574927Y-13473288D02*
X9574927Y-13463764D01*
X9574927Y-13463764D02*
X9584450Y-13444716D01*
X9584450Y-13444716D02*
X9593974Y-13435192D01*
X9593974Y-13435192D02*
X9613022Y-13425669D01*
X9613022Y-13425669D02*
X9651117Y-13425669D01*
X9651117Y-13425669D02*
X9670165Y-13435192D01*
X9670165Y-13435192D02*
X9679688Y-13444716D01*
X9679688Y-13444716D02*
X9689212Y-13463764D01*
X9689212Y-13463764D02*
X9689212Y-13473288D01*
X9689212Y-13473288D02*
X9679688Y-13492335D01*
X9679688Y-13492335D02*
X9670165Y-13501859D01*
X9670165Y-13501859D02*
X9651117Y-13511383D01*
X9651117Y-13511383D02*
X9613022Y-13511383D01*
X9613022Y-13511383D02*
X9593974Y-13520907D01*
X9593974Y-13520907D02*
X9584450Y-13530430D01*
X9584450Y-13530430D02*
X9574927Y-13549478D01*
X9574927Y-13549478D02*
X9574927Y-13587573D01*
X9574927Y-13587573D02*
X9584450Y-13606621D01*
X9584450Y-13606621D02*
X9593974Y-13616145D01*
X9593974Y-13616145D02*
X9613022Y-13625669D01*
X9613022Y-13625669D02*
X9651117Y-13625669D01*
X9651117Y-13625669D02*
X9670165Y-13616145D01*
X9670165Y-13616145D02*
X9679688Y-13606621D01*
X9679688Y-13606621D02*
X9689212Y-13587573D01*
X9689212Y-13587573D02*
X9689212Y-13549478D01*
X9689212Y-13549478D02*
X9679688Y-13530430D01*
X9679688Y-13530430D02*
X9670165Y-13520907D01*
X9670165Y-13520907D02*
X9651117Y-13511383D01*
X9813022Y-13425669D02*
X9832069Y-13425669D01*
X9832069Y-13425669D02*
X9851117Y-13435192D01*
X9851117Y-13435192D02*
X9860641Y-13444716D01*
X9860641Y-13444716D02*
X9870165Y-13463764D01*
X9870165Y-13463764D02*
X9879688Y-13501859D01*
X9879688Y-13501859D02*
X9879688Y-13549478D01*
X9879688Y-13549478D02*
X9870165Y-13587573D01*
X9870165Y-13587573D02*
X9860641Y-13606621D01*
X9860641Y-13606621D02*
X9851117Y-13616145D01*
X9851117Y-13616145D02*
X9832069Y-13625669D01*
X9832069Y-13625669D02*
X9813022Y-13625669D01*
X9813022Y-13625669D02*
X9793974Y-13616145D01*
X9793974Y-13616145D02*
X9784450Y-13606621D01*
X9784450Y-13606621D02*
X9774927Y-13587573D01*
X9774927Y-13587573D02*
X9765403Y-13549478D01*
X9765403Y-13549478D02*
X9765403Y-13501859D01*
X9765403Y-13501859D02*
X9774927Y-13463764D01*
X9774927Y-13463764D02*
X9784450Y-13444716D01*
X9784450Y-13444716D02*
X9793974Y-13435192D01*
X9793974Y-13435192D02*
X9813022Y-13425669D01*
X10003498Y-13425669D02*
X10022546Y-13425669D01*
X10022546Y-13425669D02*
X10041593Y-13435192D01*
X10041593Y-13435192D02*
X10051117Y-13444716D01*
X10051117Y-13444716D02*
X10060641Y-13463764D01*
X10060641Y-13463764D02*
X10070165Y-13501859D01*
X10070165Y-13501859D02*
X10070165Y-13549478D01*
X10070165Y-13549478D02*
X10060641Y-13587573D01*
X10060641Y-13587573D02*
X10051117Y-13606621D01*
X10051117Y-13606621D02*
X10041593Y-13616145D01*
X10041593Y-13616145D02*
X10022546Y-13625669D01*
X10022546Y-13625669D02*
X10003498Y-13625669D01*
X10003498Y-13625669D02*
X9984450Y-13616145D01*
X9984450Y-13616145D02*
X9974927Y-13606621D01*
X9974927Y-13606621D02*
X9965403Y-13587573D01*
X9965403Y-13587573D02*
X9955879Y-13549478D01*
X9955879Y-13549478D02*
X9955879Y-13501859D01*
X9955879Y-13501859D02*
X9965403Y-13463764D01*
X9965403Y-13463764D02*
X9974927Y-13444716D01*
X9974927Y-13444716D02*
X9984450Y-13435192D01*
X9984450Y-13435192D02*
X10003498Y-13425669D01*
X10155879Y-13625669D02*
X10155879Y-13492335D01*
X10155879Y-13511383D02*
X10165403Y-13501859D01*
X10165403Y-13501859D02*
X10184450Y-13492335D01*
X10184450Y-13492335D02*
X10213022Y-13492335D01*
X10213022Y-13492335D02*
X10232069Y-13501859D01*
X10232069Y-13501859D02*
X10241593Y-13520907D01*
X10241593Y-13520907D02*
X10241593Y-13625669D01*
X10241593Y-13520907D02*
X10251117Y-13501859D01*
X10251117Y-13501859D02*
X10270165Y-13492335D01*
X10270165Y-13492335D02*
X10298736Y-13492335D01*
X10298736Y-13492335D02*
X10317784Y-13501859D01*
X10317784Y-13501859D02*
X10327308Y-13520907D01*
X10327308Y-13520907D02*
X10327308Y-13625669D01*
X10422546Y-13625669D02*
X10422546Y-13492335D01*
X10422546Y-13511383D02*
X10432069Y-13501859D01*
X10432069Y-13501859D02*
X10451117Y-13492335D01*
X10451117Y-13492335D02*
X10479689Y-13492335D01*
X10479689Y-13492335D02*
X10498736Y-13501859D01*
X10498736Y-13501859D02*
X10508260Y-13520907D01*
X10508260Y-13520907D02*
X10508260Y-13625669D01*
X10508260Y-13520907D02*
X10517784Y-13501859D01*
X10517784Y-13501859D02*
X10536831Y-13492335D01*
X10536831Y-13492335D02*
X10565403Y-13492335D01*
X10565403Y-13492335D02*
X10584450Y-13501859D01*
X10584450Y-13501859D02*
X10593974Y-13520907D01*
X10593974Y-13520907D02*
X10593974Y-13625669D01*
X10984450Y-13416145D02*
X10813022Y-13673288D01*
X11241593Y-13425669D02*
X11260641Y-13425669D01*
X11260641Y-13425669D02*
X11279689Y-13435192D01*
X11279689Y-13435192D02*
X11289212Y-13444716D01*
X11289212Y-13444716D02*
X11298736Y-13463764D01*
X11298736Y-13463764D02*
X11308260Y-13501859D01*
X11308260Y-13501859D02*
X11308260Y-13549478D01*
X11308260Y-13549478D02*
X11298736Y-13587573D01*
X11298736Y-13587573D02*
X11289212Y-13606621D01*
X11289212Y-13606621D02*
X11279689Y-13616145D01*
X11279689Y-13616145D02*
X11260641Y-13625669D01*
X11260641Y-13625669D02*
X11241593Y-13625669D01*
X11241593Y-13625669D02*
X11222546Y-13616145D01*
X11222546Y-13616145D02*
X11213022Y-13606621D01*
X11213022Y-13606621D02*
X11203498Y-13587573D01*
X11203498Y-13587573D02*
X11193974Y-13549478D01*
X11193974Y-13549478D02*
X11193974Y-13501859D01*
X11193974Y-13501859D02*
X11203498Y-13463764D01*
X11203498Y-13463764D02*
X11213022Y-13444716D01*
X11213022Y-13444716D02*
X11222546Y-13435192D01*
X11222546Y-13435192D02*
X11241593Y-13425669D01*
X11393974Y-13606621D02*
X11403498Y-13616145D01*
X11403498Y-13616145D02*
X11393974Y-13625669D01*
X11393974Y-13625669D02*
X11384450Y-13616145D01*
X11384450Y-13616145D02*
X11393974Y-13606621D01*
X11393974Y-13606621D02*
X11393974Y-13625669D01*
X11527308Y-13425669D02*
X11546355Y-13425669D01*
X11546355Y-13425669D02*
X11565403Y-13435192D01*
X11565403Y-13435192D02*
X11574927Y-13444716D01*
X11574927Y-13444716D02*
X11584450Y-13463764D01*
X11584450Y-13463764D02*
X11593974Y-13501859D01*
X11593974Y-13501859D02*
X11593974Y-13549478D01*
X11593974Y-13549478D02*
X11584450Y-13587573D01*
X11584450Y-13587573D02*
X11574927Y-13606621D01*
X11574927Y-13606621D02*
X11565403Y-13616145D01*
X11565403Y-13616145D02*
X11546355Y-13625669D01*
X11546355Y-13625669D02*
X11527308Y-13625669D01*
X11527308Y-13625669D02*
X11508260Y-13616145D01*
X11508260Y-13616145D02*
X11498736Y-13606621D01*
X11498736Y-13606621D02*
X11489212Y-13587573D01*
X11489212Y-13587573D02*
X11479689Y-13549478D01*
X11479689Y-13549478D02*
X11479689Y-13501859D01*
X11479689Y-13501859D02*
X11489212Y-13463764D01*
X11489212Y-13463764D02*
X11498736Y-13444716D01*
X11498736Y-13444716D02*
X11508260Y-13435192D01*
X11508260Y-13435192D02*
X11527308Y-13425669D01*
X11660641Y-13425669D02*
X11784450Y-13425669D01*
X11784450Y-13425669D02*
X11717784Y-13501859D01*
X11717784Y-13501859D02*
X11746355Y-13501859D01*
X11746355Y-13501859D02*
X11765403Y-13511383D01*
X11765403Y-13511383D02*
X11774927Y-13520907D01*
X11774927Y-13520907D02*
X11784450Y-13539954D01*
X11784450Y-13539954D02*
X11784450Y-13587573D01*
X11784450Y-13587573D02*
X11774927Y-13606621D01*
X11774927Y-13606621D02*
X11765403Y-13616145D01*
X11765403Y-13616145D02*
X11746355Y-13625669D01*
X11746355Y-13625669D02*
X11689212Y-13625669D01*
X11689212Y-13625669D02*
X11670165Y-13616145D01*
X11670165Y-13616145D02*
X11660641Y-13606621D01*
X11974927Y-13625669D02*
X11860641Y-13625669D01*
X11917784Y-13625669D02*
X11917784Y-13425669D01*
X11917784Y-13425669D02*
X11898736Y-13454240D01*
X11898736Y-13454240D02*
X11879689Y-13473288D01*
X11879689Y-13473288D02*
X11860641Y-13482811D01*
X12155879Y-13425669D02*
X12060641Y-13425669D01*
X12060641Y-13425669D02*
X12051117Y-13520907D01*
X12051117Y-13520907D02*
X12060641Y-13511383D01*
X12060641Y-13511383D02*
X12079689Y-13501859D01*
X12079689Y-13501859D02*
X12127308Y-13501859D01*
X12127308Y-13501859D02*
X12146355Y-13511383D01*
X12146355Y-13511383D02*
X12155879Y-13520907D01*
X12155879Y-13520907D02*
X12165403Y-13539954D01*
X12165403Y-13539954D02*
X12165403Y-13587573D01*
X12165403Y-13587573D02*
X12155879Y-13606621D01*
X12155879Y-13606621D02*
X12146355Y-13616145D01*
X12146355Y-13616145D02*
X12127308Y-13625669D01*
X12127308Y-13625669D02*
X12079689Y-13625669D01*
X12079689Y-13625669D02*
X12060641Y-13616145D01*
X12060641Y-13616145D02*
X12051117Y-13606621D01*
X12241593Y-13425669D02*
X12241593Y-13463764D01*
X12317784Y-13425669D02*
X12317784Y-13463764D01*
X12613022Y-13701859D02*
X12603498Y-13692335D01*
X12603498Y-13692335D02*
X12584451Y-13663764D01*
X12584451Y-13663764D02*
X12574927Y-13644716D01*
X12574927Y-13644716D02*
X12565403Y-13616145D01*
X12565403Y-13616145D02*
X12555879Y-13568526D01*
X12555879Y-13568526D02*
X12555879Y-13530430D01*
X12555879Y-13530430D02*
X12565403Y-13482811D01*
X12565403Y-13482811D02*
X12574927Y-13454240D01*
X12574927Y-13454240D02*
X12584451Y-13435192D01*
X12584451Y-13435192D02*
X12603498Y-13406621D01*
X12603498Y-13406621D02*
X12613022Y-13397097D01*
X12670165Y-13425669D02*
X12793974Y-13425669D01*
X12793974Y-13425669D02*
X12727308Y-13501859D01*
X12727308Y-13501859D02*
X12755879Y-13501859D01*
X12755879Y-13501859D02*
X12774927Y-13511383D01*
X12774927Y-13511383D02*
X12784451Y-13520907D01*
X12784451Y-13520907D02*
X12793974Y-13539954D01*
X12793974Y-13539954D02*
X12793974Y-13587573D01*
X12793974Y-13587573D02*
X12784451Y-13606621D01*
X12784451Y-13606621D02*
X12774927Y-13616145D01*
X12774927Y-13616145D02*
X12755879Y-13625669D01*
X12755879Y-13625669D02*
X12698736Y-13625669D01*
X12698736Y-13625669D02*
X12679689Y-13616145D01*
X12679689Y-13616145D02*
X12670165Y-13606621D01*
X12917784Y-13425669D02*
X12936832Y-13425669D01*
X12936832Y-13425669D02*
X12955879Y-13435192D01*
X12955879Y-13435192D02*
X12965403Y-13444716D01*
X12965403Y-13444716D02*
X12974927Y-13463764D01*
X12974927Y-13463764D02*
X12984451Y-13501859D01*
X12984451Y-13501859D02*
X12984451Y-13549478D01*
X12984451Y-13549478D02*
X12974927Y-13587573D01*
X12974927Y-13587573D02*
X12965403Y-13606621D01*
X12965403Y-13606621D02*
X12955879Y-13616145D01*
X12955879Y-13616145D02*
X12936832Y-13625669D01*
X12936832Y-13625669D02*
X12917784Y-13625669D01*
X12917784Y-13625669D02*
X12898736Y-13616145D01*
X12898736Y-13616145D02*
X12889212Y-13606621D01*
X12889212Y-13606621D02*
X12879689Y-13587573D01*
X12879689Y-13587573D02*
X12870165Y-13549478D01*
X12870165Y-13549478D02*
X12870165Y-13501859D01*
X12870165Y-13501859D02*
X12879689Y-13463764D01*
X12879689Y-13463764D02*
X12889212Y-13444716D01*
X12889212Y-13444716D02*
X12898736Y-13435192D01*
X12898736Y-13435192D02*
X12917784Y-13425669D01*
X13222546Y-13625669D02*
X13222546Y-13425669D01*
X13308260Y-13625669D02*
X13308260Y-13520907D01*
X13308260Y-13520907D02*
X13298736Y-13501859D01*
X13298736Y-13501859D02*
X13279689Y-13492335D01*
X13279689Y-13492335D02*
X13251117Y-13492335D01*
X13251117Y-13492335D02*
X13232070Y-13501859D01*
X13232070Y-13501859D02*
X13222546Y-13511383D01*
X13432070Y-13625669D02*
X13413022Y-13616145D01*
X13413022Y-13616145D02*
X13403498Y-13606621D01*
X13403498Y-13606621D02*
X13393974Y-13587573D01*
X13393974Y-13587573D02*
X13393974Y-13530430D01*
X13393974Y-13530430D02*
X13403498Y-13511383D01*
X13403498Y-13511383D02*
X13413022Y-13501859D01*
X13413022Y-13501859D02*
X13432070Y-13492335D01*
X13432070Y-13492335D02*
X13460641Y-13492335D01*
X13460641Y-13492335D02*
X13479689Y-13501859D01*
X13479689Y-13501859D02*
X13489213Y-13511383D01*
X13489213Y-13511383D02*
X13498736Y-13530430D01*
X13498736Y-13530430D02*
X13498736Y-13587573D01*
X13498736Y-13587573D02*
X13489213Y-13606621D01*
X13489213Y-13606621D02*
X13479689Y-13616145D01*
X13479689Y-13616145D02*
X13460641Y-13625669D01*
X13460641Y-13625669D02*
X13432070Y-13625669D01*
X13613022Y-13625669D02*
X13593974Y-13616145D01*
X13593974Y-13616145D02*
X13584451Y-13597097D01*
X13584451Y-13597097D02*
X13584451Y-13425669D01*
X13765403Y-13616145D02*
X13746355Y-13625669D01*
X13746355Y-13625669D02*
X13708260Y-13625669D01*
X13708260Y-13625669D02*
X13689213Y-13616145D01*
X13689213Y-13616145D02*
X13679689Y-13597097D01*
X13679689Y-13597097D02*
X13679689Y-13520907D01*
X13679689Y-13520907D02*
X13689213Y-13501859D01*
X13689213Y-13501859D02*
X13708260Y-13492335D01*
X13708260Y-13492335D02*
X13746355Y-13492335D01*
X13746355Y-13492335D02*
X13765403Y-13501859D01*
X13765403Y-13501859D02*
X13774927Y-13520907D01*
X13774927Y-13520907D02*
X13774927Y-13539954D01*
X13774927Y-13539954D02*
X13679689Y-13559002D01*
X13851117Y-13616145D02*
X13870165Y-13625669D01*
X13870165Y-13625669D02*
X13908260Y-13625669D01*
X13908260Y-13625669D02*
X13927308Y-13616145D01*
X13927308Y-13616145D02*
X13936832Y-13597097D01*
X13936832Y-13597097D02*
X13936832Y-13587573D01*
X13936832Y-13587573D02*
X13927308Y-13568526D01*
X13927308Y-13568526D02*
X13908260Y-13559002D01*
X13908260Y-13559002D02*
X13879689Y-13559002D01*
X13879689Y-13559002D02*
X13860641Y-13549478D01*
X13860641Y-13549478D02*
X13851117Y-13530430D01*
X13851117Y-13530430D02*
X13851117Y-13520907D01*
X13851117Y-13520907D02*
X13860641Y-13501859D01*
X13860641Y-13501859D02*
X13879689Y-13492335D01*
X13879689Y-13492335D02*
X13908260Y-13492335D01*
X13908260Y-13492335D02*
X13927308Y-13501859D01*
X14003498Y-13701859D02*
X14013022Y-13692335D01*
X14013022Y-13692335D02*
X14032070Y-13663764D01*
X14032070Y-13663764D02*
X14041594Y-13644716D01*
X14041594Y-13644716D02*
X14051117Y-13616145D01*
X14051117Y-13616145D02*
X14060641Y-13568526D01*
X14060641Y-13568526D02*
X14060641Y-13530430D01*
X14060641Y-13530430D02*
X14051117Y-13482811D01*
X14051117Y-13482811D02*
X14041594Y-13454240D01*
X14041594Y-13454240D02*
X14032070Y-13435192D01*
X14032070Y-13435192D02*
X14013022Y-13406621D01*
X14013022Y-13406621D02*
X14003498Y-13397097D01*
D11*
X8992959Y-13753185D02*
X8992959Y-13843185D01*
X8947959Y-13798185D02*
X9037959Y-13798185D01*
D10*
X9336831Y-13689669D02*
X9355879Y-13689669D01*
X9355879Y-13689669D02*
X9374927Y-13699192D01*
X9374927Y-13699192D02*
X9384450Y-13708716D01*
X9384450Y-13708716D02*
X9393974Y-13727764D01*
X9393974Y-13727764D02*
X9403498Y-13765859D01*
X9403498Y-13765859D02*
X9403498Y-13813478D01*
X9403498Y-13813478D02*
X9393974Y-13851573D01*
X9393974Y-13851573D02*
X9384450Y-13870621D01*
X9384450Y-13870621D02*
X9374927Y-13880145D01*
X9374927Y-13880145D02*
X9355879Y-13889669D01*
X9355879Y-13889669D02*
X9336831Y-13889669D01*
X9336831Y-13889669D02*
X9317784Y-13880145D01*
X9317784Y-13880145D02*
X9308260Y-13870621D01*
X9308260Y-13870621D02*
X9298736Y-13851573D01*
X9298736Y-13851573D02*
X9289212Y-13813478D01*
X9289212Y-13813478D02*
X9289212Y-13765859D01*
X9289212Y-13765859D02*
X9298736Y-13727764D01*
X9298736Y-13727764D02*
X9308260Y-13708716D01*
X9308260Y-13708716D02*
X9317784Y-13699192D01*
X9317784Y-13699192D02*
X9336831Y-13689669D01*
X9489212Y-13870621D02*
X9498736Y-13880145D01*
X9498736Y-13880145D02*
X9489212Y-13889669D01*
X9489212Y-13889669D02*
X9479688Y-13880145D01*
X9479688Y-13880145D02*
X9489212Y-13870621D01*
X9489212Y-13870621D02*
X9489212Y-13889669D01*
X9593974Y-13889669D02*
X9632069Y-13889669D01*
X9632069Y-13889669D02*
X9651117Y-13880145D01*
X9651117Y-13880145D02*
X9660641Y-13870621D01*
X9660641Y-13870621D02*
X9679688Y-13842049D01*
X9679688Y-13842049D02*
X9689212Y-13803954D01*
X9689212Y-13803954D02*
X9689212Y-13727764D01*
X9689212Y-13727764D02*
X9679688Y-13708716D01*
X9679688Y-13708716D02*
X9670165Y-13699192D01*
X9670165Y-13699192D02*
X9651117Y-13689669D01*
X9651117Y-13689669D02*
X9613022Y-13689669D01*
X9613022Y-13689669D02*
X9593974Y-13699192D01*
X9593974Y-13699192D02*
X9584450Y-13708716D01*
X9584450Y-13708716D02*
X9574927Y-13727764D01*
X9574927Y-13727764D02*
X9574927Y-13775383D01*
X9574927Y-13775383D02*
X9584450Y-13794430D01*
X9584450Y-13794430D02*
X9593974Y-13803954D01*
X9593974Y-13803954D02*
X9613022Y-13813478D01*
X9613022Y-13813478D02*
X9651117Y-13813478D01*
X9651117Y-13813478D02*
X9670165Y-13803954D01*
X9670165Y-13803954D02*
X9679688Y-13794430D01*
X9679688Y-13794430D02*
X9689212Y-13775383D01*
X9813022Y-13689669D02*
X9832069Y-13689669D01*
X9832069Y-13689669D02*
X9851117Y-13699192D01*
X9851117Y-13699192D02*
X9860641Y-13708716D01*
X9860641Y-13708716D02*
X9870165Y-13727764D01*
X9870165Y-13727764D02*
X9879688Y-13765859D01*
X9879688Y-13765859D02*
X9879688Y-13813478D01*
X9879688Y-13813478D02*
X9870165Y-13851573D01*
X9870165Y-13851573D02*
X9860641Y-13870621D01*
X9860641Y-13870621D02*
X9851117Y-13880145D01*
X9851117Y-13880145D02*
X9832069Y-13889669D01*
X9832069Y-13889669D02*
X9813022Y-13889669D01*
X9813022Y-13889669D02*
X9793974Y-13880145D01*
X9793974Y-13880145D02*
X9784450Y-13870621D01*
X9784450Y-13870621D02*
X9774927Y-13851573D01*
X9774927Y-13851573D02*
X9765403Y-13813478D01*
X9765403Y-13813478D02*
X9765403Y-13765859D01*
X9765403Y-13765859D02*
X9774927Y-13727764D01*
X9774927Y-13727764D02*
X9784450Y-13708716D01*
X9784450Y-13708716D02*
X9793974Y-13699192D01*
X9793974Y-13699192D02*
X9813022Y-13689669D01*
X10003498Y-13689669D02*
X10022546Y-13689669D01*
X10022546Y-13689669D02*
X10041593Y-13699192D01*
X10041593Y-13699192D02*
X10051117Y-13708716D01*
X10051117Y-13708716D02*
X10060641Y-13727764D01*
X10060641Y-13727764D02*
X10070165Y-13765859D01*
X10070165Y-13765859D02*
X10070165Y-13813478D01*
X10070165Y-13813478D02*
X10060641Y-13851573D01*
X10060641Y-13851573D02*
X10051117Y-13870621D01*
X10051117Y-13870621D02*
X10041593Y-13880145D01*
X10041593Y-13880145D02*
X10022546Y-13889669D01*
X10022546Y-13889669D02*
X10003498Y-13889669D01*
X10003498Y-13889669D02*
X9984450Y-13880145D01*
X9984450Y-13880145D02*
X9974927Y-13870621D01*
X9974927Y-13870621D02*
X9965403Y-13851573D01*
X9965403Y-13851573D02*
X9955879Y-13813478D01*
X9955879Y-13813478D02*
X9955879Y-13765859D01*
X9955879Y-13765859D02*
X9965403Y-13727764D01*
X9965403Y-13727764D02*
X9974927Y-13708716D01*
X9974927Y-13708716D02*
X9984450Y-13699192D01*
X9984450Y-13699192D02*
X10003498Y-13689669D01*
X10155879Y-13889669D02*
X10155879Y-13756335D01*
X10155879Y-13775383D02*
X10165403Y-13765859D01*
X10165403Y-13765859D02*
X10184450Y-13756335D01*
X10184450Y-13756335D02*
X10213022Y-13756335D01*
X10213022Y-13756335D02*
X10232069Y-13765859D01*
X10232069Y-13765859D02*
X10241593Y-13784907D01*
X10241593Y-13784907D02*
X10241593Y-13889669D01*
X10241593Y-13784907D02*
X10251117Y-13765859D01*
X10251117Y-13765859D02*
X10270165Y-13756335D01*
X10270165Y-13756335D02*
X10298736Y-13756335D01*
X10298736Y-13756335D02*
X10317784Y-13765859D01*
X10317784Y-13765859D02*
X10327308Y-13784907D01*
X10327308Y-13784907D02*
X10327308Y-13889669D01*
X10422546Y-13889669D02*
X10422546Y-13756335D01*
X10422546Y-13775383D02*
X10432069Y-13765859D01*
X10432069Y-13765859D02*
X10451117Y-13756335D01*
X10451117Y-13756335D02*
X10479689Y-13756335D01*
X10479689Y-13756335D02*
X10498736Y-13765859D01*
X10498736Y-13765859D02*
X10508260Y-13784907D01*
X10508260Y-13784907D02*
X10508260Y-13889669D01*
X10508260Y-13784907D02*
X10517784Y-13765859D01*
X10517784Y-13765859D02*
X10536831Y-13756335D01*
X10536831Y-13756335D02*
X10565403Y-13756335D01*
X10565403Y-13756335D02*
X10584450Y-13765859D01*
X10584450Y-13765859D02*
X10593974Y-13784907D01*
X10593974Y-13784907D02*
X10593974Y-13889669D01*
X10984450Y-13680145D02*
X10813022Y-13937288D01*
X11241593Y-13689669D02*
X11260641Y-13689669D01*
X11260641Y-13689669D02*
X11279689Y-13699192D01*
X11279689Y-13699192D02*
X11289212Y-13708716D01*
X11289212Y-13708716D02*
X11298736Y-13727764D01*
X11298736Y-13727764D02*
X11308260Y-13765859D01*
X11308260Y-13765859D02*
X11308260Y-13813478D01*
X11308260Y-13813478D02*
X11298736Y-13851573D01*
X11298736Y-13851573D02*
X11289212Y-13870621D01*
X11289212Y-13870621D02*
X11279689Y-13880145D01*
X11279689Y-13880145D02*
X11260641Y-13889669D01*
X11260641Y-13889669D02*
X11241593Y-13889669D01*
X11241593Y-13889669D02*
X11222546Y-13880145D01*
X11222546Y-13880145D02*
X11213022Y-13870621D01*
X11213022Y-13870621D02*
X11203498Y-13851573D01*
X11203498Y-13851573D02*
X11193974Y-13813478D01*
X11193974Y-13813478D02*
X11193974Y-13765859D01*
X11193974Y-13765859D02*
X11203498Y-13727764D01*
X11203498Y-13727764D02*
X11213022Y-13708716D01*
X11213022Y-13708716D02*
X11222546Y-13699192D01*
X11222546Y-13699192D02*
X11241593Y-13689669D01*
X11393974Y-13870621D02*
X11403498Y-13880145D01*
X11403498Y-13880145D02*
X11393974Y-13889669D01*
X11393974Y-13889669D02*
X11384450Y-13880145D01*
X11384450Y-13880145D02*
X11393974Y-13870621D01*
X11393974Y-13870621D02*
X11393974Y-13889669D01*
X11527308Y-13689669D02*
X11546355Y-13689669D01*
X11546355Y-13689669D02*
X11565403Y-13699192D01*
X11565403Y-13699192D02*
X11574927Y-13708716D01*
X11574927Y-13708716D02*
X11584450Y-13727764D01*
X11584450Y-13727764D02*
X11593974Y-13765859D01*
X11593974Y-13765859D02*
X11593974Y-13813478D01*
X11593974Y-13813478D02*
X11584450Y-13851573D01*
X11584450Y-13851573D02*
X11574927Y-13870621D01*
X11574927Y-13870621D02*
X11565403Y-13880145D01*
X11565403Y-13880145D02*
X11546355Y-13889669D01*
X11546355Y-13889669D02*
X11527308Y-13889669D01*
X11527308Y-13889669D02*
X11508260Y-13880145D01*
X11508260Y-13880145D02*
X11498736Y-13870621D01*
X11498736Y-13870621D02*
X11489212Y-13851573D01*
X11489212Y-13851573D02*
X11479689Y-13813478D01*
X11479689Y-13813478D02*
X11479689Y-13765859D01*
X11479689Y-13765859D02*
X11489212Y-13727764D01*
X11489212Y-13727764D02*
X11498736Y-13708716D01*
X11498736Y-13708716D02*
X11508260Y-13699192D01*
X11508260Y-13699192D02*
X11527308Y-13689669D01*
X11660641Y-13689669D02*
X11784450Y-13689669D01*
X11784450Y-13689669D02*
X11717784Y-13765859D01*
X11717784Y-13765859D02*
X11746355Y-13765859D01*
X11746355Y-13765859D02*
X11765403Y-13775383D01*
X11765403Y-13775383D02*
X11774927Y-13784907D01*
X11774927Y-13784907D02*
X11784450Y-13803954D01*
X11784450Y-13803954D02*
X11784450Y-13851573D01*
X11784450Y-13851573D02*
X11774927Y-13870621D01*
X11774927Y-13870621D02*
X11765403Y-13880145D01*
X11765403Y-13880145D02*
X11746355Y-13889669D01*
X11746355Y-13889669D02*
X11689212Y-13889669D01*
X11689212Y-13889669D02*
X11670165Y-13880145D01*
X11670165Y-13880145D02*
X11660641Y-13870621D01*
X11965403Y-13689669D02*
X11870165Y-13689669D01*
X11870165Y-13689669D02*
X11860641Y-13784907D01*
X11860641Y-13784907D02*
X11870165Y-13775383D01*
X11870165Y-13775383D02*
X11889212Y-13765859D01*
X11889212Y-13765859D02*
X11936831Y-13765859D01*
X11936831Y-13765859D02*
X11955879Y-13775383D01*
X11955879Y-13775383D02*
X11965403Y-13784907D01*
X11965403Y-13784907D02*
X11974927Y-13803954D01*
X11974927Y-13803954D02*
X11974927Y-13851573D01*
X11974927Y-13851573D02*
X11965403Y-13870621D01*
X11965403Y-13870621D02*
X11955879Y-13880145D01*
X11955879Y-13880145D02*
X11936831Y-13889669D01*
X11936831Y-13889669D02*
X11889212Y-13889669D01*
X11889212Y-13889669D02*
X11870165Y-13880145D01*
X11870165Y-13880145D02*
X11860641Y-13870621D01*
X12146355Y-13756335D02*
X12146355Y-13889669D01*
X12098736Y-13680145D02*
X12051117Y-13823002D01*
X12051117Y-13823002D02*
X12174927Y-13823002D01*
X12241593Y-13689669D02*
X12241593Y-13727764D01*
X12317784Y-13689669D02*
X12317784Y-13727764D01*
X12613022Y-13965859D02*
X12603498Y-13956335D01*
X12603498Y-13956335D02*
X12584451Y-13927764D01*
X12584451Y-13927764D02*
X12574927Y-13908716D01*
X12574927Y-13908716D02*
X12565403Y-13880145D01*
X12565403Y-13880145D02*
X12555879Y-13832526D01*
X12555879Y-13832526D02*
X12555879Y-13794430D01*
X12555879Y-13794430D02*
X12565403Y-13746811D01*
X12565403Y-13746811D02*
X12574927Y-13718240D01*
X12574927Y-13718240D02*
X12584451Y-13699192D01*
X12584451Y-13699192D02*
X12603498Y-13670621D01*
X12603498Y-13670621D02*
X12613022Y-13661097D01*
X12679689Y-13708716D02*
X12689212Y-13699192D01*
X12689212Y-13699192D02*
X12708260Y-13689669D01*
X12708260Y-13689669D02*
X12755879Y-13689669D01*
X12755879Y-13689669D02*
X12774927Y-13699192D01*
X12774927Y-13699192D02*
X12784451Y-13708716D01*
X12784451Y-13708716D02*
X12793974Y-13727764D01*
X12793974Y-13727764D02*
X12793974Y-13746811D01*
X12793974Y-13746811D02*
X12784451Y-13775383D01*
X12784451Y-13775383D02*
X12670165Y-13889669D01*
X12670165Y-13889669D02*
X12793974Y-13889669D01*
X12917784Y-13689669D02*
X12936832Y-13689669D01*
X12936832Y-13689669D02*
X12955879Y-13699192D01*
X12955879Y-13699192D02*
X12965403Y-13708716D01*
X12965403Y-13708716D02*
X12974927Y-13727764D01*
X12974927Y-13727764D02*
X12984451Y-13765859D01*
X12984451Y-13765859D02*
X12984451Y-13813478D01*
X12984451Y-13813478D02*
X12974927Y-13851573D01*
X12974927Y-13851573D02*
X12965403Y-13870621D01*
X12965403Y-13870621D02*
X12955879Y-13880145D01*
X12955879Y-13880145D02*
X12936832Y-13889669D01*
X12936832Y-13889669D02*
X12917784Y-13889669D01*
X12917784Y-13889669D02*
X12898736Y-13880145D01*
X12898736Y-13880145D02*
X12889212Y-13870621D01*
X12889212Y-13870621D02*
X12879689Y-13851573D01*
X12879689Y-13851573D02*
X12870165Y-13813478D01*
X12870165Y-13813478D02*
X12870165Y-13765859D01*
X12870165Y-13765859D02*
X12879689Y-13727764D01*
X12879689Y-13727764D02*
X12889212Y-13708716D01*
X12889212Y-13708716D02*
X12898736Y-13699192D01*
X12898736Y-13699192D02*
X12917784Y-13689669D01*
X13222546Y-13889669D02*
X13222546Y-13689669D01*
X13308260Y-13889669D02*
X13308260Y-13784907D01*
X13308260Y-13784907D02*
X13298736Y-13765859D01*
X13298736Y-13765859D02*
X13279689Y-13756335D01*
X13279689Y-13756335D02*
X13251117Y-13756335D01*
X13251117Y-13756335D02*
X13232070Y-13765859D01*
X13232070Y-13765859D02*
X13222546Y-13775383D01*
X13432070Y-13889669D02*
X13413022Y-13880145D01*
X13413022Y-13880145D02*
X13403498Y-13870621D01*
X13403498Y-13870621D02*
X13393974Y-13851573D01*
X13393974Y-13851573D02*
X13393974Y-13794430D01*
X13393974Y-13794430D02*
X13403498Y-13775383D01*
X13403498Y-13775383D02*
X13413022Y-13765859D01*
X13413022Y-13765859D02*
X13432070Y-13756335D01*
X13432070Y-13756335D02*
X13460641Y-13756335D01*
X13460641Y-13756335D02*
X13479689Y-13765859D01*
X13479689Y-13765859D02*
X13489213Y-13775383D01*
X13489213Y-13775383D02*
X13498736Y-13794430D01*
X13498736Y-13794430D02*
X13498736Y-13851573D01*
X13498736Y-13851573D02*
X13489213Y-13870621D01*
X13489213Y-13870621D02*
X13479689Y-13880145D01*
X13479689Y-13880145D02*
X13460641Y-13889669D01*
X13460641Y-13889669D02*
X13432070Y-13889669D01*
X13613022Y-13889669D02*
X13593974Y-13880145D01*
X13593974Y-13880145D02*
X13584451Y-13861097D01*
X13584451Y-13861097D02*
X13584451Y-13689669D01*
X13765403Y-13880145D02*
X13746355Y-13889669D01*
X13746355Y-13889669D02*
X13708260Y-13889669D01*
X13708260Y-13889669D02*
X13689213Y-13880145D01*
X13689213Y-13880145D02*
X13679689Y-13861097D01*
X13679689Y-13861097D02*
X13679689Y-13784907D01*
X13679689Y-13784907D02*
X13689213Y-13765859D01*
X13689213Y-13765859D02*
X13708260Y-13756335D01*
X13708260Y-13756335D02*
X13746355Y-13756335D01*
X13746355Y-13756335D02*
X13765403Y-13765859D01*
X13765403Y-13765859D02*
X13774927Y-13784907D01*
X13774927Y-13784907D02*
X13774927Y-13803954D01*
X13774927Y-13803954D02*
X13679689Y-13823002D01*
X13851117Y-13880145D02*
X13870165Y-13889669D01*
X13870165Y-13889669D02*
X13908260Y-13889669D01*
X13908260Y-13889669D02*
X13927308Y-13880145D01*
X13927308Y-13880145D02*
X13936832Y-13861097D01*
X13936832Y-13861097D02*
X13936832Y-13851573D01*
X13936832Y-13851573D02*
X13927308Y-13832526D01*
X13927308Y-13832526D02*
X13908260Y-13823002D01*
X13908260Y-13823002D02*
X13879689Y-13823002D01*
X13879689Y-13823002D02*
X13860641Y-13813478D01*
X13860641Y-13813478D02*
X13851117Y-13794430D01*
X13851117Y-13794430D02*
X13851117Y-13784907D01*
X13851117Y-13784907D02*
X13860641Y-13765859D01*
X13860641Y-13765859D02*
X13879689Y-13756335D01*
X13879689Y-13756335D02*
X13908260Y-13756335D01*
X13908260Y-13756335D02*
X13927308Y-13765859D01*
X14003498Y-13965859D02*
X14013022Y-13956335D01*
X14013022Y-13956335D02*
X14032070Y-13927764D01*
X14032070Y-13927764D02*
X14041594Y-13908716D01*
X14041594Y-13908716D02*
X14051117Y-13880145D01*
X14051117Y-13880145D02*
X14060641Y-13832526D01*
X14060641Y-13832526D02*
X14060641Y-13794430D01*
X14060641Y-13794430D02*
X14051117Y-13746811D01*
X14051117Y-13746811D02*
X14041594Y-13718240D01*
X14041594Y-13718240D02*
X14032070Y-13699192D01*
X14032070Y-13699192D02*
X14013022Y-13670621D01*
X14013022Y-13670621D02*
X14003498Y-13661097D01*
D11*
X9023315Y-14097540D02*
X9023315Y-14026829D01*
X8952604Y-14026829D01*
X8952604Y-14097540D01*
X9023315Y-14097540D01*
D10*
X9403498Y-14153669D02*
X9289212Y-14153669D01*
X9346355Y-14153669D02*
X9346355Y-13953669D01*
X9346355Y-13953669D02*
X9327307Y-13982240D01*
X9327307Y-13982240D02*
X9308260Y-14001288D01*
X9308260Y-14001288D02*
X9289212Y-14010811D01*
X9489212Y-14134621D02*
X9498736Y-14144145D01*
X9498736Y-14144145D02*
X9489212Y-14153669D01*
X9489212Y-14153669D02*
X9479688Y-14144145D01*
X9479688Y-14144145D02*
X9489212Y-14134621D01*
X9489212Y-14134621D02*
X9489212Y-14153669D01*
X9622546Y-13953669D02*
X9641593Y-13953669D01*
X9641593Y-13953669D02*
X9660641Y-13963192D01*
X9660641Y-13963192D02*
X9670165Y-13972716D01*
X9670165Y-13972716D02*
X9679688Y-13991764D01*
X9679688Y-13991764D02*
X9689212Y-14029859D01*
X9689212Y-14029859D02*
X9689212Y-14077478D01*
X9689212Y-14077478D02*
X9679688Y-14115573D01*
X9679688Y-14115573D02*
X9670165Y-14134621D01*
X9670165Y-14134621D02*
X9660641Y-14144145D01*
X9660641Y-14144145D02*
X9641593Y-14153669D01*
X9641593Y-14153669D02*
X9622546Y-14153669D01*
X9622546Y-14153669D02*
X9603498Y-14144145D01*
X9603498Y-14144145D02*
X9593974Y-14134621D01*
X9593974Y-14134621D02*
X9584450Y-14115573D01*
X9584450Y-14115573D02*
X9574927Y-14077478D01*
X9574927Y-14077478D02*
X9574927Y-14029859D01*
X9574927Y-14029859D02*
X9584450Y-13991764D01*
X9584450Y-13991764D02*
X9593974Y-13972716D01*
X9593974Y-13972716D02*
X9603498Y-13963192D01*
X9603498Y-13963192D02*
X9622546Y-13953669D01*
X9813022Y-13953669D02*
X9832069Y-13953669D01*
X9832069Y-13953669D02*
X9851117Y-13963192D01*
X9851117Y-13963192D02*
X9860641Y-13972716D01*
X9860641Y-13972716D02*
X9870165Y-13991764D01*
X9870165Y-13991764D02*
X9879688Y-14029859D01*
X9879688Y-14029859D02*
X9879688Y-14077478D01*
X9879688Y-14077478D02*
X9870165Y-14115573D01*
X9870165Y-14115573D02*
X9860641Y-14134621D01*
X9860641Y-14134621D02*
X9851117Y-14144145D01*
X9851117Y-14144145D02*
X9832069Y-14153669D01*
X9832069Y-14153669D02*
X9813022Y-14153669D01*
X9813022Y-14153669D02*
X9793974Y-14144145D01*
X9793974Y-14144145D02*
X9784450Y-14134621D01*
X9784450Y-14134621D02*
X9774927Y-14115573D01*
X9774927Y-14115573D02*
X9765403Y-14077478D01*
X9765403Y-14077478D02*
X9765403Y-14029859D01*
X9765403Y-14029859D02*
X9774927Y-13991764D01*
X9774927Y-13991764D02*
X9784450Y-13972716D01*
X9784450Y-13972716D02*
X9793974Y-13963192D01*
X9793974Y-13963192D02*
X9813022Y-13953669D01*
X10003498Y-13953669D02*
X10022546Y-13953669D01*
X10022546Y-13953669D02*
X10041593Y-13963192D01*
X10041593Y-13963192D02*
X10051117Y-13972716D01*
X10051117Y-13972716D02*
X10060641Y-13991764D01*
X10060641Y-13991764D02*
X10070165Y-14029859D01*
X10070165Y-14029859D02*
X10070165Y-14077478D01*
X10070165Y-14077478D02*
X10060641Y-14115573D01*
X10060641Y-14115573D02*
X10051117Y-14134621D01*
X10051117Y-14134621D02*
X10041593Y-14144145D01*
X10041593Y-14144145D02*
X10022546Y-14153669D01*
X10022546Y-14153669D02*
X10003498Y-14153669D01*
X10003498Y-14153669D02*
X9984450Y-14144145D01*
X9984450Y-14144145D02*
X9974927Y-14134621D01*
X9974927Y-14134621D02*
X9965403Y-14115573D01*
X9965403Y-14115573D02*
X9955879Y-14077478D01*
X9955879Y-14077478D02*
X9955879Y-14029859D01*
X9955879Y-14029859D02*
X9965403Y-13991764D01*
X9965403Y-13991764D02*
X9974927Y-13972716D01*
X9974927Y-13972716D02*
X9984450Y-13963192D01*
X9984450Y-13963192D02*
X10003498Y-13953669D01*
X10155879Y-14153669D02*
X10155879Y-14020335D01*
X10155879Y-14039383D02*
X10165403Y-14029859D01*
X10165403Y-14029859D02*
X10184450Y-14020335D01*
X10184450Y-14020335D02*
X10213022Y-14020335D01*
X10213022Y-14020335D02*
X10232069Y-14029859D01*
X10232069Y-14029859D02*
X10241593Y-14048907D01*
X10241593Y-14048907D02*
X10241593Y-14153669D01*
X10241593Y-14048907D02*
X10251117Y-14029859D01*
X10251117Y-14029859D02*
X10270165Y-14020335D01*
X10270165Y-14020335D02*
X10298736Y-14020335D01*
X10298736Y-14020335D02*
X10317784Y-14029859D01*
X10317784Y-14029859D02*
X10327308Y-14048907D01*
X10327308Y-14048907D02*
X10327308Y-14153669D01*
X10422546Y-14153669D02*
X10422546Y-14020335D01*
X10422546Y-14039383D02*
X10432069Y-14029859D01*
X10432069Y-14029859D02*
X10451117Y-14020335D01*
X10451117Y-14020335D02*
X10479689Y-14020335D01*
X10479689Y-14020335D02*
X10498736Y-14029859D01*
X10498736Y-14029859D02*
X10508260Y-14048907D01*
X10508260Y-14048907D02*
X10508260Y-14153669D01*
X10508260Y-14048907D02*
X10517784Y-14029859D01*
X10517784Y-14029859D02*
X10536831Y-14020335D01*
X10536831Y-14020335D02*
X10565403Y-14020335D01*
X10565403Y-14020335D02*
X10584450Y-14029859D01*
X10584450Y-14029859D02*
X10593974Y-14048907D01*
X10593974Y-14048907D02*
X10593974Y-14153669D01*
X10984450Y-13944145D02*
X10813022Y-14201288D01*
X11241593Y-13953669D02*
X11260641Y-13953669D01*
X11260641Y-13953669D02*
X11279689Y-13963192D01*
X11279689Y-13963192D02*
X11289212Y-13972716D01*
X11289212Y-13972716D02*
X11298736Y-13991764D01*
X11298736Y-13991764D02*
X11308260Y-14029859D01*
X11308260Y-14029859D02*
X11308260Y-14077478D01*
X11308260Y-14077478D02*
X11298736Y-14115573D01*
X11298736Y-14115573D02*
X11289212Y-14134621D01*
X11289212Y-14134621D02*
X11279689Y-14144145D01*
X11279689Y-14144145D02*
X11260641Y-14153669D01*
X11260641Y-14153669D02*
X11241593Y-14153669D01*
X11241593Y-14153669D02*
X11222546Y-14144145D01*
X11222546Y-14144145D02*
X11213022Y-14134621D01*
X11213022Y-14134621D02*
X11203498Y-14115573D01*
X11203498Y-14115573D02*
X11193974Y-14077478D01*
X11193974Y-14077478D02*
X11193974Y-14029859D01*
X11193974Y-14029859D02*
X11203498Y-13991764D01*
X11203498Y-13991764D02*
X11213022Y-13972716D01*
X11213022Y-13972716D02*
X11222546Y-13963192D01*
X11222546Y-13963192D02*
X11241593Y-13953669D01*
X11393974Y-14134621D02*
X11403498Y-14144145D01*
X11403498Y-14144145D02*
X11393974Y-14153669D01*
X11393974Y-14153669D02*
X11384450Y-14144145D01*
X11384450Y-14144145D02*
X11393974Y-14134621D01*
X11393974Y-14134621D02*
X11393974Y-14153669D01*
X11527308Y-13953669D02*
X11546355Y-13953669D01*
X11546355Y-13953669D02*
X11565403Y-13963192D01*
X11565403Y-13963192D02*
X11574927Y-13972716D01*
X11574927Y-13972716D02*
X11584450Y-13991764D01*
X11584450Y-13991764D02*
X11593974Y-14029859D01*
X11593974Y-14029859D02*
X11593974Y-14077478D01*
X11593974Y-14077478D02*
X11584450Y-14115573D01*
X11584450Y-14115573D02*
X11574927Y-14134621D01*
X11574927Y-14134621D02*
X11565403Y-14144145D01*
X11565403Y-14144145D02*
X11546355Y-14153669D01*
X11546355Y-14153669D02*
X11527308Y-14153669D01*
X11527308Y-14153669D02*
X11508260Y-14144145D01*
X11508260Y-14144145D02*
X11498736Y-14134621D01*
X11498736Y-14134621D02*
X11489212Y-14115573D01*
X11489212Y-14115573D02*
X11479689Y-14077478D01*
X11479689Y-14077478D02*
X11479689Y-14029859D01*
X11479689Y-14029859D02*
X11489212Y-13991764D01*
X11489212Y-13991764D02*
X11498736Y-13972716D01*
X11498736Y-13972716D02*
X11508260Y-13963192D01*
X11508260Y-13963192D02*
X11527308Y-13953669D01*
X11660641Y-13953669D02*
X11784450Y-13953669D01*
X11784450Y-13953669D02*
X11717784Y-14029859D01*
X11717784Y-14029859D02*
X11746355Y-14029859D01*
X11746355Y-14029859D02*
X11765403Y-14039383D01*
X11765403Y-14039383D02*
X11774927Y-14048907D01*
X11774927Y-14048907D02*
X11784450Y-14067954D01*
X11784450Y-14067954D02*
X11784450Y-14115573D01*
X11784450Y-14115573D02*
X11774927Y-14134621D01*
X11774927Y-14134621D02*
X11765403Y-14144145D01*
X11765403Y-14144145D02*
X11746355Y-14153669D01*
X11746355Y-14153669D02*
X11689212Y-14153669D01*
X11689212Y-14153669D02*
X11670165Y-14144145D01*
X11670165Y-14144145D02*
X11660641Y-14134621D01*
X11879689Y-14153669D02*
X11917784Y-14153669D01*
X11917784Y-14153669D02*
X11936831Y-14144145D01*
X11936831Y-14144145D02*
X11946355Y-14134621D01*
X11946355Y-14134621D02*
X11965403Y-14106049D01*
X11965403Y-14106049D02*
X11974927Y-14067954D01*
X11974927Y-14067954D02*
X11974927Y-13991764D01*
X11974927Y-13991764D02*
X11965403Y-13972716D01*
X11965403Y-13972716D02*
X11955879Y-13963192D01*
X11955879Y-13963192D02*
X11936831Y-13953669D01*
X11936831Y-13953669D02*
X11898736Y-13953669D01*
X11898736Y-13953669D02*
X11879689Y-13963192D01*
X11879689Y-13963192D02*
X11870165Y-13972716D01*
X11870165Y-13972716D02*
X11860641Y-13991764D01*
X11860641Y-13991764D02*
X11860641Y-14039383D01*
X11860641Y-14039383D02*
X11870165Y-14058430D01*
X11870165Y-14058430D02*
X11879689Y-14067954D01*
X11879689Y-14067954D02*
X11898736Y-14077478D01*
X11898736Y-14077478D02*
X11936831Y-14077478D01*
X11936831Y-14077478D02*
X11955879Y-14067954D01*
X11955879Y-14067954D02*
X11965403Y-14058430D01*
X11965403Y-14058430D02*
X11974927Y-14039383D01*
X12146355Y-14020335D02*
X12146355Y-14153669D01*
X12098736Y-13944145D02*
X12051117Y-14087002D01*
X12051117Y-14087002D02*
X12174927Y-14087002D01*
X12241593Y-13953669D02*
X12241593Y-13991764D01*
X12317784Y-13953669D02*
X12317784Y-13991764D01*
X12613022Y-14229859D02*
X12603498Y-14220335D01*
X12603498Y-14220335D02*
X12584451Y-14191764D01*
X12584451Y-14191764D02*
X12574927Y-14172716D01*
X12574927Y-14172716D02*
X12565403Y-14144145D01*
X12565403Y-14144145D02*
X12555879Y-14096526D01*
X12555879Y-14096526D02*
X12555879Y-14058430D01*
X12555879Y-14058430D02*
X12565403Y-14010811D01*
X12565403Y-14010811D02*
X12574927Y-13982240D01*
X12574927Y-13982240D02*
X12584451Y-13963192D01*
X12584451Y-13963192D02*
X12603498Y-13934621D01*
X12603498Y-13934621D02*
X12613022Y-13925097D01*
X12793974Y-14153669D02*
X12679689Y-14153669D01*
X12736831Y-14153669D02*
X12736831Y-13953669D01*
X12736831Y-13953669D02*
X12717784Y-13982240D01*
X12717784Y-13982240D02*
X12698736Y-14001288D01*
X12698736Y-14001288D02*
X12679689Y-14010811D01*
X12917784Y-13953669D02*
X12936832Y-13953669D01*
X12936832Y-13953669D02*
X12955879Y-13963192D01*
X12955879Y-13963192D02*
X12965403Y-13972716D01*
X12965403Y-13972716D02*
X12974927Y-13991764D01*
X12974927Y-13991764D02*
X12984451Y-14029859D01*
X12984451Y-14029859D02*
X12984451Y-14077478D01*
X12984451Y-14077478D02*
X12974927Y-14115573D01*
X12974927Y-14115573D02*
X12965403Y-14134621D01*
X12965403Y-14134621D02*
X12955879Y-14144145D01*
X12955879Y-14144145D02*
X12936832Y-14153669D01*
X12936832Y-14153669D02*
X12917784Y-14153669D01*
X12917784Y-14153669D02*
X12898736Y-14144145D01*
X12898736Y-14144145D02*
X12889212Y-14134621D01*
X12889212Y-14134621D02*
X12879689Y-14115573D01*
X12879689Y-14115573D02*
X12870165Y-14077478D01*
X12870165Y-14077478D02*
X12870165Y-14029859D01*
X12870165Y-14029859D02*
X12879689Y-13991764D01*
X12879689Y-13991764D02*
X12889212Y-13972716D01*
X12889212Y-13972716D02*
X12898736Y-13963192D01*
X12898736Y-13963192D02*
X12917784Y-13953669D01*
X13222546Y-14153669D02*
X13222546Y-13953669D01*
X13308260Y-14153669D02*
X13308260Y-14048907D01*
X13308260Y-14048907D02*
X13298736Y-14029859D01*
X13298736Y-14029859D02*
X13279689Y-14020335D01*
X13279689Y-14020335D02*
X13251117Y-14020335D01*
X13251117Y-14020335D02*
X13232070Y-14029859D01*
X13232070Y-14029859D02*
X13222546Y-14039383D01*
X13432070Y-14153669D02*
X13413022Y-14144145D01*
X13413022Y-14144145D02*
X13403498Y-14134621D01*
X13403498Y-14134621D02*
X13393974Y-14115573D01*
X13393974Y-14115573D02*
X13393974Y-14058430D01*
X13393974Y-14058430D02*
X13403498Y-14039383D01*
X13403498Y-14039383D02*
X13413022Y-14029859D01*
X13413022Y-14029859D02*
X13432070Y-14020335D01*
X13432070Y-14020335D02*
X13460641Y-14020335D01*
X13460641Y-14020335D02*
X13479689Y-14029859D01*
X13479689Y-14029859D02*
X13489213Y-14039383D01*
X13489213Y-14039383D02*
X13498736Y-14058430D01*
X13498736Y-14058430D02*
X13498736Y-14115573D01*
X13498736Y-14115573D02*
X13489213Y-14134621D01*
X13489213Y-14134621D02*
X13479689Y-14144145D01*
X13479689Y-14144145D02*
X13460641Y-14153669D01*
X13460641Y-14153669D02*
X13432070Y-14153669D01*
X13613022Y-14153669D02*
X13593974Y-14144145D01*
X13593974Y-14144145D02*
X13584451Y-14125097D01*
X13584451Y-14125097D02*
X13584451Y-13953669D01*
X13765403Y-14144145D02*
X13746355Y-14153669D01*
X13746355Y-14153669D02*
X13708260Y-14153669D01*
X13708260Y-14153669D02*
X13689213Y-14144145D01*
X13689213Y-14144145D02*
X13679689Y-14125097D01*
X13679689Y-14125097D02*
X13679689Y-14048907D01*
X13679689Y-14048907D02*
X13689213Y-14029859D01*
X13689213Y-14029859D02*
X13708260Y-14020335D01*
X13708260Y-14020335D02*
X13746355Y-14020335D01*
X13746355Y-14020335D02*
X13765403Y-14029859D01*
X13765403Y-14029859D02*
X13774927Y-14048907D01*
X13774927Y-14048907D02*
X13774927Y-14067954D01*
X13774927Y-14067954D02*
X13679689Y-14087002D01*
X13851117Y-14144145D02*
X13870165Y-14153669D01*
X13870165Y-14153669D02*
X13908260Y-14153669D01*
X13908260Y-14153669D02*
X13927308Y-14144145D01*
X13927308Y-14144145D02*
X13936832Y-14125097D01*
X13936832Y-14125097D02*
X13936832Y-14115573D01*
X13936832Y-14115573D02*
X13927308Y-14096526D01*
X13927308Y-14096526D02*
X13908260Y-14087002D01*
X13908260Y-14087002D02*
X13879689Y-14087002D01*
X13879689Y-14087002D02*
X13860641Y-14077478D01*
X13860641Y-14077478D02*
X13851117Y-14058430D01*
X13851117Y-14058430D02*
X13851117Y-14048907D01*
X13851117Y-14048907D02*
X13860641Y-14029859D01*
X13860641Y-14029859D02*
X13879689Y-14020335D01*
X13879689Y-14020335D02*
X13908260Y-14020335D01*
X13908260Y-14020335D02*
X13927308Y-14029859D01*
X14003498Y-14229859D02*
X14013022Y-14220335D01*
X14013022Y-14220335D02*
X14032070Y-14191764D01*
X14032070Y-14191764D02*
X14041594Y-14172716D01*
X14041594Y-14172716D02*
X14051117Y-14144145D01*
X14051117Y-14144145D02*
X14060641Y-14096526D01*
X14060641Y-14096526D02*
X14060641Y-14058430D01*
X14060641Y-14058430D02*
X14051117Y-14010811D01*
X14051117Y-14010811D02*
X14041594Y-13982240D01*
X14041594Y-13982240D02*
X14032070Y-13963192D01*
X14032070Y-13963192D02*
X14013022Y-13934621D01*
X14013022Y-13934621D02*
X14003498Y-13925097D01*
M02*
