%TF.GenerationSoftware,KiCad,Pcbnew,8.0.5*%
%TF.CreationDate,2024-10-17T14:29:37+05:30*%
%TF.ProjectId,soil_moisture,736f696c-5f6d-46f6-9973-747572652e6b,rev?*%
%TF.SameCoordinates,Original*%
%TF.FileFunction,Soldermask,Top*%
%TF.FilePolarity,Negative*%
%FSLAX46Y46*%
G04 Gerber Fmt 4.6, Leading zero omitted, Abs format (unit mm)*
G04 Created by KiCad (PCBNEW 8.0.5) date 2024-10-17 14:29:37*
%MOMM*%
%LPD*%
G01*
G04 APERTURE LIST*
G04 Aperture macros list*
%AMRoundRect*
0 Rectangle with rounded corners*
0 $1 Rounding radius*
0 $2 $3 $4 $5 $6 $7 $8 $9 X,Y pos of 4 corners*
0 Add a 4 corners polygon primitive as box body*
4,1,4,$2,$3,$4,$5,$6,$7,$8,$9,$2,$3,0*
0 Add four circle primitives for the rounded corners*
1,1,$1+$1,$2,$3*
1,1,$1+$1,$4,$5*
1,1,$1+$1,$6,$7*
1,1,$1+$1,$8,$9*
0 Add four rect primitives between the rounded corners*
20,1,$1+$1,$2,$3,$4,$5,0*
20,1,$1+$1,$4,$5,$6,$7,0*
20,1,$1+$1,$6,$7,$8,$9,0*
20,1,$1+$1,$8,$9,$2,$3,0*%
G04 Aperture macros list end*
%ADD10C,0.100000*%
%ADD11R,1.500000X1.500000*%
%ADD12C,1.500000*%
%ADD13C,1.400000*%
%ADD14O,1.400000X1.400000*%
%ADD15R,1.600000X1.600000*%
%ADD16O,1.600000X1.600000*%
%ADD17R,1.800000X1.800000*%
%ADD18C,1.800000*%
%ADD19C,4.000000*%
%ADD20C,1.620000*%
%ADD21R,1.700000X1.700000*%
%ADD22O,1.700000X1.700000*%
%ADD23RoundRect,0.102000X-0.654000X-0.654000X0.654000X-0.654000X0.654000X0.654000X-0.654000X0.654000X0*%
%ADD24C,1.512000*%
%ADD25RoundRect,0.250000X0.600000X0.750000X-0.600000X0.750000X-0.600000X-0.750000X0.600000X-0.750000X0*%
%ADD26O,1.700000X2.000000*%
G04 APERTURE END LIST*
D10*
X140910791Y-76605714D02*
X140910791Y-117605714D01*
X136910791Y-127000000D01*
X132000000Y-119000000D01*
X132337400Y-76352500D01*
X140910791Y-76605714D01*
G36*
X140910791Y-76605714D02*
G01*
X140910791Y-117605714D01*
X136910791Y-127000000D01*
X132000000Y-119000000D01*
X132337400Y-76352500D01*
X140910791Y-76605714D01*
G37*
X153790104Y-117613354D02*
X148790104Y-127536867D01*
X143790104Y-118536867D01*
X143790104Y-76536867D01*
X152790104Y-76536867D01*
X153790104Y-117613354D01*
G36*
X153790104Y-117613354D02*
G01*
X148790104Y-127536867D01*
X143790104Y-118536867D01*
X143790104Y-76536867D01*
X152790104Y-76536867D01*
X153790104Y-117613354D01*
G37*
D11*
%TO.C,Q1*%
X119058001Y-105000000D03*
D12*
X121598001Y-105000000D03*
X124138001Y-105000000D03*
%TD*%
D13*
%TO.C,R6*%
X107518001Y-106000000D03*
D14*
X115138001Y-106000000D03*
%TD*%
D13*
%TO.C,R4*%
X107518001Y-100000000D03*
D14*
X115138001Y-100000000D03*
%TD*%
D15*
%TO.C,D5*%
X107518001Y-113000000D03*
D16*
X115138001Y-113000000D03*
%TD*%
D17*
%TO.C,D1*%
X120598001Y-82000000D03*
D18*
X123138001Y-82000000D03*
%TD*%
D19*
%TO.C,H3*%
X93938001Y-122400000D03*
%TD*%
%TO.C,H1*%
X127138001Y-68700000D03*
%TD*%
D17*
%TO.C,D3*%
X120598001Y-98000000D03*
D18*
X123138001Y-98000000D03*
%TD*%
D20*
%TO.C,RV2*%
X99138001Y-95500000D03*
X104138001Y-93000000D03*
X99138001Y-90500000D03*
%TD*%
D17*
%TO.C,D4*%
X120598001Y-74000000D03*
D18*
X123138001Y-74000000D03*
%TD*%
D19*
%TO.C,H4*%
X127638001Y-122400000D03*
%TD*%
D20*
%TO.C,RV3*%
X99138001Y-104500000D03*
X104138001Y-102000000D03*
X99138001Y-99500000D03*
%TD*%
D21*
%TO.C,J3*%
X110598001Y-118000000D03*
D22*
X113138001Y-118000000D03*
%TD*%
D23*
%TO.C,S1*%
X99138001Y-108000000D03*
D24*
X101138001Y-108000000D03*
X103138001Y-108000000D03*
X99138001Y-113000000D03*
X101138001Y-113000000D03*
X103138001Y-113000000D03*
%TD*%
D20*
%TO.C,RV1*%
X99138001Y-86500000D03*
X104138001Y-84000000D03*
X99138001Y-81500000D03*
%TD*%
D21*
%TO.C,J2*%
X98138001Y-118000000D03*
D22*
X100678001Y-118000000D03*
X103218001Y-118000000D03*
%TD*%
D15*
%TO.C,D6*%
X107518001Y-110000000D03*
D16*
X115138001Y-110000000D03*
%TD*%
D13*
%TO.C,R3*%
X107518001Y-97000000D03*
D14*
X115138001Y-97000000D03*
%TD*%
D19*
%TO.C,H2*%
X94138001Y-68700000D03*
%TD*%
D11*
%TO.C,Q2*%
X119058001Y-111000000D03*
D12*
X121598001Y-111000000D03*
X124138001Y-111000000D03*
%TD*%
D13*
%TO.C,R5*%
X107518001Y-103000000D03*
D14*
X115138001Y-103000000D03*
%TD*%
D22*
%TO.C,J4*%
X146000000Y-68352500D03*
X143460000Y-68352500D03*
D21*
X140920000Y-68352500D03*
%TD*%
D20*
%TO.C,RV4*%
X99138001Y-77500000D03*
X104138001Y-75000000D03*
X99138001Y-72500000D03*
%TD*%
D25*
%TO.C,J1*%
X123138001Y-117000000D03*
D26*
X120638001Y-117000000D03*
%TD*%
D15*
%TO.C,U1*%
X108138001Y-72000000D03*
D16*
X108138001Y-74540000D03*
X108138001Y-77080000D03*
X108138001Y-79620000D03*
X108138001Y-82160000D03*
X108138001Y-84700000D03*
X108138001Y-87240000D03*
X115758001Y-87240000D03*
X115758001Y-84700000D03*
X115758001Y-82160000D03*
X115758001Y-79620000D03*
X115758001Y-77080000D03*
X115758001Y-74540000D03*
X115758001Y-72000000D03*
%TD*%
D14*
%TO.C,R1*%
X115138001Y-94000000D03*
D13*
X107518001Y-94000000D03*
%TD*%
%TO.C,R2*%
X107518001Y-91000000D03*
D14*
X115138001Y-91000000D03*
%TD*%
D17*
%TO.C,D2*%
X120598001Y-90000000D03*
D18*
X123138001Y-90000000D03*
%TD*%
D13*
%TO.C,R7*%
X150620000Y-71752500D03*
D14*
X143000000Y-71752500D03*
%TD*%
M02*
