%TF.GenerationSoftware,KiCad,Pcbnew,8.0.5*%
%TF.CreationDate,2024-10-17T14:29:37+05:30*%
%TF.ProjectId,soil_moisture,736f696c-5f6d-46f6-9973-747572652e6b,rev?*%
%TF.SameCoordinates,Original*%
%TF.FileFunction,Copper,L1,Top*%
%TF.FilePolarity,Positive*%
%FSLAX46Y46*%
G04 Gerber Fmt 4.6, Leading zero omitted, Abs format (unit mm)*
G04 Created by KiCad (PCBNEW 8.0.5) date 2024-10-17 14:29:37*
%MOMM*%
%LPD*%
G01*
G04 APERTURE LIST*
G04 Aperture macros list*
%AMRoundRect*
0 Rectangle with rounded corners*
0 $1 Rounding radius*
0 $2 $3 $4 $5 $6 $7 $8 $9 X,Y pos of 4 corners*
0 Add a 4 corners polygon primitive as box body*
4,1,4,$2,$3,$4,$5,$6,$7,$8,$9,$2,$3,0*
0 Add four circle primitives for the rounded corners*
1,1,$1+$1,$2,$3*
1,1,$1+$1,$4,$5*
1,1,$1+$1,$6,$7*
1,1,$1+$1,$8,$9*
0 Add four rect primitives between the rounded corners*
20,1,$1+$1,$2,$3,$4,$5,0*
20,1,$1+$1,$4,$5,$6,$7,0*
20,1,$1+$1,$6,$7,$8,$9,0*
20,1,$1+$1,$8,$9,$2,$3,0*%
G04 Aperture macros list end*
%TA.AperFunction,ComponentPad*%
%ADD10R,1.500000X1.500000*%
%TD*%
%TA.AperFunction,ComponentPad*%
%ADD11C,1.500000*%
%TD*%
%TA.AperFunction,ComponentPad*%
%ADD12C,1.400000*%
%TD*%
%TA.AperFunction,ComponentPad*%
%ADD13O,1.400000X1.400000*%
%TD*%
%TA.AperFunction,ComponentPad*%
%ADD14R,1.600000X1.600000*%
%TD*%
%TA.AperFunction,ComponentPad*%
%ADD15O,1.600000X1.600000*%
%TD*%
%TA.AperFunction,ComponentPad*%
%ADD16R,1.800000X1.800000*%
%TD*%
%TA.AperFunction,ComponentPad*%
%ADD17C,1.800000*%
%TD*%
%TA.AperFunction,ComponentPad*%
%ADD18C,1.620000*%
%TD*%
%TA.AperFunction,ComponentPad*%
%ADD19R,1.700000X1.700000*%
%TD*%
%TA.AperFunction,ComponentPad*%
%ADD20O,1.700000X1.700000*%
%TD*%
%TA.AperFunction,ComponentPad*%
%ADD21R,1.308000X1.308000*%
%TD*%
%TA.AperFunction,ComponentPad*%
%ADD22C,1.308000*%
%TD*%
%TA.AperFunction,ComponentPad*%
%ADD23RoundRect,0.250000X0.600000X0.750000X-0.600000X0.750000X-0.600000X-0.750000X0.600000X-0.750000X0*%
%TD*%
%TA.AperFunction,ComponentPad*%
%ADD24O,1.700000X2.000000*%
%TD*%
%TA.AperFunction,Conductor*%
%ADD25C,0.254000*%
%TD*%
%TA.AperFunction,Conductor*%
%ADD26C,1.905000*%
%TD*%
%TA.AperFunction,Conductor*%
%ADD27C,0.200000*%
%TD*%
G04 APERTURE END LIST*
D10*
%TO.P,Q1,1,C*%
%TO.N,Net-(D5-A)*%
X119058001Y-105000000D03*
D11*
%TO.P,Q1,2,B*%
%TO.N,Net-(Q1-B)*%
X121598001Y-105000000D03*
%TO.P,Q1,3,E*%
%TO.N,Net-(D1-K)*%
X124138001Y-105000000D03*
%TD*%
D12*
%TO.P,R6,1*%
%TO.N,Net-(R3-Pad2)*%
X107518001Y-106000000D03*
D13*
%TO.P,R6,2*%
%TO.N,Net-(Q2-B)*%
X115138001Y-106000000D03*
%TD*%
D12*
%TO.P,R4,1*%
%TO.N,Net-(D3-A)*%
X107518001Y-100000000D03*
D13*
%TO.P,R4,2*%
%TO.N,Net-(R4-Pad2)*%
X115138001Y-100000000D03*
%TD*%
D14*
%TO.P,D5,1,K*%
%TO.N,Net-(D5-K)*%
X107518001Y-113000000D03*
D15*
%TO.P,D5,2,A*%
%TO.N,Net-(D5-A)*%
X115138001Y-113000000D03*
%TD*%
D16*
%TO.P,D1,1,K*%
%TO.N,Net-(D1-K)*%
X120598001Y-82000000D03*
D17*
%TO.P,D1,2,A*%
%TO.N,Net-(D1-A)*%
X123138001Y-82000000D03*
%TD*%
D16*
%TO.P,D3,1,K*%
%TO.N,Net-(D1-K)*%
X120598001Y-98000000D03*
D17*
%TO.P,D3,2,A*%
%TO.N,Net-(D3-A)*%
X123138001Y-98000000D03*
%TD*%
D18*
%TO.P,RV2,1,1*%
%TO.N,Net-(D5-K)*%
X99138001Y-95500000D03*
%TO.P,RV2,2,2*%
%TO.N,Net-(U1C--)*%
X104138001Y-93000000D03*
%TO.P,RV2,3,3*%
%TO.N,Net-(D1-K)*%
X99138001Y-90500000D03*
%TD*%
D16*
%TO.P,D4,1,K*%
%TO.N,Net-(D1-K)*%
X120598001Y-74000000D03*
D17*
%TO.P,D4,2,A*%
%TO.N,Net-(D4-A)*%
X123138001Y-74000000D03*
%TD*%
D18*
%TO.P,RV3,1,1*%
%TO.N,Net-(D5-K)*%
X99138001Y-104500000D03*
%TO.P,RV3,2,2*%
%TO.N,Net-(U1D--)*%
X104138001Y-102000000D03*
%TO.P,RV3,3,3*%
%TO.N,Net-(D1-K)*%
X99138001Y-99500000D03*
%TD*%
D19*
%TO.P,J3,1,Pin_1*%
%TO.N,Net-(D5-K)*%
X110598001Y-118000000D03*
D20*
%TO.P,J3,2,Pin_2*%
%TO.N,Net-(D5-A)*%
X113138001Y-118000000D03*
%TD*%
D21*
%TO.P,S1,1*%
%TO.N,Net-(D5-K)*%
X99138001Y-108000000D03*
D22*
%TO.P,S1,2*%
%TO.N,Net-(J1-Pin_2)*%
X101138001Y-108000000D03*
%TO.P,S1,3*%
%TO.N,unconnected-(S1-Pad3)*%
X103138001Y-108000000D03*
%TO.P,S1,4*%
%TO.N,unconnected-(S1-Pad4)*%
X99138001Y-113000000D03*
%TO.P,S1,5*%
%TO.N,unconnected-(S1-Pad5)*%
X101138001Y-113000000D03*
%TO.P,S1,6*%
%TO.N,unconnected-(S1-Pad6)*%
X103138001Y-113000000D03*
%TD*%
D18*
%TO.P,RV1,1,1*%
%TO.N,Net-(D5-K)*%
X99138001Y-86500000D03*
%TO.P,RV1,2,2*%
%TO.N,Net-(U1B--)*%
X104138001Y-84000000D03*
%TO.P,RV1,3,3*%
%TO.N,Net-(D1-K)*%
X99138001Y-81500000D03*
%TD*%
D19*
%TO.P,J2,1,Pin_1*%
%TO.N,Net-(D5-K)*%
X98138001Y-118000000D03*
D20*
%TO.P,J2,2,Pin_2*%
%TO.N,Net-(D1-K)*%
X100678001Y-118000000D03*
%TO.P,J2,3,Pin_3*%
%TO.N,Net-(J2-Pin_3)*%
X103218001Y-118000000D03*
%TD*%
D14*
%TO.P,D6,1,K*%
%TO.N,Net-(D5-A)*%
X107518001Y-110000000D03*
D15*
%TO.P,D6,2,A*%
%TO.N,Net-(D1-K)*%
X115138001Y-110000000D03*
%TD*%
D12*
%TO.P,R3,1*%
%TO.N,Net-(D2-A)*%
X107518001Y-97000000D03*
D13*
%TO.P,R3,2*%
%TO.N,Net-(R3-Pad2)*%
X115138001Y-97000000D03*
%TD*%
D10*
%TO.P,Q2,1,C*%
%TO.N,Net-(D5-A)*%
X119058001Y-111000000D03*
D11*
%TO.P,Q2,2,B*%
%TO.N,Net-(Q2-B)*%
X121598001Y-111000000D03*
%TO.P,Q2,3,E*%
%TO.N,Net-(D1-K)*%
X124138001Y-111000000D03*
%TD*%
D12*
%TO.P,R5,1*%
%TO.N,Net-(R2-Pad2)*%
X107518001Y-103000000D03*
D13*
%TO.P,R5,2*%
%TO.N,Net-(Q1-B)*%
X115138001Y-103000000D03*
%TD*%
D20*
%TO.P,J4,3,Pin_3*%
%TO.N,unconnected-(J4-Pin_2-Pad2)*%
X146000000Y-68352500D03*
%TO.P,J4,2,Pin_2*%
X143460000Y-68352500D03*
D19*
%TO.P,J4,1,Pin_1*%
%TO.N,Net-(J4-Pin_1)*%
X140920000Y-68352500D03*
%TD*%
D18*
%TO.P,RV4,1,1*%
%TO.N,Net-(D5-K)*%
X99138001Y-77500000D03*
%TO.P,RV4,2,2*%
%TO.N,Net-(U1A--)*%
X104138001Y-75000000D03*
%TO.P,RV4,3,3*%
%TO.N,Net-(D1-K)*%
X99138001Y-72500000D03*
%TD*%
D23*
%TO.P,J1,1,Pin_1*%
%TO.N,Net-(D1-K)*%
X123138001Y-117000000D03*
D24*
%TO.P,J1,2,Pin_2*%
%TO.N,Net-(J1-Pin_2)*%
X120638001Y-117000000D03*
%TD*%
D14*
%TO.P,U1,1*%
%TO.N,Net-(R2-Pad2)*%
X108138001Y-72000000D03*
D15*
%TO.P,U1,2,-*%
%TO.N,Net-(U1A--)*%
X108138001Y-74540000D03*
%TO.P,U1,3,+*%
%TO.N,Net-(J2-Pin_3)*%
X108138001Y-77080000D03*
%TO.P,U1,4,V+*%
%TO.N,Net-(D5-K)*%
X108138001Y-79620000D03*
%TO.P,U1,5,+*%
%TO.N,Net-(J2-Pin_3)*%
X108138001Y-82160000D03*
%TO.P,U1,6,-*%
%TO.N,Net-(U1B--)*%
X108138001Y-84700000D03*
%TO.P,U1,7*%
%TO.N,Net-(R1-Pad2)*%
X108138001Y-87240000D03*
%TO.P,U1,8*%
%TO.N,Net-(R3-Pad2)*%
X115758001Y-87240000D03*
%TO.P,U1,9,-*%
%TO.N,Net-(U1C--)*%
X115758001Y-84700000D03*
%TO.P,U1,10,+*%
%TO.N,Net-(J2-Pin_3)*%
X115758001Y-82160000D03*
%TO.P,U1,11,V-*%
%TO.N,Net-(D1-K)*%
X115758001Y-79620000D03*
%TO.P,U1,12,+*%
%TO.N,Net-(J2-Pin_3)*%
X115758001Y-77080000D03*
%TO.P,U1,13,-*%
%TO.N,Net-(U1D--)*%
X115758001Y-74540000D03*
%TO.P,U1,14*%
%TO.N,Net-(R4-Pad2)*%
X115758001Y-72000000D03*
%TD*%
D13*
%TO.P,R1,2*%
%TO.N,Net-(R1-Pad2)*%
X115138001Y-94000000D03*
D12*
%TO.P,R1,1*%
%TO.N,Net-(D1-A)*%
X107518001Y-94000000D03*
%TD*%
%TO.P,R2,1*%
%TO.N,Net-(D4-A)*%
X107518001Y-91000000D03*
D13*
%TO.P,R2,2*%
%TO.N,Net-(R2-Pad2)*%
X115138001Y-91000000D03*
%TD*%
D16*
%TO.P,D2,1,K*%
%TO.N,Net-(D1-K)*%
X120598001Y-90000000D03*
D17*
%TO.P,D2,2,A*%
%TO.N,Net-(D2-A)*%
X123138001Y-90000000D03*
%TD*%
D12*
%TO.P,R7,1*%
%TO.N,unconnected-(J4-Pin_2-Pad2)*%
X150620000Y-71752500D03*
D13*
%TO.P,R7,2*%
%TO.N,Net-(J4-Pin_1)*%
X143000000Y-71752500D03*
%TD*%
D25*
%TO.N,Net-(D5-K)*%
X97000000Y-97638001D02*
X99138001Y-95500000D01*
X97000000Y-102361999D02*
X97000000Y-97638001D01*
X99138001Y-104500000D02*
X97000000Y-102361999D01*
X97000000Y-93361999D02*
X99138001Y-95500000D01*
X97000000Y-88638001D02*
X97000000Y-93361999D01*
X99138001Y-86500000D02*
X97000000Y-88638001D01*
%TO.N,Net-(D1-K)*%
X101000000Y-92361999D02*
X99138001Y-90500000D01*
X101000000Y-97638001D02*
X101000000Y-92361999D01*
X99138001Y-99500000D02*
X101000000Y-97638001D01*
X101000000Y-88638001D02*
X99138001Y-90500000D01*
X101000000Y-83361999D02*
X101000000Y-88638001D01*
X99138001Y-81500000D02*
X101000000Y-83361999D01*
X101000000Y-79638001D02*
X99138001Y-81500000D01*
X101000000Y-74361999D02*
X101000000Y-79638001D01*
X99138001Y-72500000D02*
X101000000Y-74361999D01*
%TO.N,Net-(J2-Pin_3)*%
X102138101Y-115768400D02*
X103218001Y-116848300D01*
X102138101Y-88159900D02*
X102138101Y-115768400D01*
X103218001Y-116848300D02*
X103218001Y-118000000D01*
X108138001Y-82160000D02*
X102138101Y-88159900D01*
X110000000Y-79000000D02*
X110000000Y-80184900D01*
X110000000Y-79000000D02*
X108138001Y-77138001D01*
X108138001Y-77138001D02*
X108138001Y-77080000D01*
X108138001Y-82046899D02*
X110000000Y-80184900D01*
X108138001Y-82160000D02*
X108138001Y-82046899D01*
%TO.N,Net-(U1D--)*%
X115620301Y-74677700D02*
X115758001Y-74540000D01*
X115620301Y-75641700D02*
X115620301Y-74677700D01*
%TO.N,Net-(J2-Pin_3)*%
X115877801Y-77199800D02*
X115758001Y-77080000D01*
X115877801Y-78181700D02*
X115877801Y-77199800D01*
X115877801Y-82040200D02*
X115758001Y-82160000D01*
X115877801Y-81058300D02*
X115877801Y-82040200D01*
%TO.N,Net-(R3-Pad2)*%
X117138001Y-93998300D02*
X117138001Y-88620000D01*
X115138001Y-95998300D02*
X117138001Y-93998300D01*
X117138001Y-88620000D02*
X115758001Y-87240000D01*
X115138001Y-97000000D02*
X115138001Y-95998300D01*
%TO.N,Net-(R4-Pad2)*%
X116138001Y-72000000D02*
X115758001Y-72000000D01*
X118138001Y-74000000D02*
X116138001Y-72000000D01*
X118138001Y-97000000D02*
X118138001Y-74000000D01*
X115138001Y-100000000D02*
X118138001Y-97000000D01*
%TO.N,Net-(R2-Pad2)*%
X113138001Y-97380000D02*
X107518001Y-103000000D01*
X113138001Y-93000000D02*
X113138001Y-97380000D01*
X115138001Y-91000000D02*
X113138001Y-93000000D01*
%TO.N,Net-(D5-K)*%
X110598001Y-118000000D02*
X107518001Y-114920000D01*
X107518001Y-114920000D02*
X107518001Y-113000000D01*
%TO.N,Net-(D1-K)*%
X100678001Y-116848300D02*
X100678001Y-118000000D01*
X100138001Y-116308300D02*
X100678001Y-116848300D01*
X100283901Y-105854100D02*
X100138001Y-106000000D01*
X100138001Y-106000000D02*
X100138001Y-116308300D01*
X99138001Y-99500000D02*
X100283901Y-100645900D01*
X100283901Y-100645900D02*
X100283901Y-105854100D01*
%TO.N,Net-(R2-Pad2)*%
X111138001Y-85998300D02*
X111138001Y-75000000D01*
X111138001Y-75000000D02*
X108138001Y-72000000D01*
X115138001Y-89998300D02*
X111138001Y-85998300D01*
X115138001Y-91000000D02*
X115138001Y-89998300D01*
%TO.N,Net-(J4-Pin_1)*%
X140279556Y-70063720D02*
X141968336Y-71752500D01*
X141968336Y-71752500D02*
X143000000Y-71752500D01*
%TO.N,unconnected-(J4-Pin_2-Pad2)*%
X148000000Y-68352500D02*
X150620000Y-70972500D01*
X150620000Y-70972500D02*
X150620000Y-71752500D01*
X146000000Y-68352500D02*
X148000000Y-68352500D01*
X145764556Y-68587944D02*
X146000000Y-68352500D01*
X145764556Y-68658720D02*
X145764556Y-68587944D01*
%TO.N,Net-(D1-K)*%
X124138001Y-116000000D02*
X124138001Y-111000000D01*
X120598001Y-90000000D02*
X120598001Y-82000000D01*
X123138001Y-117000000D02*
X124138001Y-116000000D01*
X120598001Y-90000000D02*
X120598001Y-98000000D01*
X120598001Y-101460000D02*
X124138001Y-105000000D01*
X120598001Y-98000000D02*
X120598001Y-101460000D01*
%TO.N,Net-(D5-A)*%
X113138001Y-118000000D02*
X113138001Y-116848300D01*
X115138001Y-114848300D02*
X115138001Y-113000000D01*
X113138001Y-116848300D02*
X115138001Y-114848300D01*
%TO.N,Net-(U1D--)*%
X114631601Y-88383000D02*
X116187701Y-89939100D01*
X115620301Y-75641700D02*
X114631601Y-76630400D01*
X114136301Y-93578200D02*
X114136301Y-97856600D01*
X116187701Y-89939100D02*
X116187701Y-91526800D01*
X114136301Y-97856600D02*
X107939101Y-104053800D01*
X116187701Y-91526800D02*
X114136301Y-93578200D01*
X114631601Y-76630400D02*
X114631601Y-88383000D01*
D26*
%TO.N,Net-(J4-Pin_1)*%
X140684556Y-68658720D02*
X140684556Y-69658720D01*
X135684556Y-74658720D02*
X135684556Y-118658720D01*
X140684556Y-69658720D02*
X135684556Y-74658720D01*
D27*
X141409556Y-68158720D02*
X141184556Y-68158720D01*
X140684556Y-68658720D02*
X140874556Y-68658720D01*
D25*
%TO.N,Net-(Q2-B)*%
X115138001Y-106000000D02*
X116598001Y-106000000D01*
X116598001Y-106000000D02*
X121598001Y-111000000D01*
%TO.N,Net-(R2-Pad2)*%
X115138001Y-91500800D02*
X115138001Y-91000000D01*
%TO.N,Net-(J2-Pin_3)*%
X115877801Y-81058300D02*
X116859701Y-80076400D01*
X116859701Y-79163600D02*
X115877801Y-78181700D01*
X116859701Y-80076400D02*
X116859701Y-79163600D01*
%TO.N,Net-(R3-Pad2)*%
X115138001Y-97000000D02*
X115138001Y-98380000D01*
X115138001Y-98380000D02*
X107518001Y-106000000D01*
D26*
%TO.N,unconnected-(J4-Pin_2-Pad2)*%
X143460000Y-68812500D02*
X149000000Y-74352500D01*
X143460000Y-68352500D02*
X143460000Y-68812500D01*
X149000000Y-74352500D02*
X149000000Y-118352500D01*
D25*
%TO.N,Net-(U1D--)*%
X106191801Y-104053800D02*
X104138001Y-102000000D01*
X107939101Y-104053800D02*
X106191801Y-104053800D01*
%TD*%
M02*
