%TF.GenerationSoftware,KiCad,Pcbnew,8.0.5*%
%TF.CreationDate,2024-10-17T14:29:37+05:30*%
%TF.ProjectId,soil_moisture,736f696c-5f6d-46f6-9973-747572652e6b,rev?*%
%TF.SameCoordinates,Original*%
%TF.FileFunction,Legend,Top*%
%TF.FilePolarity,Positive*%
%FSLAX46Y46*%
G04 Gerber Fmt 4.6, Leading zero omitted, Abs format (unit mm)*
G04 Created by KiCad (PCBNEW 8.0.5) date 2024-10-17 14:29:37*
%MOMM*%
%LPD*%
G01*
G04 APERTURE LIST*
%ADD10C,0.150000*%
%ADD11C,0.100000*%
%ADD12C,0.120000*%
%ADD13C,0.127000*%
%ADD14C,0.200000*%
G04 APERTURE END LIST*
D10*
X106714285Y-121454819D02*
X106142857Y-121454819D01*
X106428571Y-121454819D02*
X106428571Y-120454819D01*
X106428571Y-120454819D02*
X106333333Y-120597676D01*
X106333333Y-120597676D02*
X106238095Y-120692914D01*
X106238095Y-120692914D02*
X106142857Y-120740533D01*
X107047619Y-120454819D02*
X107714285Y-120454819D01*
X107714285Y-120454819D02*
X107285714Y-121454819D01*
X108095238Y-121073866D02*
X108857143Y-121073866D01*
X109857142Y-121454819D02*
X109285714Y-121454819D01*
X109571428Y-121454819D02*
X109571428Y-120454819D01*
X109571428Y-120454819D02*
X109476190Y-120597676D01*
X109476190Y-120597676D02*
X109380952Y-120692914D01*
X109380952Y-120692914D02*
X109285714Y-120740533D01*
X110476190Y-120454819D02*
X110571428Y-120454819D01*
X110571428Y-120454819D02*
X110666666Y-120502438D01*
X110666666Y-120502438D02*
X110714285Y-120550057D01*
X110714285Y-120550057D02*
X110761904Y-120645295D01*
X110761904Y-120645295D02*
X110809523Y-120835771D01*
X110809523Y-120835771D02*
X110809523Y-121073866D01*
X110809523Y-121073866D02*
X110761904Y-121264342D01*
X110761904Y-121264342D02*
X110714285Y-121359580D01*
X110714285Y-121359580D02*
X110666666Y-121407200D01*
X110666666Y-121407200D02*
X110571428Y-121454819D01*
X110571428Y-121454819D02*
X110476190Y-121454819D01*
X110476190Y-121454819D02*
X110380952Y-121407200D01*
X110380952Y-121407200D02*
X110333333Y-121359580D01*
X110333333Y-121359580D02*
X110285714Y-121264342D01*
X110285714Y-121264342D02*
X110238095Y-121073866D01*
X110238095Y-121073866D02*
X110238095Y-120835771D01*
X110238095Y-120835771D02*
X110285714Y-120645295D01*
X110285714Y-120645295D02*
X110333333Y-120550057D01*
X110333333Y-120550057D02*
X110380952Y-120502438D01*
X110380952Y-120502438D02*
X110476190Y-120454819D01*
X111238095Y-121073866D02*
X112000000Y-121073866D01*
X112428571Y-120550057D02*
X112476190Y-120502438D01*
X112476190Y-120502438D02*
X112571428Y-120454819D01*
X112571428Y-120454819D02*
X112809523Y-120454819D01*
X112809523Y-120454819D02*
X112904761Y-120502438D01*
X112904761Y-120502438D02*
X112952380Y-120550057D01*
X112952380Y-120550057D02*
X112999999Y-120645295D01*
X112999999Y-120645295D02*
X112999999Y-120740533D01*
X112999999Y-120740533D02*
X112952380Y-120883390D01*
X112952380Y-120883390D02*
X112380952Y-121454819D01*
X112380952Y-121454819D02*
X112999999Y-121454819D01*
X113619047Y-120454819D02*
X113714285Y-120454819D01*
X113714285Y-120454819D02*
X113809523Y-120502438D01*
X113809523Y-120502438D02*
X113857142Y-120550057D01*
X113857142Y-120550057D02*
X113904761Y-120645295D01*
X113904761Y-120645295D02*
X113952380Y-120835771D01*
X113952380Y-120835771D02*
X113952380Y-121073866D01*
X113952380Y-121073866D02*
X113904761Y-121264342D01*
X113904761Y-121264342D02*
X113857142Y-121359580D01*
X113857142Y-121359580D02*
X113809523Y-121407200D01*
X113809523Y-121407200D02*
X113714285Y-121454819D01*
X113714285Y-121454819D02*
X113619047Y-121454819D01*
X113619047Y-121454819D02*
X113523809Y-121407200D01*
X113523809Y-121407200D02*
X113476190Y-121359580D01*
X113476190Y-121359580D02*
X113428571Y-121264342D01*
X113428571Y-121264342D02*
X113380952Y-121073866D01*
X113380952Y-121073866D02*
X113380952Y-120835771D01*
X113380952Y-120835771D02*
X113428571Y-120645295D01*
X113428571Y-120645295D02*
X113476190Y-120550057D01*
X113476190Y-120550057D02*
X113523809Y-120502438D01*
X113523809Y-120502438D02*
X113619047Y-120454819D01*
X114333333Y-120550057D02*
X114380952Y-120502438D01*
X114380952Y-120502438D02*
X114476190Y-120454819D01*
X114476190Y-120454819D02*
X114714285Y-120454819D01*
X114714285Y-120454819D02*
X114809523Y-120502438D01*
X114809523Y-120502438D02*
X114857142Y-120550057D01*
X114857142Y-120550057D02*
X114904761Y-120645295D01*
X114904761Y-120645295D02*
X114904761Y-120740533D01*
X114904761Y-120740533D02*
X114857142Y-120883390D01*
X114857142Y-120883390D02*
X114285714Y-121454819D01*
X114285714Y-121454819D02*
X114904761Y-121454819D01*
X115761904Y-120788152D02*
X115761904Y-121454819D01*
X115523809Y-120407200D02*
X115285714Y-121121485D01*
X115285714Y-121121485D02*
X115904761Y-121121485D01*
D11*
X126413789Y-98560896D02*
X127868001Y-98560896D01*
X126300895Y-90370000D02*
X127975107Y-90370000D01*
X126230895Y-98240896D02*
X128045107Y-98240896D01*
X126351951Y-97550896D02*
X127894050Y-97550896D01*
X126230895Y-89817842D02*
X127108001Y-87783501D01*
D10*
X115418001Y-117925400D02*
X115418001Y-117225400D01*
D11*
X126230895Y-89907842D02*
X128045107Y-89907842D01*
D10*
X106138001Y-118999998D02*
X106138001Y-117000000D01*
D11*
X126260895Y-98340896D02*
X128028712Y-98340896D01*
X126368001Y-82590000D02*
X127885107Y-82590000D01*
D10*
X105238001Y-116999999D02*
X105238001Y-118999999D01*
D11*
X126652297Y-98840896D02*
X127623705Y-98840896D01*
X126638001Y-115000000D02*
X128138001Y-115000000D01*
X128138001Y-117500000D01*
X126638001Y-117500000D01*
X126638001Y-115000000D01*
X126230895Y-82080000D02*
X128045107Y-82080000D01*
X127725107Y-97290896D02*
X127123199Y-97290896D01*
X127108001Y-95783501D01*
X127725107Y-97290896D01*
G36*
X127725107Y-97290896D02*
G01*
X127123199Y-97290896D01*
X127108001Y-95783501D01*
X127725107Y-97290896D01*
G37*
X126521290Y-89190000D02*
X127725107Y-89190000D01*
X126230895Y-98060896D02*
X128045107Y-98060896D01*
X126339451Y-89690000D02*
X127936550Y-89690000D01*
X126230895Y-98140896D02*
X128045107Y-98140896D01*
X126230895Y-90080000D02*
X128045107Y-90080000D01*
X126838001Y-82900000D02*
X127409409Y-82900000D01*
X126230895Y-90180000D02*
X128045107Y-90180000D01*
X127135070Y-97290717D02*
X126533162Y-97290717D01*
X127108001Y-95783501D01*
X127135070Y-97290717D01*
G36*
X127135070Y-97290717D02*
G01*
X126533162Y-97290717D01*
X127108001Y-95783501D01*
X127135070Y-97290717D01*
G37*
X126467810Y-89290000D02*
X127789909Y-89290000D01*
X128045107Y-89817842D02*
G75*
G02*
X126230895Y-89817842I-907106J-243054D01*
G01*
X126892297Y-98960896D02*
X127398705Y-98960896D01*
X128045107Y-81817842D02*
G75*
G02*
X126230895Y-81817842I-907106J-243054D01*
G01*
X126230895Y-75000000D02*
X127108001Y-72965659D01*
X127138001Y-114500000D02*
X127638001Y-114500000D01*
X127638001Y-115000000D01*
X127138001Y-115000000D01*
X127138001Y-114500000D01*
G36*
X127138001Y-114500000D02*
G01*
X127638001Y-114500000D01*
X127638001Y-115000000D01*
X127138001Y-115000000D01*
X127138001Y-114500000D01*
G37*
X126379448Y-90590000D02*
X127896554Y-90590000D01*
X126230895Y-81817842D02*
X128045107Y-81817842D01*
X126339451Y-89740000D02*
X127936550Y-89740000D01*
X105713001Y-116599999D02*
X105713001Y-116999999D01*
X126852297Y-90900000D02*
X127423705Y-90900000D01*
X126300895Y-90460000D02*
X127975107Y-90460000D01*
X126326951Y-89590000D02*
X127924050Y-89590000D01*
X126300895Y-98430896D02*
X127975107Y-98430896D01*
X128045107Y-75000000D02*
G75*
G02*
X126230895Y-75000000I-907106J-243054D01*
G01*
X95738001Y-111250000D02*
X97138001Y-111250000D01*
X126462297Y-90690000D02*
X127813705Y-90690000D01*
X126652297Y-82860000D02*
X127623705Y-82860000D01*
X128045107Y-97817842D02*
G75*
G02*
X126230895Y-97817842I-907106J-243054D01*
G01*
X126426951Y-97450896D02*
X127869050Y-97450896D01*
X127108001Y-95783501D02*
X128045107Y-97817842D01*
X126552297Y-90780000D02*
X127723705Y-90780000D01*
X126230895Y-81817842D02*
X127108001Y-79783501D01*
X126562297Y-82780000D02*
X127733705Y-82780000D01*
X126456951Y-89390000D02*
X127829050Y-89390000D01*
X126652297Y-90860000D02*
X127623705Y-90860000D01*
X126413789Y-90500000D02*
X127968001Y-90500000D01*
X126521290Y-97290896D02*
X127725107Y-97290896D01*
D10*
X115038001Y-118000000D02*
X115788001Y-118000000D01*
X115788001Y-119025400D01*
X115038001Y-119025400D01*
X115038001Y-118000000D01*
D11*
X126230895Y-90000000D02*
X128045107Y-90000000D01*
X126230895Y-82000000D02*
X128045107Y-82000000D01*
X126300895Y-82460000D02*
X127975107Y-82460000D01*
X126465146Y-82690000D02*
X127816554Y-82690000D01*
X126309451Y-97800896D02*
X127986550Y-97800896D01*
X127108001Y-72965659D02*
X128045107Y-75000000D01*
X126320895Y-82500000D02*
X127875107Y-82500000D01*
X126467810Y-97350896D02*
X127789909Y-97350896D01*
X126339451Y-97750896D02*
X127936550Y-97750896D01*
X126527297Y-98750896D02*
X127748705Y-98750896D01*
X126772297Y-98920896D02*
X127503705Y-98920896D01*
X126263789Y-97878738D02*
X128038001Y-97878738D01*
X126230895Y-97968738D02*
X128045107Y-97968738D01*
X105488001Y-116599999D02*
X105488001Y-116999999D01*
X126263789Y-89817842D02*
X128038001Y-89817842D01*
X126409448Y-98650896D02*
X127866554Y-98650896D01*
D10*
X105238001Y-116999999D02*
X106138001Y-117000001D01*
D11*
X126320895Y-98520896D02*
X127935107Y-98520896D01*
X126230895Y-97817842D02*
X127108001Y-95783501D01*
X127108001Y-79783501D02*
X128045107Y-81817842D01*
X95738001Y-110000000D02*
X97138001Y-110000000D01*
X97138001Y-112500000D01*
X95738001Y-112500000D01*
X95738001Y-110000000D01*
X126391951Y-89490000D02*
X127854050Y-89490000D01*
X126230895Y-81907842D02*
X128045107Y-81907842D01*
X126230895Y-82280000D02*
X128045107Y-82280000D01*
X96438001Y-110300000D02*
X96438001Y-111000000D01*
X126300895Y-82370000D02*
X127975107Y-82370000D01*
X126230895Y-90280000D02*
X128045107Y-90280000D01*
X96638001Y-111800000D02*
G75*
G02*
X96238001Y-111800000I-200000J0D01*
G01*
X96238001Y-111800000D02*
G75*
G02*
X96638001Y-111800000I200000J0D01*
G01*
X127108001Y-87783501D02*
X128045107Y-89817842D01*
X126326951Y-97650896D02*
X127924050Y-97650896D01*
X126230895Y-82180000D02*
X128045107Y-82180000D01*
X105938001Y-116599999D02*
X105938001Y-116999999D01*
D10*
X146404761Y-72207319D02*
X145833333Y-72207319D01*
X146119047Y-72207319D02*
X146119047Y-71207319D01*
X146119047Y-71207319D02*
X146023809Y-71350176D01*
X146023809Y-71350176D02*
X145928571Y-71445414D01*
X145928571Y-71445414D02*
X145833333Y-71493033D01*
X147023809Y-71207319D02*
X147119047Y-71207319D01*
X147119047Y-71207319D02*
X147214285Y-71254938D01*
X147214285Y-71254938D02*
X147261904Y-71302557D01*
X147261904Y-71302557D02*
X147309523Y-71397795D01*
X147309523Y-71397795D02*
X147357142Y-71588271D01*
X147357142Y-71588271D02*
X147357142Y-71826366D01*
X147357142Y-71826366D02*
X147309523Y-72016842D01*
X147309523Y-72016842D02*
X147261904Y-72112080D01*
X147261904Y-72112080D02*
X147214285Y-72159700D01*
X147214285Y-72159700D02*
X147119047Y-72207319D01*
X147119047Y-72207319D02*
X147023809Y-72207319D01*
X147023809Y-72207319D02*
X146928571Y-72159700D01*
X146928571Y-72159700D02*
X146880952Y-72112080D01*
X146880952Y-72112080D02*
X146833333Y-72016842D01*
X146833333Y-72016842D02*
X146785714Y-71826366D01*
X146785714Y-71826366D02*
X146785714Y-71588271D01*
X146785714Y-71588271D02*
X146833333Y-71397795D01*
X146833333Y-71397795D02*
X146880952Y-71302557D01*
X146880952Y-71302557D02*
X146928571Y-71254938D01*
X146928571Y-71254938D02*
X147023809Y-71207319D01*
X147785714Y-72207319D02*
X147785714Y-71207319D01*
X147880952Y-71826366D02*
X148166666Y-72207319D01*
X148166666Y-71540652D02*
X147785714Y-71921604D01*
X107828476Y-115454819D02*
X107828476Y-114454819D01*
X107828476Y-114454819D02*
X108161809Y-115169104D01*
X108161809Y-115169104D02*
X108495142Y-114454819D01*
X108495142Y-114454819D02*
X108495142Y-115454819D01*
X109399904Y-115454819D02*
X109399904Y-114931009D01*
X109399904Y-114931009D02*
X109352285Y-114835771D01*
X109352285Y-114835771D02*
X109257047Y-114788152D01*
X109257047Y-114788152D02*
X109066571Y-114788152D01*
X109066571Y-114788152D02*
X108971333Y-114835771D01*
X109399904Y-115407200D02*
X109304666Y-115454819D01*
X109304666Y-115454819D02*
X109066571Y-115454819D01*
X109066571Y-115454819D02*
X108971333Y-115407200D01*
X108971333Y-115407200D02*
X108923714Y-115311961D01*
X108923714Y-115311961D02*
X108923714Y-115216723D01*
X108923714Y-115216723D02*
X108971333Y-115121485D01*
X108971333Y-115121485D02*
X109066571Y-115073866D01*
X109066571Y-115073866D02*
X109304666Y-115073866D01*
X109304666Y-115073866D02*
X109399904Y-115026247D01*
X109876095Y-115454819D02*
X109876095Y-114454819D01*
X109971333Y-115073866D02*
X110257047Y-115454819D01*
X110257047Y-114788152D02*
X109876095Y-115169104D01*
X111066571Y-115407200D02*
X110971333Y-115454819D01*
X110971333Y-115454819D02*
X110780857Y-115454819D01*
X110780857Y-115454819D02*
X110685619Y-115407200D01*
X110685619Y-115407200D02*
X110638000Y-115311961D01*
X110638000Y-115311961D02*
X110638000Y-114931009D01*
X110638000Y-114931009D02*
X110685619Y-114835771D01*
X110685619Y-114835771D02*
X110780857Y-114788152D01*
X110780857Y-114788152D02*
X110971333Y-114788152D01*
X110971333Y-114788152D02*
X111066571Y-114835771D01*
X111066571Y-114835771D02*
X111114190Y-114931009D01*
X111114190Y-114931009D02*
X111114190Y-115026247D01*
X111114190Y-115026247D02*
X110638000Y-115121485D01*
X111542762Y-115454819D02*
X111542762Y-114788152D01*
X111542762Y-114978628D02*
X111590381Y-114883390D01*
X111590381Y-114883390D02*
X111638000Y-114835771D01*
X111638000Y-114835771D02*
X111733238Y-114788152D01*
X111733238Y-114788152D02*
X111828476Y-114788152D01*
X112780858Y-114454819D02*
X113114191Y-115454819D01*
X113114191Y-115454819D02*
X113447524Y-114454819D01*
X114161810Y-115407200D02*
X114066572Y-115454819D01*
X114066572Y-115454819D02*
X113876096Y-115454819D01*
X113876096Y-115454819D02*
X113780858Y-115407200D01*
X113780858Y-115407200D02*
X113733239Y-115311961D01*
X113733239Y-115311961D02*
X113733239Y-114931009D01*
X113733239Y-114931009D02*
X113780858Y-114835771D01*
X113780858Y-114835771D02*
X113876096Y-114788152D01*
X113876096Y-114788152D02*
X114066572Y-114788152D01*
X114066572Y-114788152D02*
X114161810Y-114835771D01*
X114161810Y-114835771D02*
X114209429Y-114931009D01*
X114209429Y-114931009D02*
X114209429Y-115026247D01*
X114209429Y-115026247D02*
X113733239Y-115121485D01*
X114638001Y-115454819D02*
X114638001Y-114788152D01*
X114638001Y-114978628D02*
X114685620Y-114883390D01*
X114685620Y-114883390D02*
X114733239Y-114835771D01*
X114733239Y-114835771D02*
X114828477Y-114788152D01*
X114828477Y-114788152D02*
X114923715Y-114788152D01*
X115209430Y-115407200D02*
X115304668Y-115454819D01*
X115304668Y-115454819D02*
X115495144Y-115454819D01*
X115495144Y-115454819D02*
X115590382Y-115407200D01*
X115590382Y-115407200D02*
X115638001Y-115311961D01*
X115638001Y-115311961D02*
X115638001Y-115264342D01*
X115638001Y-115264342D02*
X115590382Y-115169104D01*
X115590382Y-115169104D02*
X115495144Y-115121485D01*
X115495144Y-115121485D02*
X115352287Y-115121485D01*
X115352287Y-115121485D02*
X115257049Y-115073866D01*
X115257049Y-115073866D02*
X115209430Y-114978628D01*
X115209430Y-114978628D02*
X115209430Y-114931009D01*
X115209430Y-114931009D02*
X115257049Y-114835771D01*
X115257049Y-114835771D02*
X115352287Y-114788152D01*
X115352287Y-114788152D02*
X115495144Y-114788152D01*
X115495144Y-114788152D02*
X115590382Y-114835771D01*
X116447525Y-115407200D02*
X116352287Y-115454819D01*
X116352287Y-115454819D02*
X116161811Y-115454819D01*
X116161811Y-115454819D02*
X116066573Y-115407200D01*
X116066573Y-115407200D02*
X116018954Y-115311961D01*
X116018954Y-115311961D02*
X116018954Y-114931009D01*
X116018954Y-114931009D02*
X116066573Y-114835771D01*
X116066573Y-114835771D02*
X116161811Y-114788152D01*
X116161811Y-114788152D02*
X116352287Y-114788152D01*
X116352287Y-114788152D02*
X116447525Y-114835771D01*
X116447525Y-114835771D02*
X116495144Y-114931009D01*
X116495144Y-114931009D02*
X116495144Y-115026247D01*
X116495144Y-115026247D02*
X116018954Y-115121485D01*
X111054667Y-104866033D02*
X110654667Y-104866033D01*
X110854667Y-104866033D02*
X110854667Y-104166033D01*
X110854667Y-104166033D02*
X110788000Y-104266033D01*
X110788000Y-104266033D02*
X110721334Y-104332700D01*
X110721334Y-104332700D02*
X110654667Y-104366033D01*
X111354667Y-104866033D02*
X111354667Y-104166033D01*
X111421334Y-104599366D02*
X111621334Y-104866033D01*
X111621334Y-104399366D02*
X111354667Y-104666033D01*
X93484010Y-115666668D02*
X93484010Y-114714287D01*
X94055439Y-115857144D02*
X92055439Y-115190478D01*
X92055439Y-115190478D02*
X94055439Y-114523811D01*
X92722105Y-113000001D02*
X94055439Y-113000001D01*
X92722105Y-113857144D02*
X93769724Y-113857144D01*
X93769724Y-113857144D02*
X93960201Y-113761906D01*
X93960201Y-113761906D02*
X94055439Y-113571430D01*
X94055439Y-113571430D02*
X94055439Y-113285715D01*
X94055439Y-113285715D02*
X93960201Y-113095239D01*
X93960201Y-113095239D02*
X93864962Y-113000001D01*
X92722105Y-112333334D02*
X92722105Y-111571430D01*
X92055439Y-112047620D02*
X93769724Y-112047620D01*
X93769724Y-112047620D02*
X93960201Y-111952382D01*
X93960201Y-111952382D02*
X94055439Y-111761906D01*
X94055439Y-111761906D02*
X94055439Y-111571430D01*
X94055439Y-110619049D02*
X93960201Y-110809525D01*
X93960201Y-110809525D02*
X93864962Y-110904763D01*
X93864962Y-110904763D02*
X93674486Y-111000001D01*
X93674486Y-111000001D02*
X93103058Y-111000001D01*
X93103058Y-111000001D02*
X92912581Y-110904763D01*
X92912581Y-110904763D02*
X92817343Y-110809525D01*
X92817343Y-110809525D02*
X92722105Y-110619049D01*
X92722105Y-110619049D02*
X92722105Y-110333334D01*
X92722105Y-110333334D02*
X92817343Y-110142858D01*
X92817343Y-110142858D02*
X92912581Y-110047620D01*
X92912581Y-110047620D02*
X93103058Y-109952382D01*
X93103058Y-109952382D02*
X93674486Y-109952382D01*
X93674486Y-109952382D02*
X93864962Y-110047620D01*
X93864962Y-110047620D02*
X93960201Y-110142858D01*
X93960201Y-110142858D02*
X94055439Y-110333334D01*
X94055439Y-110333334D02*
X94055439Y-110619049D01*
X94055439Y-109095239D02*
X92722105Y-109095239D01*
X92912581Y-109095239D02*
X92817343Y-109000001D01*
X92817343Y-109000001D02*
X92722105Y-108809525D01*
X92722105Y-108809525D02*
X92722105Y-108523810D01*
X92722105Y-108523810D02*
X92817343Y-108333334D01*
X92817343Y-108333334D02*
X93007820Y-108238096D01*
X93007820Y-108238096D02*
X94055439Y-108238096D01*
X93007820Y-108238096D02*
X92817343Y-108142858D01*
X92817343Y-108142858D02*
X92722105Y-107952382D01*
X92722105Y-107952382D02*
X92722105Y-107666668D01*
X92722105Y-107666668D02*
X92817343Y-107476191D01*
X92817343Y-107476191D02*
X93007820Y-107380953D01*
X93007820Y-107380953D02*
X94055439Y-107380953D01*
X94055439Y-105571429D02*
X93007820Y-105571429D01*
X93007820Y-105571429D02*
X92817343Y-105666667D01*
X92817343Y-105666667D02*
X92722105Y-105857143D01*
X92722105Y-105857143D02*
X92722105Y-106238096D01*
X92722105Y-106238096D02*
X92817343Y-106428572D01*
X93960201Y-105571429D02*
X94055439Y-105761905D01*
X94055439Y-105761905D02*
X94055439Y-106238096D01*
X94055439Y-106238096D02*
X93960201Y-106428572D01*
X93960201Y-106428572D02*
X93769724Y-106523810D01*
X93769724Y-106523810D02*
X93579248Y-106523810D01*
X93579248Y-106523810D02*
X93388772Y-106428572D01*
X93388772Y-106428572D02*
X93293534Y-106238096D01*
X93293534Y-106238096D02*
X93293534Y-105761905D01*
X93293534Y-105761905D02*
X93198296Y-105571429D01*
X92722105Y-104904762D02*
X92722105Y-104142858D01*
X92055439Y-104619048D02*
X93769724Y-104619048D01*
X93769724Y-104619048D02*
X93960201Y-104523810D01*
X93960201Y-104523810D02*
X94055439Y-104333334D01*
X94055439Y-104333334D02*
X94055439Y-104142858D01*
X94055439Y-103476191D02*
X92722105Y-103476191D01*
X92055439Y-103476191D02*
X92150677Y-103571429D01*
X92150677Y-103571429D02*
X92245915Y-103476191D01*
X92245915Y-103476191D02*
X92150677Y-103380953D01*
X92150677Y-103380953D02*
X92055439Y-103476191D01*
X92055439Y-103476191D02*
X92245915Y-103476191D01*
X93960201Y-101666667D02*
X94055439Y-101857143D01*
X94055439Y-101857143D02*
X94055439Y-102238096D01*
X94055439Y-102238096D02*
X93960201Y-102428572D01*
X93960201Y-102428572D02*
X93864962Y-102523810D01*
X93864962Y-102523810D02*
X93674486Y-102619048D01*
X93674486Y-102619048D02*
X93103058Y-102619048D01*
X93103058Y-102619048D02*
X92912581Y-102523810D01*
X92912581Y-102523810D02*
X92817343Y-102428572D01*
X92817343Y-102428572D02*
X92722105Y-102238096D01*
X92722105Y-102238096D02*
X92722105Y-101857143D01*
X92722105Y-101857143D02*
X92817343Y-101666667D01*
X94055439Y-99285714D02*
X92055439Y-99285714D01*
X94055439Y-98333333D02*
X92722105Y-98333333D01*
X93103058Y-98333333D02*
X92912581Y-98238095D01*
X92912581Y-98238095D02*
X92817343Y-98142857D01*
X92817343Y-98142857D02*
X92722105Y-97952381D01*
X92722105Y-97952381D02*
X92722105Y-97761904D01*
X94055439Y-97095238D02*
X92722105Y-97095238D01*
X93103058Y-97095238D02*
X92912581Y-97000000D01*
X92912581Y-97000000D02*
X92817343Y-96904762D01*
X92817343Y-96904762D02*
X92722105Y-96714286D01*
X92722105Y-96714286D02*
X92722105Y-96523809D01*
X94055439Y-95857143D02*
X92722105Y-95857143D01*
X92055439Y-95857143D02*
X92150677Y-95952381D01*
X92150677Y-95952381D02*
X92245915Y-95857143D01*
X92245915Y-95857143D02*
X92150677Y-95761905D01*
X92150677Y-95761905D02*
X92055439Y-95857143D01*
X92055439Y-95857143D02*
X92245915Y-95857143D01*
X92722105Y-94047619D02*
X94341153Y-94047619D01*
X94341153Y-94047619D02*
X94531629Y-94142857D01*
X94531629Y-94142857D02*
X94626867Y-94238095D01*
X94626867Y-94238095D02*
X94722105Y-94428572D01*
X94722105Y-94428572D02*
X94722105Y-94714286D01*
X94722105Y-94714286D02*
X94626867Y-94904762D01*
X93960201Y-94047619D02*
X94055439Y-94238095D01*
X94055439Y-94238095D02*
X94055439Y-94619048D01*
X94055439Y-94619048D02*
X93960201Y-94809524D01*
X93960201Y-94809524D02*
X93864962Y-94904762D01*
X93864962Y-94904762D02*
X93674486Y-95000000D01*
X93674486Y-95000000D02*
X93103058Y-95000000D01*
X93103058Y-95000000D02*
X92912581Y-94904762D01*
X92912581Y-94904762D02*
X92817343Y-94809524D01*
X92817343Y-94809524D02*
X92722105Y-94619048D01*
X92722105Y-94619048D02*
X92722105Y-94238095D01*
X92722105Y-94238095D02*
X92817343Y-94047619D01*
X94055439Y-92238095D02*
X93007820Y-92238095D01*
X93007820Y-92238095D02*
X92817343Y-92333333D01*
X92817343Y-92333333D02*
X92722105Y-92523809D01*
X92722105Y-92523809D02*
X92722105Y-92904762D01*
X92722105Y-92904762D02*
X92817343Y-93095238D01*
X93960201Y-92238095D02*
X94055439Y-92428571D01*
X94055439Y-92428571D02*
X94055439Y-92904762D01*
X94055439Y-92904762D02*
X93960201Y-93095238D01*
X93960201Y-93095238D02*
X93769724Y-93190476D01*
X93769724Y-93190476D02*
X93579248Y-93190476D01*
X93579248Y-93190476D02*
X93388772Y-93095238D01*
X93388772Y-93095238D02*
X93293534Y-92904762D01*
X93293534Y-92904762D02*
X93293534Y-92428571D01*
X93293534Y-92428571D02*
X93198296Y-92238095D01*
X92722105Y-91571428D02*
X92722105Y-90809524D01*
X92055439Y-91285714D02*
X93769724Y-91285714D01*
X93769724Y-91285714D02*
X93960201Y-91190476D01*
X93960201Y-91190476D02*
X94055439Y-91000000D01*
X94055439Y-91000000D02*
X94055439Y-90809524D01*
X94055439Y-90142857D02*
X92722105Y-90142857D01*
X92055439Y-90142857D02*
X92150677Y-90238095D01*
X92150677Y-90238095D02*
X92245915Y-90142857D01*
X92245915Y-90142857D02*
X92150677Y-90047619D01*
X92150677Y-90047619D02*
X92055439Y-90142857D01*
X92055439Y-90142857D02*
X92245915Y-90142857D01*
X94055439Y-88904762D02*
X93960201Y-89095238D01*
X93960201Y-89095238D02*
X93864962Y-89190476D01*
X93864962Y-89190476D02*
X93674486Y-89285714D01*
X93674486Y-89285714D02*
X93103058Y-89285714D01*
X93103058Y-89285714D02*
X92912581Y-89190476D01*
X92912581Y-89190476D02*
X92817343Y-89095238D01*
X92817343Y-89095238D02*
X92722105Y-88904762D01*
X92722105Y-88904762D02*
X92722105Y-88619047D01*
X92722105Y-88619047D02*
X92817343Y-88428571D01*
X92817343Y-88428571D02*
X92912581Y-88333333D01*
X92912581Y-88333333D02*
X93103058Y-88238095D01*
X93103058Y-88238095D02*
X93674486Y-88238095D01*
X93674486Y-88238095D02*
X93864962Y-88333333D01*
X93864962Y-88333333D02*
X93960201Y-88428571D01*
X93960201Y-88428571D02*
X94055439Y-88619047D01*
X94055439Y-88619047D02*
X94055439Y-88904762D01*
X92722105Y-87380952D02*
X94055439Y-87380952D01*
X92912581Y-87380952D02*
X92817343Y-87285714D01*
X92817343Y-87285714D02*
X92722105Y-87095238D01*
X92722105Y-87095238D02*
X92722105Y-86809523D01*
X92722105Y-86809523D02*
X92817343Y-86619047D01*
X92817343Y-86619047D02*
X93007820Y-86523809D01*
X93007820Y-86523809D02*
X94055439Y-86523809D01*
X93960201Y-84142856D02*
X94055439Y-83857142D01*
X94055439Y-83857142D02*
X94055439Y-83380951D01*
X94055439Y-83380951D02*
X93960201Y-83190475D01*
X93960201Y-83190475D02*
X93864962Y-83095237D01*
X93864962Y-83095237D02*
X93674486Y-82999999D01*
X93674486Y-82999999D02*
X93484010Y-82999999D01*
X93484010Y-82999999D02*
X93293534Y-83095237D01*
X93293534Y-83095237D02*
X93198296Y-83190475D01*
X93198296Y-83190475D02*
X93103058Y-83380951D01*
X93103058Y-83380951D02*
X93007820Y-83761904D01*
X93007820Y-83761904D02*
X92912581Y-83952380D01*
X92912581Y-83952380D02*
X92817343Y-84047618D01*
X92817343Y-84047618D02*
X92626867Y-84142856D01*
X92626867Y-84142856D02*
X92436391Y-84142856D01*
X92436391Y-84142856D02*
X92245915Y-84047618D01*
X92245915Y-84047618D02*
X92150677Y-83952380D01*
X92150677Y-83952380D02*
X92055439Y-83761904D01*
X92055439Y-83761904D02*
X92055439Y-83285713D01*
X92055439Y-83285713D02*
X92150677Y-82999999D01*
X92722105Y-82333332D02*
X94055439Y-81857142D01*
X92722105Y-81380951D02*
X94055439Y-81857142D01*
X94055439Y-81857142D02*
X94531629Y-82047618D01*
X94531629Y-82047618D02*
X94626867Y-82142856D01*
X94626867Y-82142856D02*
X94722105Y-82333332D01*
X93960201Y-80714284D02*
X94055439Y-80523808D01*
X94055439Y-80523808D02*
X94055439Y-80142856D01*
X94055439Y-80142856D02*
X93960201Y-79952379D01*
X93960201Y-79952379D02*
X93769724Y-79857141D01*
X93769724Y-79857141D02*
X93674486Y-79857141D01*
X93674486Y-79857141D02*
X93484010Y-79952379D01*
X93484010Y-79952379D02*
X93388772Y-80142856D01*
X93388772Y-80142856D02*
X93388772Y-80428570D01*
X93388772Y-80428570D02*
X93293534Y-80619046D01*
X93293534Y-80619046D02*
X93103058Y-80714284D01*
X93103058Y-80714284D02*
X93007820Y-80714284D01*
X93007820Y-80714284D02*
X92817343Y-80619046D01*
X92817343Y-80619046D02*
X92722105Y-80428570D01*
X92722105Y-80428570D02*
X92722105Y-80142856D01*
X92722105Y-80142856D02*
X92817343Y-79952379D01*
X92722105Y-79285712D02*
X92722105Y-78523808D01*
X92055439Y-78999998D02*
X93769724Y-78999998D01*
X93769724Y-78999998D02*
X93960201Y-78904760D01*
X93960201Y-78904760D02*
X94055439Y-78714284D01*
X94055439Y-78714284D02*
X94055439Y-78523808D01*
X93960201Y-77095236D02*
X94055439Y-77285712D01*
X94055439Y-77285712D02*
X94055439Y-77666665D01*
X94055439Y-77666665D02*
X93960201Y-77857141D01*
X93960201Y-77857141D02*
X93769724Y-77952379D01*
X93769724Y-77952379D02*
X93007820Y-77952379D01*
X93007820Y-77952379D02*
X92817343Y-77857141D01*
X92817343Y-77857141D02*
X92722105Y-77666665D01*
X92722105Y-77666665D02*
X92722105Y-77285712D01*
X92722105Y-77285712D02*
X92817343Y-77095236D01*
X92817343Y-77095236D02*
X93007820Y-76999998D01*
X93007820Y-76999998D02*
X93198296Y-76999998D01*
X93198296Y-76999998D02*
X93388772Y-77952379D01*
X94055439Y-76142855D02*
X92722105Y-76142855D01*
X92912581Y-76142855D02*
X92817343Y-76047617D01*
X92817343Y-76047617D02*
X92722105Y-75857141D01*
X92722105Y-75857141D02*
X92722105Y-75571426D01*
X92722105Y-75571426D02*
X92817343Y-75380950D01*
X92817343Y-75380950D02*
X93007820Y-75285712D01*
X93007820Y-75285712D02*
X94055439Y-75285712D01*
X93007820Y-75285712D02*
X92817343Y-75190474D01*
X92817343Y-75190474D02*
X92722105Y-74999998D01*
X92722105Y-74999998D02*
X92722105Y-74714284D01*
X92722105Y-74714284D02*
X92817343Y-74523807D01*
X92817343Y-74523807D02*
X93007820Y-74428569D01*
X93007820Y-74428569D02*
X94055439Y-74428569D01*
X109454668Y-98916033D02*
X109054668Y-98916033D01*
X109254668Y-98916033D02*
X109254668Y-98216033D01*
X109254668Y-98216033D02*
X109188001Y-98316033D01*
X109188001Y-98316033D02*
X109121335Y-98382700D01*
X109121335Y-98382700D02*
X109054668Y-98416033D01*
X110121335Y-98916033D02*
X109721335Y-98916033D01*
X109921335Y-98916033D02*
X109921335Y-98216033D01*
X109921335Y-98216033D02*
X109854668Y-98316033D01*
X109854668Y-98316033D02*
X109788002Y-98382700D01*
X109788002Y-98382700D02*
X109721335Y-98416033D01*
X110554669Y-98216033D02*
X110621335Y-98216033D01*
X110621335Y-98216033D02*
X110688002Y-98249366D01*
X110688002Y-98249366D02*
X110721335Y-98282700D01*
X110721335Y-98282700D02*
X110754669Y-98349366D01*
X110754669Y-98349366D02*
X110788002Y-98482700D01*
X110788002Y-98482700D02*
X110788002Y-98649366D01*
X110788002Y-98649366D02*
X110754669Y-98782700D01*
X110754669Y-98782700D02*
X110721335Y-98849366D01*
X110721335Y-98849366D02*
X110688002Y-98882700D01*
X110688002Y-98882700D02*
X110621335Y-98916033D01*
X110621335Y-98916033D02*
X110554669Y-98916033D01*
X110554669Y-98916033D02*
X110488002Y-98882700D01*
X110488002Y-98882700D02*
X110454669Y-98849366D01*
X110454669Y-98849366D02*
X110421335Y-98782700D01*
X110421335Y-98782700D02*
X110388002Y-98649366D01*
X110388002Y-98649366D02*
X110388002Y-98482700D01*
X110388002Y-98482700D02*
X110421335Y-98349366D01*
X110421335Y-98349366D02*
X110454669Y-98282700D01*
X110454669Y-98282700D02*
X110488002Y-98249366D01*
X110488002Y-98249366D02*
X110554669Y-98216033D01*
X111754669Y-98216033D02*
X111888002Y-98216033D01*
X111888002Y-98216033D02*
X111954669Y-98249366D01*
X111954669Y-98249366D02*
X112021335Y-98316033D01*
X112021335Y-98316033D02*
X112054669Y-98449366D01*
X112054669Y-98449366D02*
X112054669Y-98682700D01*
X112054669Y-98682700D02*
X112021335Y-98816033D01*
X112021335Y-98816033D02*
X111954669Y-98882700D01*
X111954669Y-98882700D02*
X111888002Y-98916033D01*
X111888002Y-98916033D02*
X111754669Y-98916033D01*
X111754669Y-98916033D02*
X111688002Y-98882700D01*
X111688002Y-98882700D02*
X111621335Y-98816033D01*
X111621335Y-98816033D02*
X111588002Y-98682700D01*
X111588002Y-98682700D02*
X111588002Y-98449366D01*
X111588002Y-98449366D02*
X111621335Y-98316033D01*
X111621335Y-98316033D02*
X111688002Y-98249366D01*
X111688002Y-98249366D02*
X111754669Y-98216033D01*
X112354668Y-98916033D02*
X112354668Y-98216033D01*
X112654668Y-98916033D02*
X112654668Y-98549366D01*
X112654668Y-98549366D02*
X112621335Y-98482700D01*
X112621335Y-98482700D02*
X112554668Y-98449366D01*
X112554668Y-98449366D02*
X112454668Y-98449366D01*
X112454668Y-98449366D02*
X112388002Y-98482700D01*
X112388002Y-98482700D02*
X112354668Y-98516033D01*
X112988001Y-98916033D02*
X112988001Y-98449366D01*
X112988001Y-98516033D02*
X113021335Y-98482700D01*
X113021335Y-98482700D02*
X113088001Y-98449366D01*
X113088001Y-98449366D02*
X113188001Y-98449366D01*
X113188001Y-98449366D02*
X113254668Y-98482700D01*
X113254668Y-98482700D02*
X113288001Y-98549366D01*
X113288001Y-98549366D02*
X113288001Y-98916033D01*
X113288001Y-98549366D02*
X113321335Y-98482700D01*
X113321335Y-98482700D02*
X113388001Y-98449366D01*
X113388001Y-98449366D02*
X113488001Y-98449366D01*
X113488001Y-98449366D02*
X113554668Y-98482700D01*
X113554668Y-98482700D02*
X113588001Y-98549366D01*
X113588001Y-98549366D02*
X113588001Y-98916033D01*
X121462762Y-102250057D02*
X121367524Y-102202438D01*
X121367524Y-102202438D02*
X121272286Y-102107200D01*
X121272286Y-102107200D02*
X121129429Y-101964342D01*
X121129429Y-101964342D02*
X121034191Y-101916723D01*
X121034191Y-101916723D02*
X120938953Y-101916723D01*
X120986572Y-102154819D02*
X120891334Y-102107200D01*
X120891334Y-102107200D02*
X120796096Y-102011961D01*
X120796096Y-102011961D02*
X120748477Y-101821485D01*
X120748477Y-101821485D02*
X120748477Y-101488152D01*
X120748477Y-101488152D02*
X120796096Y-101297676D01*
X120796096Y-101297676D02*
X120891334Y-101202438D01*
X120891334Y-101202438D02*
X120986572Y-101154819D01*
X120986572Y-101154819D02*
X121177048Y-101154819D01*
X121177048Y-101154819D02*
X121272286Y-101202438D01*
X121272286Y-101202438D02*
X121367524Y-101297676D01*
X121367524Y-101297676D02*
X121415143Y-101488152D01*
X121415143Y-101488152D02*
X121415143Y-101821485D01*
X121415143Y-101821485D02*
X121367524Y-102011961D01*
X121367524Y-102011961D02*
X121272286Y-102107200D01*
X121272286Y-102107200D02*
X121177048Y-102154819D01*
X121177048Y-102154819D02*
X120986572Y-102154819D01*
X122367524Y-102154819D02*
X121796096Y-102154819D01*
X122081810Y-102154819D02*
X122081810Y-101154819D01*
X122081810Y-101154819D02*
X121986572Y-101297676D01*
X121986572Y-101297676D02*
X121891334Y-101392914D01*
X121891334Y-101392914D02*
X121796096Y-101440533D01*
X111194668Y-106362295D02*
X110928001Y-105981342D01*
X110737525Y-106362295D02*
X110737525Y-105562295D01*
X110737525Y-105562295D02*
X111042287Y-105562295D01*
X111042287Y-105562295D02*
X111118477Y-105600390D01*
X111118477Y-105600390D02*
X111156572Y-105638485D01*
X111156572Y-105638485D02*
X111194668Y-105714676D01*
X111194668Y-105714676D02*
X111194668Y-105828961D01*
X111194668Y-105828961D02*
X111156572Y-105905152D01*
X111156572Y-105905152D02*
X111118477Y-105943247D01*
X111118477Y-105943247D02*
X111042287Y-105981342D01*
X111042287Y-105981342D02*
X110737525Y-105981342D01*
X111880382Y-105562295D02*
X111728001Y-105562295D01*
X111728001Y-105562295D02*
X111651810Y-105600390D01*
X111651810Y-105600390D02*
X111613715Y-105638485D01*
X111613715Y-105638485D02*
X111537525Y-105752771D01*
X111537525Y-105752771D02*
X111499429Y-105905152D01*
X111499429Y-105905152D02*
X111499429Y-106209914D01*
X111499429Y-106209914D02*
X111537525Y-106286104D01*
X111537525Y-106286104D02*
X111575620Y-106324200D01*
X111575620Y-106324200D02*
X111651810Y-106362295D01*
X111651810Y-106362295D02*
X111804191Y-106362295D01*
X111804191Y-106362295D02*
X111880382Y-106324200D01*
X111880382Y-106324200D02*
X111918477Y-106286104D01*
X111918477Y-106286104D02*
X111956572Y-106209914D01*
X111956572Y-106209914D02*
X111956572Y-106019438D01*
X111956572Y-106019438D02*
X111918477Y-105943247D01*
X111918477Y-105943247D02*
X111880382Y-105905152D01*
X111880382Y-105905152D02*
X111804191Y-105867057D01*
X111804191Y-105867057D02*
X111651810Y-105867057D01*
X111651810Y-105867057D02*
X111575620Y-105905152D01*
X111575620Y-105905152D02*
X111537525Y-105943247D01*
X111537525Y-105943247D02*
X111499429Y-106019438D01*
X111161334Y-100454819D02*
X110828001Y-99978628D01*
X110589906Y-100454819D02*
X110589906Y-99454819D01*
X110589906Y-99454819D02*
X110970858Y-99454819D01*
X110970858Y-99454819D02*
X111066096Y-99502438D01*
X111066096Y-99502438D02*
X111113715Y-99550057D01*
X111113715Y-99550057D02*
X111161334Y-99645295D01*
X111161334Y-99645295D02*
X111161334Y-99788152D01*
X111161334Y-99788152D02*
X111113715Y-99883390D01*
X111113715Y-99883390D02*
X111066096Y-99931009D01*
X111066096Y-99931009D02*
X110970858Y-99978628D01*
X110970858Y-99978628D02*
X110589906Y-99978628D01*
X112018477Y-99788152D02*
X112018477Y-100454819D01*
X111780382Y-99407200D02*
X111542287Y-100121485D01*
X111542287Y-100121485D02*
X112161334Y-100121485D01*
X110779906Y-113454819D02*
X110779906Y-112454819D01*
X110779906Y-112454819D02*
X111018001Y-112454819D01*
X111018001Y-112454819D02*
X111160858Y-112502438D01*
X111160858Y-112502438D02*
X111256096Y-112597676D01*
X111256096Y-112597676D02*
X111303715Y-112692914D01*
X111303715Y-112692914D02*
X111351334Y-112883390D01*
X111351334Y-112883390D02*
X111351334Y-113026247D01*
X111351334Y-113026247D02*
X111303715Y-113216723D01*
X111303715Y-113216723D02*
X111256096Y-113311961D01*
X111256096Y-113311961D02*
X111160858Y-113407200D01*
X111160858Y-113407200D02*
X111018001Y-113454819D01*
X111018001Y-113454819D02*
X110779906Y-113454819D01*
X112256096Y-112454819D02*
X111779906Y-112454819D01*
X111779906Y-112454819D02*
X111732287Y-112931009D01*
X111732287Y-112931009D02*
X111779906Y-112883390D01*
X111779906Y-112883390D02*
X111875144Y-112835771D01*
X111875144Y-112835771D02*
X112113239Y-112835771D01*
X112113239Y-112835771D02*
X112208477Y-112883390D01*
X112208477Y-112883390D02*
X112256096Y-112931009D01*
X112256096Y-112931009D02*
X112303715Y-113026247D01*
X112303715Y-113026247D02*
X112303715Y-113264342D01*
X112303715Y-113264342D02*
X112256096Y-113359580D01*
X112256096Y-113359580D02*
X112208477Y-113407200D01*
X112208477Y-113407200D02*
X112113239Y-113454819D01*
X112113239Y-113454819D02*
X111875144Y-113454819D01*
X111875144Y-113454819D02*
X111779906Y-113407200D01*
X111779906Y-113407200D02*
X111732287Y-113359580D01*
X121129906Y-78494819D02*
X121129906Y-77494819D01*
X121129906Y-77494819D02*
X121368001Y-77494819D01*
X121368001Y-77494819D02*
X121510858Y-77542438D01*
X121510858Y-77542438D02*
X121606096Y-77637676D01*
X121606096Y-77637676D02*
X121653715Y-77732914D01*
X121653715Y-77732914D02*
X121701334Y-77923390D01*
X121701334Y-77923390D02*
X121701334Y-78066247D01*
X121701334Y-78066247D02*
X121653715Y-78256723D01*
X121653715Y-78256723D02*
X121606096Y-78351961D01*
X121606096Y-78351961D02*
X121510858Y-78447200D01*
X121510858Y-78447200D02*
X121368001Y-78494819D01*
X121368001Y-78494819D02*
X121129906Y-78494819D01*
X122653715Y-78494819D02*
X122082287Y-78494819D01*
X122368001Y-78494819D02*
X122368001Y-77494819D01*
X122368001Y-77494819D02*
X122272763Y-77637676D01*
X122272763Y-77637676D02*
X122177525Y-77732914D01*
X122177525Y-77732914D02*
X122082287Y-77780533D01*
X93176096Y-119854819D02*
X93176096Y-118854819D01*
X93176096Y-119331009D02*
X93747524Y-119331009D01*
X93747524Y-119854819D02*
X93747524Y-118854819D01*
X94128477Y-118854819D02*
X94747524Y-118854819D01*
X94747524Y-118854819D02*
X94414191Y-119235771D01*
X94414191Y-119235771D02*
X94557048Y-119235771D01*
X94557048Y-119235771D02*
X94652286Y-119283390D01*
X94652286Y-119283390D02*
X94699905Y-119331009D01*
X94699905Y-119331009D02*
X94747524Y-119426247D01*
X94747524Y-119426247D02*
X94747524Y-119664342D01*
X94747524Y-119664342D02*
X94699905Y-119759580D01*
X94699905Y-119759580D02*
X94652286Y-119807200D01*
X94652286Y-119807200D02*
X94557048Y-119854819D01*
X94557048Y-119854819D02*
X94271334Y-119854819D01*
X94271334Y-119854819D02*
X94176096Y-119807200D01*
X94176096Y-119807200D02*
X94128477Y-119759580D01*
X126376096Y-72154819D02*
X126376096Y-71154819D01*
X126376096Y-71631009D02*
X126947524Y-71631009D01*
X126947524Y-72154819D02*
X126947524Y-71154819D01*
X127947524Y-72154819D02*
X127376096Y-72154819D01*
X127661810Y-72154819D02*
X127661810Y-71154819D01*
X127661810Y-71154819D02*
X127566572Y-71297676D01*
X127566572Y-71297676D02*
X127471334Y-71392914D01*
X127471334Y-71392914D02*
X127376096Y-71440533D01*
X121129906Y-94494819D02*
X121129906Y-93494819D01*
X121129906Y-93494819D02*
X121368001Y-93494819D01*
X121368001Y-93494819D02*
X121510858Y-93542438D01*
X121510858Y-93542438D02*
X121606096Y-93637676D01*
X121606096Y-93637676D02*
X121653715Y-93732914D01*
X121653715Y-93732914D02*
X121701334Y-93923390D01*
X121701334Y-93923390D02*
X121701334Y-94066247D01*
X121701334Y-94066247D02*
X121653715Y-94256723D01*
X121653715Y-94256723D02*
X121606096Y-94351961D01*
X121606096Y-94351961D02*
X121510858Y-94447200D01*
X121510858Y-94447200D02*
X121368001Y-94494819D01*
X121368001Y-94494819D02*
X121129906Y-94494819D01*
X122034668Y-93494819D02*
X122653715Y-93494819D01*
X122653715Y-93494819D02*
X122320382Y-93875771D01*
X122320382Y-93875771D02*
X122463239Y-93875771D01*
X122463239Y-93875771D02*
X122558477Y-93923390D01*
X122558477Y-93923390D02*
X122606096Y-93971009D01*
X122606096Y-93971009D02*
X122653715Y-94066247D01*
X122653715Y-94066247D02*
X122653715Y-94304342D01*
X122653715Y-94304342D02*
X122606096Y-94399580D01*
X122606096Y-94399580D02*
X122558477Y-94447200D01*
X122558477Y-94447200D02*
X122463239Y-94494819D01*
X122463239Y-94494819D02*
X122177525Y-94494819D01*
X122177525Y-94494819D02*
X122082287Y-94447200D01*
X122082287Y-94447200D02*
X122034668Y-94399580D01*
X101042762Y-89254819D02*
X100709429Y-88778628D01*
X100471334Y-89254819D02*
X100471334Y-88254819D01*
X100471334Y-88254819D02*
X100852286Y-88254819D01*
X100852286Y-88254819D02*
X100947524Y-88302438D01*
X100947524Y-88302438D02*
X100995143Y-88350057D01*
X100995143Y-88350057D02*
X101042762Y-88445295D01*
X101042762Y-88445295D02*
X101042762Y-88588152D01*
X101042762Y-88588152D02*
X100995143Y-88683390D01*
X100995143Y-88683390D02*
X100947524Y-88731009D01*
X100947524Y-88731009D02*
X100852286Y-88778628D01*
X100852286Y-88778628D02*
X100471334Y-88778628D01*
X101328477Y-88254819D02*
X101661810Y-89254819D01*
X101661810Y-89254819D02*
X101995143Y-88254819D01*
X102280858Y-88350057D02*
X102328477Y-88302438D01*
X102328477Y-88302438D02*
X102423715Y-88254819D01*
X102423715Y-88254819D02*
X102661810Y-88254819D01*
X102661810Y-88254819D02*
X102757048Y-88302438D01*
X102757048Y-88302438D02*
X102804667Y-88350057D01*
X102804667Y-88350057D02*
X102852286Y-88445295D01*
X102852286Y-88445295D02*
X102852286Y-88540533D01*
X102852286Y-88540533D02*
X102804667Y-88683390D01*
X102804667Y-88683390D02*
X102233239Y-89254819D01*
X102233239Y-89254819D02*
X102852286Y-89254819D01*
X121129906Y-70494819D02*
X121129906Y-69494819D01*
X121129906Y-69494819D02*
X121368001Y-69494819D01*
X121368001Y-69494819D02*
X121510858Y-69542438D01*
X121510858Y-69542438D02*
X121606096Y-69637676D01*
X121606096Y-69637676D02*
X121653715Y-69732914D01*
X121653715Y-69732914D02*
X121701334Y-69923390D01*
X121701334Y-69923390D02*
X121701334Y-70066247D01*
X121701334Y-70066247D02*
X121653715Y-70256723D01*
X121653715Y-70256723D02*
X121606096Y-70351961D01*
X121606096Y-70351961D02*
X121510858Y-70447200D01*
X121510858Y-70447200D02*
X121368001Y-70494819D01*
X121368001Y-70494819D02*
X121129906Y-70494819D01*
X122558477Y-69828152D02*
X122558477Y-70494819D01*
X122320382Y-69447200D02*
X122082287Y-70161485D01*
X122082287Y-70161485D02*
X122701334Y-70161485D01*
X126876096Y-119854819D02*
X126876096Y-118854819D01*
X126876096Y-119331009D02*
X127447524Y-119331009D01*
X127447524Y-119854819D02*
X127447524Y-118854819D01*
X128352286Y-119188152D02*
X128352286Y-119854819D01*
X128114191Y-118807200D02*
X127876096Y-119521485D01*
X127876096Y-119521485D02*
X128495143Y-119521485D01*
X101042762Y-98254819D02*
X100709429Y-97778628D01*
X100471334Y-98254819D02*
X100471334Y-97254819D01*
X100471334Y-97254819D02*
X100852286Y-97254819D01*
X100852286Y-97254819D02*
X100947524Y-97302438D01*
X100947524Y-97302438D02*
X100995143Y-97350057D01*
X100995143Y-97350057D02*
X101042762Y-97445295D01*
X101042762Y-97445295D02*
X101042762Y-97588152D01*
X101042762Y-97588152D02*
X100995143Y-97683390D01*
X100995143Y-97683390D02*
X100947524Y-97731009D01*
X100947524Y-97731009D02*
X100852286Y-97778628D01*
X100852286Y-97778628D02*
X100471334Y-97778628D01*
X101328477Y-97254819D02*
X101661810Y-98254819D01*
X101661810Y-98254819D02*
X101995143Y-97254819D01*
X102233239Y-97254819D02*
X102852286Y-97254819D01*
X102852286Y-97254819D02*
X102518953Y-97635771D01*
X102518953Y-97635771D02*
X102661810Y-97635771D01*
X102661810Y-97635771D02*
X102757048Y-97683390D01*
X102757048Y-97683390D02*
X102804667Y-97731009D01*
X102804667Y-97731009D02*
X102852286Y-97826247D01*
X102852286Y-97826247D02*
X102852286Y-98064342D01*
X102852286Y-98064342D02*
X102804667Y-98159580D01*
X102804667Y-98159580D02*
X102757048Y-98207200D01*
X102757048Y-98207200D02*
X102661810Y-98254819D01*
X102661810Y-98254819D02*
X102376096Y-98254819D01*
X102376096Y-98254819D02*
X102280858Y-98207200D01*
X102280858Y-98207200D02*
X102233239Y-98159580D01*
X107652820Y-118333333D02*
X108367105Y-118333333D01*
X108367105Y-118333333D02*
X108509962Y-118380952D01*
X108509962Y-118380952D02*
X108605201Y-118476190D01*
X108605201Y-118476190D02*
X108652820Y-118619047D01*
X108652820Y-118619047D02*
X108652820Y-118714285D01*
X107652820Y-117952380D02*
X107652820Y-117333333D01*
X107652820Y-117333333D02*
X108033772Y-117666666D01*
X108033772Y-117666666D02*
X108033772Y-117523809D01*
X108033772Y-117523809D02*
X108081391Y-117428571D01*
X108081391Y-117428571D02*
X108129010Y-117380952D01*
X108129010Y-117380952D02*
X108224248Y-117333333D01*
X108224248Y-117333333D02*
X108462343Y-117333333D01*
X108462343Y-117333333D02*
X108557581Y-117380952D01*
X108557581Y-117380952D02*
X108605201Y-117428571D01*
X108605201Y-117428571D02*
X108652820Y-117523809D01*
X108652820Y-117523809D02*
X108652820Y-117809523D01*
X108652820Y-117809523D02*
X108605201Y-117904761D01*
X108605201Y-117904761D02*
X108557581Y-117952380D01*
X100071334Y-115573200D02*
X100271334Y-115639866D01*
X100271334Y-115639866D02*
X100604668Y-115639866D01*
X100604668Y-115639866D02*
X100738001Y-115573200D01*
X100738001Y-115573200D02*
X100804668Y-115506533D01*
X100804668Y-115506533D02*
X100871334Y-115373200D01*
X100871334Y-115373200D02*
X100871334Y-115239866D01*
X100871334Y-115239866D02*
X100804668Y-115106533D01*
X100804668Y-115106533D02*
X100738001Y-115039866D01*
X100738001Y-115039866D02*
X100604668Y-114973200D01*
X100604668Y-114973200D02*
X100338001Y-114906533D01*
X100338001Y-114906533D02*
X100204668Y-114839866D01*
X100204668Y-114839866D02*
X100138001Y-114773200D01*
X100138001Y-114773200D02*
X100071334Y-114639866D01*
X100071334Y-114639866D02*
X100071334Y-114506533D01*
X100071334Y-114506533D02*
X100138001Y-114373200D01*
X100138001Y-114373200D02*
X100204668Y-114306533D01*
X100204668Y-114306533D02*
X100338001Y-114239866D01*
X100338001Y-114239866D02*
X100671334Y-114239866D01*
X100671334Y-114239866D02*
X100871334Y-114306533D01*
X102204667Y-115639866D02*
X101404667Y-115639866D01*
X101804667Y-115639866D02*
X101804667Y-114239866D01*
X101804667Y-114239866D02*
X101671334Y-114439866D01*
X101671334Y-114439866D02*
X101538001Y-114573200D01*
X101538001Y-114573200D02*
X101404667Y-114639866D01*
X101042762Y-80254819D02*
X100709429Y-79778628D01*
X100471334Y-80254819D02*
X100471334Y-79254819D01*
X100471334Y-79254819D02*
X100852286Y-79254819D01*
X100852286Y-79254819D02*
X100947524Y-79302438D01*
X100947524Y-79302438D02*
X100995143Y-79350057D01*
X100995143Y-79350057D02*
X101042762Y-79445295D01*
X101042762Y-79445295D02*
X101042762Y-79588152D01*
X101042762Y-79588152D02*
X100995143Y-79683390D01*
X100995143Y-79683390D02*
X100947524Y-79731009D01*
X100947524Y-79731009D02*
X100852286Y-79778628D01*
X100852286Y-79778628D02*
X100471334Y-79778628D01*
X101328477Y-79254819D02*
X101661810Y-80254819D01*
X101661810Y-80254819D02*
X101995143Y-79254819D01*
X102852286Y-80254819D02*
X102280858Y-80254819D01*
X102566572Y-80254819D02*
X102566572Y-79254819D01*
X102566572Y-79254819D02*
X102471334Y-79397676D01*
X102471334Y-79397676D02*
X102376096Y-79492914D01*
X102376096Y-79492914D02*
X102280858Y-79540533D01*
X95132820Y-118333333D02*
X95847105Y-118333333D01*
X95847105Y-118333333D02*
X95989962Y-118380952D01*
X95989962Y-118380952D02*
X96085201Y-118476190D01*
X96085201Y-118476190D02*
X96132820Y-118619047D01*
X96132820Y-118619047D02*
X96132820Y-118714285D01*
X95228058Y-117904761D02*
X95180439Y-117857142D01*
X95180439Y-117857142D02*
X95132820Y-117761904D01*
X95132820Y-117761904D02*
X95132820Y-117523809D01*
X95132820Y-117523809D02*
X95180439Y-117428571D01*
X95180439Y-117428571D02*
X95228058Y-117380952D01*
X95228058Y-117380952D02*
X95323296Y-117333333D01*
X95323296Y-117333333D02*
X95418534Y-117333333D01*
X95418534Y-117333333D02*
X95561391Y-117380952D01*
X95561391Y-117380952D02*
X96132820Y-117952380D01*
X96132820Y-117952380D02*
X96132820Y-117333333D01*
X110589906Y-110454819D02*
X110589906Y-109454819D01*
X110589906Y-109454819D02*
X110828001Y-109454819D01*
X110828001Y-109454819D02*
X110970858Y-109502438D01*
X110970858Y-109502438D02*
X111066096Y-109597676D01*
X111066096Y-109597676D02*
X111113715Y-109692914D01*
X111113715Y-109692914D02*
X111161334Y-109883390D01*
X111161334Y-109883390D02*
X111161334Y-110026247D01*
X111161334Y-110026247D02*
X111113715Y-110216723D01*
X111113715Y-110216723D02*
X111066096Y-110311961D01*
X111066096Y-110311961D02*
X110970858Y-110407200D01*
X110970858Y-110407200D02*
X110828001Y-110454819D01*
X110828001Y-110454819D02*
X110589906Y-110454819D01*
X112018477Y-109454819D02*
X111828001Y-109454819D01*
X111828001Y-109454819D02*
X111732763Y-109502438D01*
X111732763Y-109502438D02*
X111685144Y-109550057D01*
X111685144Y-109550057D02*
X111589906Y-109692914D01*
X111589906Y-109692914D02*
X111542287Y-109883390D01*
X111542287Y-109883390D02*
X111542287Y-110264342D01*
X111542287Y-110264342D02*
X111589906Y-110359580D01*
X111589906Y-110359580D02*
X111637525Y-110407200D01*
X111637525Y-110407200D02*
X111732763Y-110454819D01*
X111732763Y-110454819D02*
X111923239Y-110454819D01*
X111923239Y-110454819D02*
X112018477Y-110407200D01*
X112018477Y-110407200D02*
X112066096Y-110359580D01*
X112066096Y-110359580D02*
X112113715Y-110264342D01*
X112113715Y-110264342D02*
X112113715Y-110026247D01*
X112113715Y-110026247D02*
X112066096Y-109931009D01*
X112066096Y-109931009D02*
X112018477Y-109883390D01*
X112018477Y-109883390D02*
X111923239Y-109835771D01*
X111923239Y-109835771D02*
X111732763Y-109835771D01*
X111732763Y-109835771D02*
X111637525Y-109883390D01*
X111637525Y-109883390D02*
X111589906Y-109931009D01*
X111589906Y-109931009D02*
X111542287Y-110026247D01*
X111161334Y-97454819D02*
X110828001Y-96978628D01*
X110589906Y-97454819D02*
X110589906Y-96454819D01*
X110589906Y-96454819D02*
X110970858Y-96454819D01*
X110970858Y-96454819D02*
X111066096Y-96502438D01*
X111066096Y-96502438D02*
X111113715Y-96550057D01*
X111113715Y-96550057D02*
X111161334Y-96645295D01*
X111161334Y-96645295D02*
X111161334Y-96788152D01*
X111161334Y-96788152D02*
X111113715Y-96883390D01*
X111113715Y-96883390D02*
X111066096Y-96931009D01*
X111066096Y-96931009D02*
X110970858Y-96978628D01*
X110970858Y-96978628D02*
X110589906Y-96978628D01*
X111494668Y-96454819D02*
X112113715Y-96454819D01*
X112113715Y-96454819D02*
X111780382Y-96835771D01*
X111780382Y-96835771D02*
X111923239Y-96835771D01*
X111923239Y-96835771D02*
X112018477Y-96883390D01*
X112018477Y-96883390D02*
X112066096Y-96931009D01*
X112066096Y-96931009D02*
X112113715Y-97026247D01*
X112113715Y-97026247D02*
X112113715Y-97264342D01*
X112113715Y-97264342D02*
X112066096Y-97359580D01*
X112066096Y-97359580D02*
X112018477Y-97407200D01*
X112018477Y-97407200D02*
X111923239Y-97454819D01*
X111923239Y-97454819D02*
X111637525Y-97454819D01*
X111637525Y-97454819D02*
X111542287Y-97407200D01*
X111542287Y-97407200D02*
X111494668Y-97359580D01*
X109444668Y-95866033D02*
X109044668Y-95866033D01*
X109244668Y-95866033D02*
X109244668Y-95166033D01*
X109244668Y-95166033D02*
X109178001Y-95266033D01*
X109178001Y-95266033D02*
X109111335Y-95332700D01*
X109111335Y-95332700D02*
X109044668Y-95366033D01*
X110111335Y-95866033D02*
X109711335Y-95866033D01*
X109911335Y-95866033D02*
X109911335Y-95166033D01*
X109911335Y-95166033D02*
X109844668Y-95266033D01*
X109844668Y-95266033D02*
X109778002Y-95332700D01*
X109778002Y-95332700D02*
X109711335Y-95366033D01*
X110544669Y-95166033D02*
X110611335Y-95166033D01*
X110611335Y-95166033D02*
X110678002Y-95199366D01*
X110678002Y-95199366D02*
X110711335Y-95232700D01*
X110711335Y-95232700D02*
X110744669Y-95299366D01*
X110744669Y-95299366D02*
X110778002Y-95432700D01*
X110778002Y-95432700D02*
X110778002Y-95599366D01*
X110778002Y-95599366D02*
X110744669Y-95732700D01*
X110744669Y-95732700D02*
X110711335Y-95799366D01*
X110711335Y-95799366D02*
X110678002Y-95832700D01*
X110678002Y-95832700D02*
X110611335Y-95866033D01*
X110611335Y-95866033D02*
X110544669Y-95866033D01*
X110544669Y-95866033D02*
X110478002Y-95832700D01*
X110478002Y-95832700D02*
X110444669Y-95799366D01*
X110444669Y-95799366D02*
X110411335Y-95732700D01*
X110411335Y-95732700D02*
X110378002Y-95599366D01*
X110378002Y-95599366D02*
X110378002Y-95432700D01*
X110378002Y-95432700D02*
X110411335Y-95299366D01*
X110411335Y-95299366D02*
X110444669Y-95232700D01*
X110444669Y-95232700D02*
X110478002Y-95199366D01*
X110478002Y-95199366D02*
X110544669Y-95166033D01*
X111744669Y-95166033D02*
X111878002Y-95166033D01*
X111878002Y-95166033D02*
X111944669Y-95199366D01*
X111944669Y-95199366D02*
X112011335Y-95266033D01*
X112011335Y-95266033D02*
X112044669Y-95399366D01*
X112044669Y-95399366D02*
X112044669Y-95632700D01*
X112044669Y-95632700D02*
X112011335Y-95766033D01*
X112011335Y-95766033D02*
X111944669Y-95832700D01*
X111944669Y-95832700D02*
X111878002Y-95866033D01*
X111878002Y-95866033D02*
X111744669Y-95866033D01*
X111744669Y-95866033D02*
X111678002Y-95832700D01*
X111678002Y-95832700D02*
X111611335Y-95766033D01*
X111611335Y-95766033D02*
X111578002Y-95632700D01*
X111578002Y-95632700D02*
X111578002Y-95399366D01*
X111578002Y-95399366D02*
X111611335Y-95266033D01*
X111611335Y-95266033D02*
X111678002Y-95199366D01*
X111678002Y-95199366D02*
X111744669Y-95166033D01*
X112344668Y-95866033D02*
X112344668Y-95166033D01*
X112644668Y-95866033D02*
X112644668Y-95499366D01*
X112644668Y-95499366D02*
X112611335Y-95432700D01*
X112611335Y-95432700D02*
X112544668Y-95399366D01*
X112544668Y-95399366D02*
X112444668Y-95399366D01*
X112444668Y-95399366D02*
X112378002Y-95432700D01*
X112378002Y-95432700D02*
X112344668Y-95466033D01*
X112978001Y-95866033D02*
X112978001Y-95399366D01*
X112978001Y-95466033D02*
X113011335Y-95432700D01*
X113011335Y-95432700D02*
X113078001Y-95399366D01*
X113078001Y-95399366D02*
X113178001Y-95399366D01*
X113178001Y-95399366D02*
X113244668Y-95432700D01*
X113244668Y-95432700D02*
X113278001Y-95499366D01*
X113278001Y-95499366D02*
X113278001Y-95866033D01*
X113278001Y-95499366D02*
X113311335Y-95432700D01*
X113311335Y-95432700D02*
X113378001Y-95399366D01*
X113378001Y-95399366D02*
X113478001Y-95399366D01*
X113478001Y-95399366D02*
X113544668Y-95432700D01*
X113544668Y-95432700D02*
X113578001Y-95499366D01*
X113578001Y-95499366D02*
X113578001Y-95866033D01*
X93376096Y-72154819D02*
X93376096Y-71154819D01*
X93376096Y-71631009D02*
X93947524Y-71631009D01*
X93947524Y-72154819D02*
X93947524Y-71154819D01*
X94376096Y-71250057D02*
X94423715Y-71202438D01*
X94423715Y-71202438D02*
X94518953Y-71154819D01*
X94518953Y-71154819D02*
X94757048Y-71154819D01*
X94757048Y-71154819D02*
X94852286Y-71202438D01*
X94852286Y-71202438D02*
X94899905Y-71250057D01*
X94899905Y-71250057D02*
X94947524Y-71345295D01*
X94947524Y-71345295D02*
X94947524Y-71440533D01*
X94947524Y-71440533D02*
X94899905Y-71583390D01*
X94899905Y-71583390D02*
X94328477Y-72154819D01*
X94328477Y-72154819D02*
X94947524Y-72154819D01*
X121502762Y-108100057D02*
X121407524Y-108052438D01*
X121407524Y-108052438D02*
X121312286Y-107957200D01*
X121312286Y-107957200D02*
X121169429Y-107814342D01*
X121169429Y-107814342D02*
X121074191Y-107766723D01*
X121074191Y-107766723D02*
X120978953Y-107766723D01*
X121026572Y-108004819D02*
X120931334Y-107957200D01*
X120931334Y-107957200D02*
X120836096Y-107861961D01*
X120836096Y-107861961D02*
X120788477Y-107671485D01*
X120788477Y-107671485D02*
X120788477Y-107338152D01*
X120788477Y-107338152D02*
X120836096Y-107147676D01*
X120836096Y-107147676D02*
X120931334Y-107052438D01*
X120931334Y-107052438D02*
X121026572Y-107004819D01*
X121026572Y-107004819D02*
X121217048Y-107004819D01*
X121217048Y-107004819D02*
X121312286Y-107052438D01*
X121312286Y-107052438D02*
X121407524Y-107147676D01*
X121407524Y-107147676D02*
X121455143Y-107338152D01*
X121455143Y-107338152D02*
X121455143Y-107671485D01*
X121455143Y-107671485D02*
X121407524Y-107861961D01*
X121407524Y-107861961D02*
X121312286Y-107957200D01*
X121312286Y-107957200D02*
X121217048Y-108004819D01*
X121217048Y-108004819D02*
X121026572Y-108004819D01*
X121836096Y-107100057D02*
X121883715Y-107052438D01*
X121883715Y-107052438D02*
X121978953Y-107004819D01*
X121978953Y-107004819D02*
X122217048Y-107004819D01*
X122217048Y-107004819D02*
X122312286Y-107052438D01*
X122312286Y-107052438D02*
X122359905Y-107100057D01*
X122359905Y-107100057D02*
X122407524Y-107195295D01*
X122407524Y-107195295D02*
X122407524Y-107290533D01*
X122407524Y-107290533D02*
X122359905Y-107433390D01*
X122359905Y-107433390D02*
X121788477Y-108004819D01*
X121788477Y-108004819D02*
X122407524Y-108004819D01*
X111161334Y-103454819D02*
X110828001Y-102978628D01*
X110589906Y-103454819D02*
X110589906Y-102454819D01*
X110589906Y-102454819D02*
X110970858Y-102454819D01*
X110970858Y-102454819D02*
X111066096Y-102502438D01*
X111066096Y-102502438D02*
X111113715Y-102550057D01*
X111113715Y-102550057D02*
X111161334Y-102645295D01*
X111161334Y-102645295D02*
X111161334Y-102788152D01*
X111161334Y-102788152D02*
X111113715Y-102883390D01*
X111113715Y-102883390D02*
X111066096Y-102931009D01*
X111066096Y-102931009D02*
X110970858Y-102978628D01*
X110970858Y-102978628D02*
X110589906Y-102978628D01*
X112066096Y-102454819D02*
X111589906Y-102454819D01*
X111589906Y-102454819D02*
X111542287Y-102931009D01*
X111542287Y-102931009D02*
X111589906Y-102883390D01*
X111589906Y-102883390D02*
X111685144Y-102835771D01*
X111685144Y-102835771D02*
X111923239Y-102835771D01*
X111923239Y-102835771D02*
X112018477Y-102883390D01*
X112018477Y-102883390D02*
X112066096Y-102931009D01*
X112066096Y-102931009D02*
X112113715Y-103026247D01*
X112113715Y-103026247D02*
X112113715Y-103264342D01*
X112113715Y-103264342D02*
X112066096Y-103359580D01*
X112066096Y-103359580D02*
X112018477Y-103407200D01*
X112018477Y-103407200D02*
X111923239Y-103454819D01*
X111923239Y-103454819D02*
X111685144Y-103454819D01*
X111685144Y-103454819D02*
X111589906Y-103407200D01*
X111589906Y-103407200D02*
X111542287Y-103359580D01*
X111244667Y-101866033D02*
X110844667Y-101866033D01*
X111044667Y-101866033D02*
X111044667Y-101166033D01*
X111044667Y-101166033D02*
X110978000Y-101266033D01*
X110978000Y-101266033D02*
X110911334Y-101332700D01*
X110911334Y-101332700D02*
X110844667Y-101366033D01*
X111544667Y-101866033D02*
X111544667Y-101166033D01*
X111611334Y-101599366D02*
X111811334Y-101866033D01*
X111811334Y-101399366D02*
X111544667Y-101666033D01*
X138044819Y-68685833D02*
X138759104Y-68685833D01*
X138759104Y-68685833D02*
X138901961Y-68733452D01*
X138901961Y-68733452D02*
X138997200Y-68828690D01*
X138997200Y-68828690D02*
X139044819Y-68971547D01*
X139044819Y-68971547D02*
X139044819Y-69066785D01*
X138378152Y-67781071D02*
X139044819Y-67781071D01*
X137997200Y-68019166D02*
X138711485Y-68257261D01*
X138711485Y-68257261D02*
X138711485Y-67638214D01*
X101042762Y-71254819D02*
X100709429Y-70778628D01*
X100471334Y-71254819D02*
X100471334Y-70254819D01*
X100471334Y-70254819D02*
X100852286Y-70254819D01*
X100852286Y-70254819D02*
X100947524Y-70302438D01*
X100947524Y-70302438D02*
X100995143Y-70350057D01*
X100995143Y-70350057D02*
X101042762Y-70445295D01*
X101042762Y-70445295D02*
X101042762Y-70588152D01*
X101042762Y-70588152D02*
X100995143Y-70683390D01*
X100995143Y-70683390D02*
X100947524Y-70731009D01*
X100947524Y-70731009D02*
X100852286Y-70778628D01*
X100852286Y-70778628D02*
X100471334Y-70778628D01*
X101328477Y-70254819D02*
X101661810Y-71254819D01*
X101661810Y-71254819D02*
X101995143Y-70254819D01*
X102757048Y-70588152D02*
X102757048Y-71254819D01*
X102518953Y-70207200D02*
X102280858Y-70921485D01*
X102280858Y-70921485D02*
X102899905Y-70921485D01*
X116604667Y-117654819D02*
X116604667Y-118369104D01*
X116604667Y-118369104D02*
X116557048Y-118511961D01*
X116557048Y-118511961D02*
X116461810Y-118607200D01*
X116461810Y-118607200D02*
X116318953Y-118654819D01*
X116318953Y-118654819D02*
X116223715Y-118654819D01*
X117604667Y-118654819D02*
X117033239Y-118654819D01*
X117318953Y-118654819D02*
X117318953Y-117654819D01*
X117318953Y-117654819D02*
X117223715Y-117797676D01*
X117223715Y-117797676D02*
X117128477Y-117892914D01*
X117128477Y-117892914D02*
X117033239Y-117940533D01*
X111186096Y-69124819D02*
X111186096Y-69934342D01*
X111186096Y-69934342D02*
X111233715Y-70029580D01*
X111233715Y-70029580D02*
X111281334Y-70077200D01*
X111281334Y-70077200D02*
X111376572Y-70124819D01*
X111376572Y-70124819D02*
X111567048Y-70124819D01*
X111567048Y-70124819D02*
X111662286Y-70077200D01*
X111662286Y-70077200D02*
X111709905Y-70029580D01*
X111709905Y-70029580D02*
X111757524Y-69934342D01*
X111757524Y-69934342D02*
X111757524Y-69124819D01*
X112757524Y-70124819D02*
X112186096Y-70124819D01*
X112471810Y-70124819D02*
X112471810Y-69124819D01*
X112471810Y-69124819D02*
X112376572Y-69267676D01*
X112376572Y-69267676D02*
X112281334Y-69362914D01*
X112281334Y-69362914D02*
X112186096Y-69410533D01*
X111161334Y-94454819D02*
X110828001Y-93978628D01*
X110589906Y-94454819D02*
X110589906Y-93454819D01*
X110589906Y-93454819D02*
X110970858Y-93454819D01*
X110970858Y-93454819D02*
X111066096Y-93502438D01*
X111066096Y-93502438D02*
X111113715Y-93550057D01*
X111113715Y-93550057D02*
X111161334Y-93645295D01*
X111161334Y-93645295D02*
X111161334Y-93788152D01*
X111161334Y-93788152D02*
X111113715Y-93883390D01*
X111113715Y-93883390D02*
X111066096Y-93931009D01*
X111066096Y-93931009D02*
X110970858Y-93978628D01*
X110970858Y-93978628D02*
X110589906Y-93978628D01*
X112113715Y-94454819D02*
X111542287Y-94454819D01*
X111828001Y-94454819D02*
X111828001Y-93454819D01*
X111828001Y-93454819D02*
X111732763Y-93597676D01*
X111732763Y-93597676D02*
X111637525Y-93692914D01*
X111637525Y-93692914D02*
X111542287Y-93740533D01*
X109444668Y-92866033D02*
X109044668Y-92866033D01*
X109244668Y-92866033D02*
X109244668Y-92166033D01*
X109244668Y-92166033D02*
X109178001Y-92266033D01*
X109178001Y-92266033D02*
X109111335Y-92332700D01*
X109111335Y-92332700D02*
X109044668Y-92366033D01*
X110111335Y-92866033D02*
X109711335Y-92866033D01*
X109911335Y-92866033D02*
X109911335Y-92166033D01*
X109911335Y-92166033D02*
X109844668Y-92266033D01*
X109844668Y-92266033D02*
X109778002Y-92332700D01*
X109778002Y-92332700D02*
X109711335Y-92366033D01*
X110544669Y-92166033D02*
X110611335Y-92166033D01*
X110611335Y-92166033D02*
X110678002Y-92199366D01*
X110678002Y-92199366D02*
X110711335Y-92232700D01*
X110711335Y-92232700D02*
X110744669Y-92299366D01*
X110744669Y-92299366D02*
X110778002Y-92432700D01*
X110778002Y-92432700D02*
X110778002Y-92599366D01*
X110778002Y-92599366D02*
X110744669Y-92732700D01*
X110744669Y-92732700D02*
X110711335Y-92799366D01*
X110711335Y-92799366D02*
X110678002Y-92832700D01*
X110678002Y-92832700D02*
X110611335Y-92866033D01*
X110611335Y-92866033D02*
X110544669Y-92866033D01*
X110544669Y-92866033D02*
X110478002Y-92832700D01*
X110478002Y-92832700D02*
X110444669Y-92799366D01*
X110444669Y-92799366D02*
X110411335Y-92732700D01*
X110411335Y-92732700D02*
X110378002Y-92599366D01*
X110378002Y-92599366D02*
X110378002Y-92432700D01*
X110378002Y-92432700D02*
X110411335Y-92299366D01*
X110411335Y-92299366D02*
X110444669Y-92232700D01*
X110444669Y-92232700D02*
X110478002Y-92199366D01*
X110478002Y-92199366D02*
X110544669Y-92166033D01*
X111744669Y-92166033D02*
X111878002Y-92166033D01*
X111878002Y-92166033D02*
X111944669Y-92199366D01*
X111944669Y-92199366D02*
X112011335Y-92266033D01*
X112011335Y-92266033D02*
X112044669Y-92399366D01*
X112044669Y-92399366D02*
X112044669Y-92632700D01*
X112044669Y-92632700D02*
X112011335Y-92766033D01*
X112011335Y-92766033D02*
X111944669Y-92832700D01*
X111944669Y-92832700D02*
X111878002Y-92866033D01*
X111878002Y-92866033D02*
X111744669Y-92866033D01*
X111744669Y-92866033D02*
X111678002Y-92832700D01*
X111678002Y-92832700D02*
X111611335Y-92766033D01*
X111611335Y-92766033D02*
X111578002Y-92632700D01*
X111578002Y-92632700D02*
X111578002Y-92399366D01*
X111578002Y-92399366D02*
X111611335Y-92266033D01*
X111611335Y-92266033D02*
X111678002Y-92199366D01*
X111678002Y-92199366D02*
X111744669Y-92166033D01*
X112344668Y-92866033D02*
X112344668Y-92166033D01*
X112644668Y-92866033D02*
X112644668Y-92499366D01*
X112644668Y-92499366D02*
X112611335Y-92432700D01*
X112611335Y-92432700D02*
X112544668Y-92399366D01*
X112544668Y-92399366D02*
X112444668Y-92399366D01*
X112444668Y-92399366D02*
X112378002Y-92432700D01*
X112378002Y-92432700D02*
X112344668Y-92466033D01*
X112978001Y-92866033D02*
X112978001Y-92399366D01*
X112978001Y-92466033D02*
X113011335Y-92432700D01*
X113011335Y-92432700D02*
X113078001Y-92399366D01*
X113078001Y-92399366D02*
X113178001Y-92399366D01*
X113178001Y-92399366D02*
X113244668Y-92432700D01*
X113244668Y-92432700D02*
X113278001Y-92499366D01*
X113278001Y-92499366D02*
X113278001Y-92866033D01*
X113278001Y-92499366D02*
X113311335Y-92432700D01*
X113311335Y-92432700D02*
X113378001Y-92399366D01*
X113378001Y-92399366D02*
X113478001Y-92399366D01*
X113478001Y-92399366D02*
X113544668Y-92432700D01*
X113544668Y-92432700D02*
X113578001Y-92499366D01*
X113578001Y-92499366D02*
X113578001Y-92866033D01*
X111161334Y-91454819D02*
X110828001Y-90978628D01*
X110589906Y-91454819D02*
X110589906Y-90454819D01*
X110589906Y-90454819D02*
X110970858Y-90454819D01*
X110970858Y-90454819D02*
X111066096Y-90502438D01*
X111066096Y-90502438D02*
X111113715Y-90550057D01*
X111113715Y-90550057D02*
X111161334Y-90645295D01*
X111161334Y-90645295D02*
X111161334Y-90788152D01*
X111161334Y-90788152D02*
X111113715Y-90883390D01*
X111113715Y-90883390D02*
X111066096Y-90931009D01*
X111066096Y-90931009D02*
X110970858Y-90978628D01*
X110970858Y-90978628D02*
X110589906Y-90978628D01*
X111542287Y-90550057D02*
X111589906Y-90502438D01*
X111589906Y-90502438D02*
X111685144Y-90454819D01*
X111685144Y-90454819D02*
X111923239Y-90454819D01*
X111923239Y-90454819D02*
X112018477Y-90502438D01*
X112018477Y-90502438D02*
X112066096Y-90550057D01*
X112066096Y-90550057D02*
X112113715Y-90645295D01*
X112113715Y-90645295D02*
X112113715Y-90740533D01*
X112113715Y-90740533D02*
X112066096Y-90883390D01*
X112066096Y-90883390D02*
X111494668Y-91454819D01*
X111494668Y-91454819D02*
X112113715Y-91454819D01*
X109444668Y-89836033D02*
X109044668Y-89836033D01*
X109244668Y-89836033D02*
X109244668Y-89136033D01*
X109244668Y-89136033D02*
X109178001Y-89236033D01*
X109178001Y-89236033D02*
X109111335Y-89302700D01*
X109111335Y-89302700D02*
X109044668Y-89336033D01*
X110111335Y-89836033D02*
X109711335Y-89836033D01*
X109911335Y-89836033D02*
X109911335Y-89136033D01*
X109911335Y-89136033D02*
X109844668Y-89236033D01*
X109844668Y-89236033D02*
X109778002Y-89302700D01*
X109778002Y-89302700D02*
X109711335Y-89336033D01*
X110544669Y-89136033D02*
X110611335Y-89136033D01*
X110611335Y-89136033D02*
X110678002Y-89169366D01*
X110678002Y-89169366D02*
X110711335Y-89202700D01*
X110711335Y-89202700D02*
X110744669Y-89269366D01*
X110744669Y-89269366D02*
X110778002Y-89402700D01*
X110778002Y-89402700D02*
X110778002Y-89569366D01*
X110778002Y-89569366D02*
X110744669Y-89702700D01*
X110744669Y-89702700D02*
X110711335Y-89769366D01*
X110711335Y-89769366D02*
X110678002Y-89802700D01*
X110678002Y-89802700D02*
X110611335Y-89836033D01*
X110611335Y-89836033D02*
X110544669Y-89836033D01*
X110544669Y-89836033D02*
X110478002Y-89802700D01*
X110478002Y-89802700D02*
X110444669Y-89769366D01*
X110444669Y-89769366D02*
X110411335Y-89702700D01*
X110411335Y-89702700D02*
X110378002Y-89569366D01*
X110378002Y-89569366D02*
X110378002Y-89402700D01*
X110378002Y-89402700D02*
X110411335Y-89269366D01*
X110411335Y-89269366D02*
X110444669Y-89202700D01*
X110444669Y-89202700D02*
X110478002Y-89169366D01*
X110478002Y-89169366D02*
X110544669Y-89136033D01*
X111744669Y-89136033D02*
X111878002Y-89136033D01*
X111878002Y-89136033D02*
X111944669Y-89169366D01*
X111944669Y-89169366D02*
X112011335Y-89236033D01*
X112011335Y-89236033D02*
X112044669Y-89369366D01*
X112044669Y-89369366D02*
X112044669Y-89602700D01*
X112044669Y-89602700D02*
X112011335Y-89736033D01*
X112011335Y-89736033D02*
X111944669Y-89802700D01*
X111944669Y-89802700D02*
X111878002Y-89836033D01*
X111878002Y-89836033D02*
X111744669Y-89836033D01*
X111744669Y-89836033D02*
X111678002Y-89802700D01*
X111678002Y-89802700D02*
X111611335Y-89736033D01*
X111611335Y-89736033D02*
X111578002Y-89602700D01*
X111578002Y-89602700D02*
X111578002Y-89369366D01*
X111578002Y-89369366D02*
X111611335Y-89236033D01*
X111611335Y-89236033D02*
X111678002Y-89169366D01*
X111678002Y-89169366D02*
X111744669Y-89136033D01*
X112344668Y-89836033D02*
X112344668Y-89136033D01*
X112644668Y-89836033D02*
X112644668Y-89469366D01*
X112644668Y-89469366D02*
X112611335Y-89402700D01*
X112611335Y-89402700D02*
X112544668Y-89369366D01*
X112544668Y-89369366D02*
X112444668Y-89369366D01*
X112444668Y-89369366D02*
X112378002Y-89402700D01*
X112378002Y-89402700D02*
X112344668Y-89436033D01*
X112978001Y-89836033D02*
X112978001Y-89369366D01*
X112978001Y-89436033D02*
X113011335Y-89402700D01*
X113011335Y-89402700D02*
X113078001Y-89369366D01*
X113078001Y-89369366D02*
X113178001Y-89369366D01*
X113178001Y-89369366D02*
X113244668Y-89402700D01*
X113244668Y-89402700D02*
X113278001Y-89469366D01*
X113278001Y-89469366D02*
X113278001Y-89836033D01*
X113278001Y-89469366D02*
X113311335Y-89402700D01*
X113311335Y-89402700D02*
X113378001Y-89369366D01*
X113378001Y-89369366D02*
X113478001Y-89369366D01*
X113478001Y-89369366D02*
X113544668Y-89402700D01*
X113544668Y-89402700D02*
X113578001Y-89469366D01*
X113578001Y-89469366D02*
X113578001Y-89836033D01*
X121129906Y-86494819D02*
X121129906Y-85494819D01*
X121129906Y-85494819D02*
X121368001Y-85494819D01*
X121368001Y-85494819D02*
X121510858Y-85542438D01*
X121510858Y-85542438D02*
X121606096Y-85637676D01*
X121606096Y-85637676D02*
X121653715Y-85732914D01*
X121653715Y-85732914D02*
X121701334Y-85923390D01*
X121701334Y-85923390D02*
X121701334Y-86066247D01*
X121701334Y-86066247D02*
X121653715Y-86256723D01*
X121653715Y-86256723D02*
X121606096Y-86351961D01*
X121606096Y-86351961D02*
X121510858Y-86447200D01*
X121510858Y-86447200D02*
X121368001Y-86494819D01*
X121368001Y-86494819D02*
X121129906Y-86494819D01*
X122082287Y-85590057D02*
X122129906Y-85542438D01*
X122129906Y-85542438D02*
X122225144Y-85494819D01*
X122225144Y-85494819D02*
X122463239Y-85494819D01*
X122463239Y-85494819D02*
X122558477Y-85542438D01*
X122558477Y-85542438D02*
X122606096Y-85590057D01*
X122606096Y-85590057D02*
X122653715Y-85685295D01*
X122653715Y-85685295D02*
X122653715Y-85780533D01*
X122653715Y-85780533D02*
X122606096Y-85923390D01*
X122606096Y-85923390D02*
X122034668Y-86494819D01*
X122034668Y-86494819D02*
X122653715Y-86494819D01*
X149643333Y-70507319D02*
X149310000Y-70031128D01*
X149071905Y-70507319D02*
X149071905Y-69507319D01*
X149071905Y-69507319D02*
X149452857Y-69507319D01*
X149452857Y-69507319D02*
X149548095Y-69554938D01*
X149548095Y-69554938D02*
X149595714Y-69602557D01*
X149595714Y-69602557D02*
X149643333Y-69697795D01*
X149643333Y-69697795D02*
X149643333Y-69840652D01*
X149643333Y-69840652D02*
X149595714Y-69935890D01*
X149595714Y-69935890D02*
X149548095Y-69983509D01*
X149548095Y-69983509D02*
X149452857Y-70031128D01*
X149452857Y-70031128D02*
X149071905Y-70031128D01*
X149976667Y-69507319D02*
X150643333Y-69507319D01*
X150643333Y-69507319D02*
X150214762Y-70507319D01*
D12*
%TO.C,Q1*%
X119658001Y-106700000D02*
X123508001Y-106700000D01*
X119241601Y-103901193D02*
G75*
G02*
X121598001Y-102400000I2356400J-1098807D01*
G01*
X119658001Y-106700000D02*
G75*
G02*
X119275370Y-106122045I1940000J1700000D01*
G01*
X121598001Y-102400000D02*
G75*
G02*
X123954401Y-103901193I0J-2600000D01*
G01*
X123900384Y-106112264D02*
G75*
G02*
X123508001Y-106700000I-2302383J1112264D01*
G01*
%TO.C,R6*%
X108458001Y-106000000D02*
X109408001Y-106000000D01*
X109408001Y-105080000D02*
X109408001Y-106920000D01*
X109408001Y-106920000D02*
X113248001Y-106920000D01*
X113248001Y-105080000D02*
X109408001Y-105080000D01*
X113248001Y-106920000D02*
X113248001Y-105080000D01*
X114198001Y-106000000D02*
X113248001Y-106000000D01*
%TO.C,R4*%
X108458001Y-100000000D02*
X109408001Y-100000000D01*
X109408001Y-99080000D02*
X109408001Y-100920000D01*
X109408001Y-100920000D02*
X113248001Y-100920000D01*
X113248001Y-99080000D02*
X109408001Y-99080000D01*
X113248001Y-100920000D02*
X113248001Y-99080000D01*
X114198001Y-100000000D02*
X113248001Y-100000000D01*
%TO.C,D5*%
X108558001Y-113000000D02*
X109208001Y-113000000D01*
X109208001Y-111880000D02*
X109208001Y-114120000D01*
X109208001Y-114120000D02*
X113448001Y-114120000D01*
X109808001Y-111880000D02*
X109808001Y-114120000D01*
X109928001Y-111880000D02*
X109928001Y-114120000D01*
X110048001Y-111880000D02*
X110048001Y-114120000D01*
X113448001Y-111880000D02*
X109208001Y-111880000D01*
X113448001Y-114120000D02*
X113448001Y-111880000D01*
X114098001Y-113000000D02*
X113448001Y-113000000D01*
%TO.C,D1*%
X119308001Y-80455000D02*
X119308001Y-83545000D01*
X119308001Y-80455170D02*
G75*
G02*
X124858001Y-82000462I2560000J-1544830D01*
G01*
X124858001Y-81999538D02*
G75*
G02*
X119308001Y-83544830I-2990000J-462D01*
G01*
X124368001Y-82000000D02*
G75*
G02*
X119368001Y-82000000I-2500000J0D01*
G01*
X119368001Y-82000000D02*
G75*
G02*
X124368001Y-82000000I2500000J0D01*
G01*
%TO.C,D3*%
X119308001Y-96455000D02*
X119308001Y-99545000D01*
X119308001Y-96455170D02*
G75*
G02*
X124858001Y-98000462I2560000J-1544830D01*
G01*
X124858001Y-97999538D02*
G75*
G02*
X119308001Y-99544830I-2990000J-462D01*
G01*
X124368001Y-98000000D02*
G75*
G02*
X119368001Y-98000000I-2500000J0D01*
G01*
X119368001Y-98000000D02*
G75*
G02*
X124368001Y-98000000I2500000J0D01*
G01*
%TO.C,RV2*%
X98724614Y-94485202D02*
G75*
G02*
X98724001Y-91516000I2913387J1485202D01*
G01*
X100154033Y-90086171D02*
G75*
G02*
X104730001Y-91936000I1483968J-2913829D01*
G01*
X101694864Y-96270075D02*
G75*
G02*
X100153001Y-95914000I-56863J3270075D01*
G01*
X104729847Y-94064608D02*
G75*
G02*
X101638001Y-96270000I-3091846J1064608D01*
G01*
%TO.C,D4*%
X119308001Y-72455000D02*
X119308001Y-75545000D01*
X119308001Y-72455170D02*
G75*
G02*
X124858001Y-74000462I2560000J-1544830D01*
G01*
X124858001Y-73999538D02*
G75*
G02*
X119308001Y-75544830I-2990000J-462D01*
G01*
X124368001Y-74000000D02*
G75*
G02*
X119368001Y-74000000I-2500000J0D01*
G01*
X119368001Y-74000000D02*
G75*
G02*
X124368001Y-74000000I2500000J0D01*
G01*
%TO.C,RV3*%
X98724614Y-103485202D02*
G75*
G02*
X98724001Y-100516000I2913387J1485202D01*
G01*
X100154033Y-99086171D02*
G75*
G02*
X104730001Y-100936000I1483968J-2913829D01*
G01*
X101694864Y-105270075D02*
G75*
G02*
X100153001Y-104914000I-56863J3270075D01*
G01*
X104729847Y-103064608D02*
G75*
G02*
X101638001Y-105270000I-3091846J1064608D01*
G01*
%TO.C,J3*%
X109268001Y-119330000D02*
X109268001Y-118000000D01*
X110598001Y-119330000D02*
X109268001Y-119330000D01*
X111868001Y-116670000D02*
X114468001Y-116670000D01*
X111868001Y-119330000D02*
X111868001Y-116670000D01*
X111868001Y-119330000D02*
X114468001Y-119330000D01*
X114468001Y-119330000D02*
X114468001Y-116670000D01*
D13*
%TO.C,S1*%
X97638001Y-107000000D02*
X98138001Y-107000000D01*
X97638001Y-114000000D02*
X97638001Y-107000000D01*
X97638001Y-114000000D02*
X98138001Y-114000000D01*
X104138001Y-107000000D02*
X104638001Y-107000000D01*
X104138001Y-114000000D02*
X104638001Y-114000000D01*
X104638001Y-107000000D02*
X104638001Y-114000000D01*
D14*
X99198001Y-106500000D02*
G75*
G02*
X98998001Y-106500000I-100000J0D01*
G01*
X98998001Y-106500000D02*
G75*
G02*
X99198001Y-106500000I100000J0D01*
G01*
D12*
%TO.C,RV1*%
X98724614Y-85485202D02*
G75*
G02*
X98724001Y-82516000I2913387J1485202D01*
G01*
X100154033Y-81086171D02*
G75*
G02*
X104730001Y-82936000I1483968J-2913829D01*
G01*
X101694864Y-87270075D02*
G75*
G02*
X100153001Y-86914000I-56863J3270075D01*
G01*
X104729847Y-85064608D02*
G75*
G02*
X101638001Y-87270000I-3091846J1064608D01*
G01*
%TO.C,J2*%
X96808001Y-119330000D02*
X96808001Y-118000000D01*
X98138001Y-119330000D02*
X96808001Y-119330000D01*
X99408001Y-116670000D02*
X104548001Y-116670000D01*
X99408001Y-119330000D02*
X99408001Y-116670000D01*
X99408001Y-119330000D02*
X104548001Y-119330000D01*
X104548001Y-119330000D02*
X104548001Y-116670000D01*
%TO.C,D6*%
X108558001Y-110000000D02*
X109208001Y-110000000D01*
X109208001Y-108880000D02*
X109208001Y-111120000D01*
X109208001Y-111120000D02*
X113448001Y-111120000D01*
X109808001Y-108880000D02*
X109808001Y-111120000D01*
X109928001Y-108880000D02*
X109928001Y-111120000D01*
X110048001Y-108880000D02*
X110048001Y-111120000D01*
X113448001Y-108880000D02*
X109208001Y-108880000D01*
X113448001Y-111120000D02*
X113448001Y-108880000D01*
X114098001Y-110000000D02*
X113448001Y-110000000D01*
%TO.C,R3*%
X108458001Y-97000000D02*
X109408001Y-97000000D01*
X109408001Y-96080000D02*
X109408001Y-97920000D01*
X109408001Y-97920000D02*
X113248001Y-97920000D01*
X113248001Y-96080000D02*
X109408001Y-96080000D01*
X113248001Y-97920000D02*
X113248001Y-96080000D01*
X114198001Y-97000000D02*
X113248001Y-97000000D01*
%TO.C,Q2*%
X119658001Y-112700000D02*
X123508001Y-112700000D01*
X119241601Y-109901193D02*
G75*
G02*
X121598001Y-108400000I2356400J-1098807D01*
G01*
X119658001Y-112700000D02*
G75*
G02*
X119275370Y-112122045I1940000J1700000D01*
G01*
X121598001Y-108400000D02*
G75*
G02*
X123954401Y-109901193I0J-2600000D01*
G01*
X123900384Y-112112264D02*
G75*
G02*
X123508001Y-112700000I-2302383J1112264D01*
G01*
%TO.C,R5*%
X108458001Y-103000000D02*
X109408001Y-103000000D01*
X109408001Y-102080000D02*
X109408001Y-103920000D01*
X109408001Y-103920000D02*
X113248001Y-103920000D01*
X113248001Y-102080000D02*
X109408001Y-102080000D01*
X113248001Y-103920000D02*
X113248001Y-102080000D01*
X114198001Y-103000000D02*
X113248001Y-103000000D01*
%TO.C,J4*%
X147330000Y-69682500D02*
X147330000Y-67022500D01*
X142190000Y-69682500D02*
X147330000Y-69682500D01*
X142190000Y-69682500D02*
X142190000Y-67022500D01*
X142190000Y-67022500D02*
X147330000Y-67022500D01*
X140920000Y-69682500D02*
X139590000Y-69682500D01*
X139590000Y-69682500D02*
X139590000Y-68352500D01*
%TO.C,RV4*%
X98724614Y-76485202D02*
G75*
G02*
X98724001Y-73516000I2913387J1485202D01*
G01*
X100154033Y-72086171D02*
G75*
G02*
X104730001Y-73936000I1483968J-2913829D01*
G01*
X101694864Y-78270075D02*
G75*
G02*
X100153001Y-77914000I-56863J3270075D01*
G01*
X104729847Y-76064608D02*
G75*
G02*
X101638001Y-78270000I-3091846J1064608D01*
G01*
%TO.C,J1*%
X118078001Y-113490000D02*
X118078001Y-119460000D01*
X118078001Y-119460000D02*
X125698001Y-119460000D01*
X118088001Y-117200000D02*
X118838001Y-117200000D01*
X118088001Y-118700000D02*
X118088001Y-119450000D01*
X118088001Y-119450000D02*
X119888001Y-119450000D01*
X118838001Y-114250000D02*
X121888001Y-114250000D01*
X118838001Y-117200000D02*
X118838001Y-114250000D01*
X119888001Y-118700000D02*
X118088001Y-118700000D01*
X119888001Y-119450000D02*
X119888001Y-118700000D01*
X121388001Y-118700000D02*
X121388001Y-119450000D01*
X121388001Y-119450000D02*
X122388001Y-119450000D01*
X122388001Y-118700000D02*
X121388001Y-118700000D01*
X122388001Y-119450000D02*
X122388001Y-118700000D01*
X123888001Y-118700000D02*
X123888001Y-119450000D01*
X123888001Y-119450000D02*
X125688001Y-119450000D01*
X124738001Y-119750000D02*
X125988001Y-119750000D01*
X124938001Y-114250000D02*
X121888001Y-114250000D01*
X124938001Y-117200000D02*
X124938001Y-114250000D01*
X125688001Y-117200000D02*
X124938001Y-117200000D01*
X125688001Y-118700000D02*
X123888001Y-118700000D01*
X125688001Y-119450000D02*
X125688001Y-118700000D01*
X125698001Y-113490000D02*
X118078001Y-113490000D01*
X125698001Y-119460000D02*
X125698001Y-113490000D01*
X125988001Y-119750000D02*
X125988001Y-118500000D01*
%TO.C,U1*%
X106808001Y-70610000D02*
X106808001Y-88630000D01*
X106808001Y-88630000D02*
X117088001Y-88630000D01*
X109298001Y-70670000D02*
X109298001Y-88570000D01*
X109298001Y-88570000D02*
X114598001Y-88570000D01*
X110948001Y-70670000D02*
X109298001Y-70670000D01*
X114598001Y-70670000D02*
X112948001Y-70670000D01*
X114598001Y-88570000D02*
X114598001Y-70670000D01*
X117088001Y-70610000D02*
X106808001Y-70610000D01*
X117088001Y-88630000D02*
X117088001Y-70610000D01*
X112948001Y-70670000D02*
G75*
G02*
X110948001Y-70670000I-1000000J0D01*
G01*
%TO.C,R1*%
X114198001Y-94000000D02*
X113248001Y-94000000D01*
X113248001Y-94920000D02*
X113248001Y-93080000D01*
X113248001Y-93080000D02*
X109408001Y-93080000D01*
X109408001Y-94920000D02*
X113248001Y-94920000D01*
X109408001Y-93080000D02*
X109408001Y-94920000D01*
X108458001Y-94000000D02*
X109408001Y-94000000D01*
%TO.C,R2*%
X108458001Y-91000000D02*
X109408001Y-91000000D01*
X109408001Y-90080000D02*
X109408001Y-91920000D01*
X109408001Y-91920000D02*
X113248001Y-91920000D01*
X113248001Y-90080000D02*
X109408001Y-90080000D01*
X113248001Y-91920000D02*
X113248001Y-90080000D01*
X114198001Y-91000000D02*
X113248001Y-91000000D01*
%TO.C,D2*%
X119308001Y-88455000D02*
X119308001Y-91545000D01*
X119308001Y-88455170D02*
G75*
G02*
X124858001Y-90000462I2560000J-1544830D01*
G01*
X124858001Y-89999538D02*
G75*
G02*
X119308001Y-91544830I-2990000J-462D01*
G01*
X124368001Y-90000000D02*
G75*
G02*
X119368001Y-90000000I-2500000J0D01*
G01*
X119368001Y-90000000D02*
G75*
G02*
X124368001Y-90000000I2500000J0D01*
G01*
%TO.C,R7*%
X143940000Y-71752500D02*
X144890000Y-71752500D01*
X144890000Y-70832500D02*
X144890000Y-72672500D01*
X144890000Y-72672500D02*
X148730000Y-72672500D01*
X148730000Y-70832500D02*
X144890000Y-70832500D01*
X148730000Y-72672500D02*
X148730000Y-70832500D01*
X149680000Y-71752500D02*
X148730000Y-71752500D01*
%TD*%
M02*
